<?xml version="1.0" encoding="UTF-8" standalone="no"?>
<!-- Created with Inkscape (http://www.inkscape.org/) -->

<svg
   xmlns:dc="http://purl.org/dc/elements/1.1/"
   xmlns:cc="http://creativecommons.org/ns#"
   xmlns:rdf="http://www.w3.org/1999/02/22-rdf-syntax-ns#"
   xmlns:svg="http://www.w3.org/2000/svg"
   xmlns="http://www.w3.org/2000/svg"
   version="1.1"
   width="589.77063"
   height="576.01001"
   id="svg2"
   xml:space="preserve"><metadata
     id="metadata8"><rdf:RDF><cc:Work
         rdf:about=""><dc:format>image/svg+xml</dc:format><dc:type
           rdf:resource="http://purl.org/dc/dcmitype/StillImage" /><dc:title></dc:title></cc:Work></rdf:RDF></metadata><defs
     id="defs6" /><g
     transform="matrix(1.25,0,0,-1.25,-1006.5086,5808.0465)"
     id="g10"><g
       transform="scale(0.542059,0.542059)"
       id="g12"><g
         transform="translate(-2197.4956,-10.987478)"
         id="g3457"><path
           d="m 4154.26,7946.87 c -6.11,0 -12.07,-2.25 -17.7,-6.67 -30.38,-23.81 -62.94,-49.8 -94.76,-77.77 -10.34,-9.02 -15.67,-17.37 -15.87,-24.77 -0.2,-7.58 4.8,-16.46 14.87,-26.42 11.84,-11.7 25.2,-22.43 39.77,-32.13 14.5,-9.62 31.11,-14.04 52.29,-14.04 6.56,0 13.52,0.4 21.28,1.29 24.17,3.13 53.71,14.83 85.18,33.87 40.9,24.85 79.62,58.04 121.68,104.32 50.54,56.1 89.09,109.9 117.69,164.23 24.48,46.6 37.63,86.41 41.32,125.24 3.51,36.27 -2.55,63.67 -19.04,86.27 -13.98,19.26 -33.19,34.96 -57.19,46.85 -5.75,2.88 -10.92,4.29 -15.46,4.29 -4.79,0 -12.21,-1.41 -20.18,-13.62 -8.21,-12.32 -15.15,-25.62 -22.4,-39.66 l -4.33,-8.31 c -11.37,-21.8 -22.18,-43.57 -32.36,-63.97 -9.23,-18.58 -5.57,-32.1 11.86,-43.83 8.29,-5.86 15.7,-11.02 23.01,-16.96 19.63,-16.09 27.08,-38.26 21.65,-64.03 -4.85,-23.03 -16.28,-42.01 -25.73,-56.05 -20.14,-30.11 -48.2,-68.63 -87.04,-99.9 -7.25,-5.88 -16.07,-11.36 -25.99,-16.21 -9.6,-4.65 -19.2,-6.94 -28.74,-6.94 -13.84,0 -26.88,4.74 -38.78,14.24 -8.04,6.26 -15.29,13.19 -22.4,19.89 l -1.14,1.14 c -6.68,6.31 -14.19,9.65 -21.49,9.65 z m -21.4,-214.16 c -27.82,0 -50.11,6.16 -70.15,19.35 -16.32,10.87 -31.3,23.02 -44.6,36.17 -17.03,16.65 -25.06,33.2 -24.54,50.35 0.46,16.72 9.56,32.99 26.82,48.17 32.51,28.5 65.44,54.81 96.23,78.96 11.33,8.87 24.32,13.52 37.64,13.52 15.7,0 30.88,-6.36 43.66,-18.48 l 1.31,-1.2 c 6.79,-6.42 13.27,-12.51 20.09,-17.99 10.65,-8.36 21.14,-9.41 33.36,-3.56 7.67,3.76 14.35,7.93 19.83,12.27 27.6,22.28 52.45,50.88 80.42,92.74 11.58,17.21 18.04,31.04 20.91,44.71 2.98,13.99 -0.25,23.89 -10.47,32.31 -6.33,5.16 -13.16,9.96 -20.78,15.24 -30.73,20.82 -38.98,51.87 -22.54,85 10.22,20.56 21.18,42.47 32.65,64.55 l 4.28,8.25 c 7.36,14.15 14.98,28.8 24.06,42.64 15.41,23.22 34.24,28.13 47.28,28.13 9.56,0 19.63,-2.57 29.85,-7.68 28.71,-14.2 51.99,-33.35 68.94,-56.78 21.2,-28.96 29.44,-64.44 25.17,-108.49 -4.14,-43.1 -18.43,-86.67 -44.89,-137.15 -29.96,-56.76 -69.94,-112.72 -122.33,-170.9 -44.29,-48.74 -85.32,-83.76 -128.99,-110.32 -35.81,-21.72 -68.79,-34.54 -98.11,-38.3 -9.18,-1.05 -17.34,-1.51 -25.1,-1.51"
           id="path472"
           style="fill:#38a6e3;fill-opacity:1;fill-rule:nonzero;stroke:none" /><path
           d="m 4273.45,8447.17 c -8.88,0 -16.13,7.16 -16.18,16.08 -0.11,8.92 7.05,16.17 16.02,16.28 l 48.9,0.48 -10.81,48.68 c -1.94,8.65 3.6,17.33 12.32,19.26 8.71,1.87 17.38,-3.56 19.26,-12.27 l 15.13,-68.16 c 1.03,-4.8 -0.11,-9.8 -3.08,-13.62 -3.08,-3.76 -7.67,-6.05 -12.58,-6.1 l -68.83,-0.63 -0.15,0"
           id="path474"
           style="fill:#38a6e3;fill-opacity:1;fill-rule:nonzero;stroke:none" /><path
           d="m 3976.56,8364.98 c -14.46,0 -26.19,-4.91 -35.12,-14.72 -8.97,-9.81 -14.81,-23.83 -17.58,-42.1 l -32.56,5.15 c 3.08,24.85 12.04,44.62 26.88,59.49 14.81,14.78 34.64,22.2 59.42,22.2 26.88,0 47.81,-7.42 62.83,-22.25 14.93,-14.87 22.49,-35.22 22.49,-61.1 0,-13.1 -2.23,-26.09 -6.72,-38.83 -4.5,-12.79 -10.55,-25.21 -18.17,-37.31 l -110.06,-172.89 129.27,0 0,-29.94 -167,0 0,30.51 120.45,189.96 c 5.54,8.97 9.7,18.78 12.68,29.28 2.93,10.53 4.39,20.14 4.39,28.76 0,6.88 -1,13.5 -2.88,19.86 -1.88,6.43 -4.8,12.16 -8.76,17.13 -3.97,5.02 -9.25,9.03 -15.76,12.15 -6.59,3.14 -14.46,4.65 -23.8,4.65"
           id="path476"
           style="fill:#181210;fill-opacity:1;fill-rule:nonzero;stroke:none" /><path
           d="m 4231.7,8090.01 0,-57.33 -32.61,0 0,57.33 -132.83,0 0,31.53 100.84,270.89 34.13,0 -101.87,-272.46 99.73,0 0,104.42 32.61,0 0,-104.42 28.91,0 0,-29.96 -28.91,0"
           id="path478"
           style="fill:#181210;fill-opacity:1;fill-rule:nonzero;stroke:none" /><path
           d="m 4023.9,7789.7 c -0.85,0 -1.62,0.1 -2.45,0.19 -10.5,1.63 -21,3.66 -31.33,6.17 -213.91,50.42 -346.86,265.56 -296.51,479.52 24.48,103.65 87.77,191.53 178.37,247.52 90.6,55.99 197.58,73.37 301.22,48.91 67.41,-15.92 129.73,-49.17 180.13,-96.19 6.59,-6.11 6.9,-16.33 0.8,-22.86 -6.11,-6.57 -16.35,-6.88 -22.86,-0.77 -46.29,43.15 -103.5,73.68 -165.54,88.24 -95.19,22.54 -193.5,6.58 -276.74,-44.89 -83.19,-51.4 -141.37,-132.18 -163.86,-227.36 -46.28,-196.58 75.88,-394.27 272.41,-440.65 9.55,-2.25 19.26,-4.13 28.8,-5.64 8.83,-1.35 14.92,-9.65 13.52,-18.47 -1.2,-7.99 -8.08,-13.72 -15.96,-13.72"
           id="path480"
           style="fill:#38a6e3;fill-opacity:1;fill-rule:nonzero;stroke:none" /></g></g></g></svg>