<?xml version="1.0" encoding="UTF-8" standalone="no"?>
<!-- Created with Inkscape (http://www.inkscape.org/) -->
<svg xmlns:rdf="http://www.w3.org/1999/02/22-rdf-syntax-ns#" xmlns="http://www.w3.org/2000/svg" xml:space="preserve" version="1.1" xmlns:cc="http://creativecommons.org/ns#" xmlns:dc="http://purl.org/dc/elements/1.1/" viewBox="0 0 1298.6 909.83"><metadata><rdf:RDF><cc:Work rdf:about=""><dc:format>image/svg+xml</dc:format><dc:type rdf:resource="http://purl.org/dc/dcmitype/StillImage"/><dc:title/></cc:Work></rdf:RDF></metadata><defs/><g transform="matrix(1.25,0,0,-1.25,-71.842561,1006.1284)"><g transform="scale(0.1,0.1)"><path opacity="0" d="m51.357,624.63c0,17.26-6.5059,31.252-14.531,31.252-8.0254,0-14.531-13.992-14.531-31.252s6.5059-31.252,14.531-31.252c8.0254,0,14.531,13.992,14.531,31.252z" transform="matrix(8,0,0,-8,0,6122.8995)" stroke-width="2"/><path opacity="0" d="m39.812,619.05c0,13.083-3.8322,23.688-8.5595,23.688s-8.5595-10.605-8.5595-23.688,3.8322-23.688,8.5595-23.688,8.5595,10.605,8.5595,23.688z" transform="matrix(8,0,0,-8,0,6122.8995)" stroke-width="2"/><g transform="matrix(2.2653525,0,0,1.4451217,-5973.4025,-266.70021)" stroke="#38a6e3" stroke-miterlimit="4" stroke-dasharray="none" fill="none"><path stroke-linejoin="miter" d="m2898.6,5754.3c7.125-4910.5,3.8522-4717.2,3.8522-4717.2m234.18-311.45,4340.1,6.003" stroke-linecap="butt" stroke-width="16"/><path d="m52.094,662.25c-16.38-0.17845-29.543-16.899-29.4-37.347,0.0044-0.62791,0.02157-1.2556,0.05154-1.8824" transform="matrix(8,0,0,-8,2720.8851,6023.708)" stroke-width="2"/></g></g></g></svg>
