<?xml version="1.0" encoding="UTF-8" standalone="no"?>
<!-- Created with Inkscape (http://www.inkscape.org/) -->
<svg id="svg14028" xmlns:rdf="http://www.w3.org/1999/02/22-rdf-syntax-ns#" xmlns="http://www.w3.org/2000/svg" height="489.6" width="489.6" version="1.1" xmlns:cc="http://creativecommons.org/ns#" xmlns:dc="http://purl.org/dc/elements/1.1/">
 <metadata id="metadata14033">
  <rdf:RDF>
   <cc:Work rdf:about="">
    <dc:format>image/svg+xml</dc:format>
    <dc:type rdf:resource="http://purl.org/dc/dcmitype/StillImage"/>
    <dc:title/>
   </cc:Work>
  </rdf:RDF>
 </metadata>
 <g id="layer1" transform="translate(-32.342854,-287.56218)">
  <g id="g14081" transform="translate(32.342854,287.56218)">
   <g id="g14037">
    <g id="g14039" fill="#00a0df">
     <path id="path14041" d="M244.8,0c-135,0-244.8,109.8-244.8,244.8s109.8,244.8,244.8,244.8,244.8-109.8,244.8-244.8-109.8-244.8-244.8-244.8zm0,469.8c-124.1,0-225-100.9-225-225s100.9-225,225-225,225,100.9,225,225-100.9,225-225,225z"/>
     <path id="path14043" d="m279.6,163.5c-1.9-1.9-4.5-2.9-7-2.9s-5.1,1-7,2.9l-74.3,74.3c-1.9,1.9-2.9,4.4-2.9,7s1,5.1,2.9,7l74.3,74.3c3.9,3.9,10.1,3.9,14,0s3.9-10.1,0-14l-67.3-67.3,67.3-67.3c3.8-3.9,3.8-10.2,0-14z"/>
    </g>
   </g>
  </g>
 </g>
</svg>
