<?xml version="1.0" encoding="UTF-8" standalone="no"?>
<!-- Created with Inkscape (http://www.inkscape.org/) -->

<svg
   xmlns:dc="http://purl.org/dc/elements/1.1/"
   xmlns:cc="http://creativecommons.org/ns#"
   xmlns:rdf="http://www.w3.org/1999/02/22-rdf-syntax-ns#"
   xmlns:svg="http://www.w3.org/2000/svg"
   xmlns="http://www.w3.org/2000/svg"
   xmlns:sodipodi="http://sodipodi.sourceforge.net/DTD/sodipodi-0.dtd"
   xmlns:inkscape="http://www.inkscape.org/namespaces/inkscape"
   version="1.1"
   width="515.91876"
   height="305.67465"
   id="svg3090"
   xml:space="preserve"
   inkscape:version="0.48.4 r9939"
   sodipodi:docname="main_logo.svg"><sodipodi:namedview
     pagecolor="#ffffff"
     bordercolor="#666666"
     borderopacity="1"
     objecttolerance="10"
     gridtolerance="10"
     guidetolerance="10"
     inkscape:pageopacity="0"
     inkscape:pageshadow="2"
     inkscape:window-width="640"
     inkscape:window-height="480"
     id="namedview14777"
     showgrid="false"
     fit-margin-top="0"
     fit-margin-left="0"
     fit-margin-right="0"
     fit-margin-bottom="0"
     inkscape:zoom="0.56598058"
     inkscape:cx="257.95938"
     inkscape:cy="117.4417"
     inkscape:window-x="65"
     inkscape:window-y="24"
     inkscape:window-maximized="0"
     inkscape:current-layer="g3098" /><metadata
     id="metadata3096"><rdf:RDF><cc:Work
         rdf:about=""><dc:format>image/svg+xml</dc:format><dc:type
           rdf:resource="http://purl.org/dc/dcmitype/StillImage" /><dc:title /></cc:Work></rdf:RDF></metadata><defs
     id="defs3094" /><g
     transform="matrix(1.25,0,0,-1.25,-486.385,716.99214)"
     id="g3098"><g
       transform="scale(0.1,0.1)"
       id="g3100"><path
         d="m 6074.52,4742.07 c 0,-71.18 -57.73,-189.06 -128.89,-189.06 -71.19,0 -128.88,117.88 -128.88,189.06 0,71.17 57.69,46.24 128.88,46.24 71.16,0 128.89,24.93 128.89,-46.24"
         id="path3146"
         style="fill:#181210;fill-opacity:1;fill-rule:nonzero;stroke:none"
         inkscape:connector-curvature="0" /><path
         d="m 6053.58,4479.62 c -40.74,0 -79.16,9.11 -103.59,24.19 -30.14,18.57 -34.61,42.14 -34.61,54.55 0,16.75 13.54,30.28 30.25,30.28 16.2,0 29.42,-12.72 30.24,-28.7 3.48,-4.34 21,-15.11 56.09,-18.68 35.71,-3.61 72.44,2.05 98.34,15.08 14.92,7.52 33.11,1.52 40.63,-13.45 7.52,-14.93 1.52,-33.11 -13.42,-40.63 -31.39,-15.81 -68.54,-22.64 -103.93,-22.64"
         id="path3148"
         style="fill:#181210;fill-opacity:1;fill-rule:nonzero;stroke:none"
         inkscape:connector-curvature="0" /><path
         d="m 5837.67,4479.62 c -35.39,0 -72.52,6.83 -103.91,22.64 -14.94,7.52 -20.96,25.7 -13.44,40.63 7.52,14.97 25.71,20.97 40.67,13.45 25.88,-13.03 62.65,-18.69 98.32,-15.08 35.09,3.57 52.59,14.34 56.09,18.68 0.84,15.98 14.04,28.7 30.23,28.7 16.72,0 30.28,-13.53 30.28,-30.28 0,-12.41 -4.51,-35.98 -34.63,-54.55 -24.45,-15.08 -62.89,-24.19 -103.61,-24.19"
         id="path3150"
         style="fill:#181210;fill-opacity:1;fill-rule:nonzero;stroke:none"
         inkscape:connector-curvature="0" /><path
         d="m 5945.63,4459.81 c -41.71,0 -81.09,14.47 -108.02,39.74 -5.22,4.88 -5.47,13.03 -0.61,18.26 4.88,5.19 13.07,5.46 18.28,0.58 22.21,-20.82 55.12,-32.72 90.35,-32.72 35.81,0 69.11,12.29 91.37,33.69 5.16,4.96 13.32,4.8 18.28,-0.35 4.93,-5.11 4.79,-13.33 -0.37,-18.26 -26.99,-26.01 -66.83,-40.94 -109.28,-40.94"
         id="path3152"
         style="fill:#181210;fill-opacity:1;fill-rule:nonzero;stroke:none"
         inkscape:connector-curvature="0" /><path
         d="m 5372.77,4536.22 -75.75,0 0,1089.05 c 0,67.53 42.86,103.78 85.27,109.79 44.16,6.16 98.24,-20.01 116.1,-82.19 21.82,-76.02 149.76,-513.3 149.76,-513.3 l -78.94,0 c -0.18,0.86 -121.76,416.16 -143.64,492.37 -6.23,21.71 -20.98,29.73 -32.71,28.06 -12.56,-1.74 -20.09,-14.76 -20.09,-34.73 l 0,-1089.05"
         id="path3154"
         style="fill:#181210;fill-opacity:1;fill-rule:nonzero;stroke:none"
         inkscape:connector-curvature="0" /><path
         d="m 6518.51,4536.22 75.74,0 0,1089.05 c 0,67.53 -42.83,103.78 -85.24,109.79 -44.2,6.16 -98.28,-20.01 -116.11,-82.19 -21.86,-76.02 -149.78,-513.3 -149.78,-513.3 l 78.92,0 c 0.2,0.86 121.8,416.16 143.67,492.37 6.23,21.71 20.96,29.73 32.72,28.06 12.6,-1.74 20.08,-14.76 20.08,-34.73 l 0,-1089.05"
         id="path3156"
         style="fill:#181210;fill-opacity:1;fill-rule:nonzero;stroke:none"
         inkscape:connector-curvature="0" /><path
         d="m 3976.18,5089.99 353.65,0 0,75.67 -353.65,0 0,480.82 518.17,0 0,75.67 -556.01,0 c -20.91,0 -37.85,-16.94 -37.85,-37.84 l 0,-1148.09 75.69,0 0,553.77"
         id="path3158"
         style="fill:#38a6e3;fill-opacity:1;fill-rule:nonzero;stroke:none"
         inkscape:connector-curvature="0" /><path
         d="m 5058.27,4146.13 190.99,0 0,-842.64 75.67,0 0,842.64 190.99,0 0,75.69 -457.65,0 0,-75.69"
         id="path3160"
         style="fill:#38a6e3;fill-opacity:1;fill-rule:nonzero;stroke:none"
         inkscape:connector-curvature="0" /><path
         d="m 4566.25,4183.98 0,-843.05 c 0,-20.86 16.92,-37.79 37.84,-37.79 l 380.55,0 0,75.62 -342.72,0 0,341.08 220.85,0 0,75.66 -220.85,0 0,350.63 342.72,0 0,75.69 -380.55,0 c -20.92,0 -37.84,-16.95 -37.84,-37.84"
         id="path3162"
         style="fill:#38a6e3;fill-opacity:1;fill-rule:nonzero;stroke:none"
         inkscape:connector-curvature="0" /><path
         d="M 4212.61,3538.65 4199.58,3438 c -0.02,-0.19 -0.12,-0.35 -0.18,-0.51 -0.09,-0.54 -0.28,-0.95 -0.46,-1.46 -0.24,-0.59 -0.45,-1.13 -0.81,-1.64 -0.24,-0.37 -0.55,-0.72 -0.85,-1.08 -0.45,-0.46 -0.91,-0.89 -1.43,-1.29 -0.38,-0.23 -0.74,-0.46 -1.15,-0.64 -0.61,-0.31 -1.25,-0.55 -1.95,-0.7 -0.26,-0.08 -0.47,-0.24 -0.77,-0.28 -0.39,-0.07 -0.81,-0.07 -1.21,-0.07 l -0.02,0 0,0 c 0,0 0,0 -0.02,0 l -0.02,0 c -0.4,0 -0.82,0 -1.21,0.07 -0.29,0.04 -0.5,0.2 -0.77,0.28 -0.69,0.15 -1.33,0.39 -1.94,0.7 -0.41,0.18 -0.77,0.41 -1.16,0.64 -0.51,0.4 -0.97,0.83 -1.42,1.29 -0.3,0.36 -0.61,0.71 -0.85,1.08 -0.34,0.51 -0.58,1.05 -0.8,1.64 -0.2,0.51 -0.38,0.92 -0.49,1.46 -0.03,0.16 -0.15,0.32 -0.17,0.51 l -13.04,100.61 -198.97,683.21 -78.81,0 263.23,-903.99 c 4.7,-16.18 19.49,-27.25 36.31,-27.29 0.01,0 0.01,0 0.01,0 16.82,0 31.62,11.11 36.33,27.25 l 264.3,904.03 -78.83,0 -199.82,-683.17"
         id="path3164"
         style="fill:#38a6e3;fill-opacity:1;fill-rule:nonzero;stroke:none"
         inkscape:connector-curvature="0" /><path
         d="m 4753.92,5492 11.61,81.9 c 0.03,0.16 0.14,0.32 0.17,0.47 0.14,0.66 0.38,1.2 0.64,1.82 0.22,0.47 0.38,0.93 0.68,1.36 0.35,0.54 0.8,0.97 1.26,1.39 0.36,0.36 0.69,0.7 1.1,1.01 0.51,0.35 1.06,0.55 1.64,0.78 0.51,0.23 1.02,0.46 1.59,0.58 0.17,0.04 0.31,0.15 0.52,0.19 0.42,0.04 0.83,-0.07 1.25,-0.07 0.42,0 0.81,0.11 1.25,0.07 0.18,-0.04 0.33,-0.15 0.52,-0.19 0.52,-0.12 0.99,-0.31 1.48,-0.54 0.62,-0.23 1.23,-0.47 1.76,-0.85 0.36,-0.24 0.63,-0.55 0.95,-0.82 0.5,-0.5 1.02,-0.97 1.43,-1.59 0.25,-0.39 0.39,-0.81 0.6,-1.24 0.28,-0.62 0.55,-1.24 0.69,-1.9 0.02,-0.15 0.13,-0.31 0.16,-0.47 l 11.2,-79.08 164.82,-566.13 -369.76,0 164.44,563.31 z m -279.01,-955.78 92.46,316.8 413.92,0 92.27,-317.03 79.04,0 -341.63,1172.67 c -4.7,16.12 -19.49,27.25 -36.3,27.25 0,0 0,0 -0.03,0 -16.81,0 -31.6,-11.09 -36.29,-27.22 l -342.21,-1172.47 78.77,0"
         id="path3166"
         style="fill:#38a6e3;fill-opacity:1;fill-rule:nonzero;stroke:none"
         inkscape:connector-curvature="0" /><path
         d="m 7709.27,4536.22 75.68,0 0,385.72 233.48,800.13 -78.81,0.12 -173.4,-594.36 -9.84,-69.43 c -0.04,-0.19 -0.16,-0.35 -0.2,-0.54 -0.12,-0.51 -0.27,-0.93 -0.47,-1.4 -0.23,-0.62 -0.47,-1.16 -0.82,-1.67 -0.25,-0.38 -0.56,-0.73 -0.88,-1.09 -0.43,-0.46 -0.86,-0.88 -1.36,-1.24 -0.37,-0.26 -0.77,-0.5 -1.19,-0.69 -0.63,-0.31 -1.25,-0.51 -1.86,-0.66 -0.31,-0.08 -0.55,-0.27 -0.82,-0.31 -0.43,-0.04 -0.82,-0.08 -1.25,-0.08 l 0,0 c -0.04,0 -0.04,0 -0.04,0 l 0,0 c -0.41,0 -0.8,0.04 -1.23,0.08 -0.27,0.04 -0.51,0.23 -0.82,0.31 -0.63,0.15 -1.23,0.35 -1.86,0.66 -0.43,0.19 -0.82,0.43 -1.21,0.69 -0.49,0.36 -0.91,0.78 -1.34,1.24 -0.32,0.36 -0.63,0.71 -0.9,1.09 -0.35,0.51 -0.59,1.05 -0.8,1.67 -0.2,0.47 -0.36,0.89 -0.47,1.4 -0.04,0.19 -0.16,0.35 -0.2,0.54 l -9.24,65.24 -173.73,598.59 -78.9,-0.12 232.48,-800.13 0,-385.76"
         id="path3168"
         style="fill:#38a6e3;fill-opacity:1;fill-rule:nonzero;stroke:none"
         inkscape:connector-curvature="0" /><path
         d="m 7226.14,5722.15 -75.68,0 0,-1148.09 c 0,-20.9 16.95,-37.84 37.83,-37.84 l 371.11,0 0,75.67 -333.26,0 0,1110.26"
         id="path3170"
         style="fill:#38a6e3;fill-opacity:1;fill-rule:nonzero;stroke:none"
         inkscape:connector-curvature="0" /><path
         d="m 7190.52,3684.17 -122.66,0 0,461.96 122.66,0 c 84.16,0 167.69,-39.3 167.69,-230.96 0,-191.74 -83.53,-231 -167.69,-231 z m 205.56,23.09 c 25.79,48.32 37.8,114.37 37.8,207.91 0,93.46 -12.01,159.51 -37.8,207.87 -34.96,65.55 -122.34,98.78 -205.56,98.78 l -160.49,0 c -20.9,0 -37.85,-16.95 -37.85,-37.84 l 0,-880.49 75.68,0 0,304.96 123.77,0 0,0.04 c 20.63,0.08 41.45,2.17 61.68,6.29 l 90.61,-311.29 78.77,0.08 -97.86,336.29 c 30.63,16.21 55.94,38.73 71.25,67.4"
         id="path3172"
         style="fill:#38a6e3;fill-opacity:1;fill-rule:nonzero;stroke:none"
         inkscape:connector-curvature="0" /><path
         d="m 7562.04,4183.98 0,-843.05 c 0,-20.86 16.93,-37.79 37.83,-37.79 l 384.71,0 0,75.62 -346.87,0 0,341.08 220.85,0 0,75.66 -220.85,0 0,350.63 346.87,0 0,75.69 -384.71,0 c -20.9,0 -37.83,-16.95 -37.83,-37.84"
         id="path3174"
         style="fill:#38a6e3;fill-opacity:1;fill-rule:nonzero;stroke:none"
         inkscape:connector-curvature="0" /><path
         d="m 6102.2,4152.45 c 61.68,0 97.73,-13.22 132.77,-36.13 l 28.69,71.29 c -41.13,24.52 -88.65,40.55 -161.46,40.55 -69.08,0 -132.19,-20.27 -177.76,-57.05 -50.9,-41.14 -77.81,-99.28 -77.81,-168.25 l 0,-482.51 c 0,-68.97 26.91,-127.15 77.81,-168.25 45.57,-36.79 108.68,-57.07 177.76,-57.07 63.22,0 107.34,12.13 144.78,31.37 l -24.88,72.56 c -31.37,-17.99 -65.74,-28.22 -119.9,-28.22 -132.78,0 -179.91,80.56 -179.91,149.61 l 0,482.51 c 0,110.43 96.92,149.59 179.91,149.59"
         id="path3176"
         style="fill:#38a6e3;fill-opacity:1;fill-rule:nonzero;stroke:none"
         inkscape:connector-curvature="0" /><path
         d="m 6831.77,4536.22 75.6797,0 0,1185.93 -75.6797,0 0,-1185.93 z"
         id="path3178"
         style="fill:#38a6e3;fill-opacity:1;fill-rule:nonzero;stroke:none"
         inkscape:connector-curvature="0" /><path
         d="m 6471.03,3609.08 109.84,376.83 13.07,100.53 c 0.03,0.16 0.15,0.31 0.19,0.47 0.12,0.64 0.39,1.27 0.66,1.89 0.24,0.43 0.4,0.9 0.67,1.27 0.35,0.55 0.8,1.02 1.31,1.45 0.35,0.35 0.66,0.74 1.09,1.01 0.47,0.3 0.92,0.45 1.47,0.69 0.58,0.27 1.17,0.54 1.83,0.66 0.14,0.04 0.26,0.12 0.37,0.16 0.47,0.04 0.86,-0.08 1.29,-0.08 0.43,0 0.82,0.12 1.23,0.08 0.16,-0.04 0.24,-0.12 0.39,-0.16 0.67,-0.12 1.29,-0.39 1.9,-0.66 0.51,-0.24 0.97,-0.39 1.4,-0.69 0.43,-0.27 0.79,-0.66 1.14,-1.01 0.49,-0.47 0.91,-0.9 1.27,-1.45 0.27,-0.37 0.47,-0.84 0.66,-1.27 0.27,-0.62 0.55,-1.25 0.65,-1.89 0.03,-0.16 0.15,-0.31 0.19,-0.47 l 13.18,-100.33 109.83,-377.03 -263.63,0 z m 131.91,625.35 c -16.8,0 -31.64,-11.11 -36.33,-27.27 l -263.57,-903.79 78.84,0.12 67.08,229.92 307.77,0 66.97,-229.92 78.85,-0.04 -263.28,903.71 c -4.75,16.12 -19.51,27.27 -36.33,27.27"
         id="path3180"
         style="fill:#38a6e3;fill-opacity:1;fill-rule:nonzero;stroke:none"
         inkscape:connector-curvature="0" /></g></g></svg>