<?xml version="1.0" encoding="UTF-8" standalone="no"?>
<!-- Created with Inkscape (http://www.inkscape.org/) -->

<svg
   xmlns:dc="http://purl.org/dc/elements/1.1/"
   xmlns:cc="http://creativecommons.org/ns#"
   xmlns:rdf="http://www.w3.org/1999/02/22-rdf-syntax-ns#"
   xmlns:svg="http://www.w3.org/2000/svg"
   xmlns="http://www.w3.org/2000/svg"
   version="1.1"
   width="515.91876"
   height="376.46588"
   id="svg3090"
   xml:space="preserve"><metadata
     id="metadata3096"><rdf:RDF><cc:Work
         rdf:about=""><dc:format>image/svg+xml</dc:format><dc:type
           rdf:resource="http://purl.org/dc/dcmitype/StillImage" /><dc:title></dc:title></cc:Work></rdf:RDF></metadata><defs
     id="defs3094" /><g
     transform="matrix(1.25,0,0,-1.25,-486.385,716.99214)"
     id="g3098"><g
       transform="scale(0.1,0.1)"
       id="g3100"><path
         d="m 4046.34,2815.13 c -3.55,-15.2 -11.05,-27.02 -22.49,-35.46 -11.47,-8.44 -25.31,-12.65 -41.56,-12.65 -11.25,0 -21.04,1.77 -29.37,5.31 -8.33,3.53 -15.3,8.44 -20.93,14.69 -5.62,6.24 -9.79,13.58 -12.5,22.02 -2.7,8.43 -4.06,17.55 -4.06,27.33 l 0,84.36 c 0,8.53 1.36,16.87 4.06,25 2.71,8.11 6.83,15.3 12.35,21.55 5.51,6.25 12.44,11.25 20.77,15 8.33,3.74 18.22,5.61 29.68,5.61 17.5,0 31.71,-4.58 42.65,-13.74 10.93,-9.17 18.17,-20.62 21.71,-34.36 l -34.05,-11.25 c -0.63,3.12 -1.67,6.14 -3.13,9.06 -1.45,2.91 -3.43,5.57 -5.93,7.97 -2.5,2.38 -5.52,4.32 -9.07,5.77 -3.54,1.46 -7.59,2.19 -12.18,2.19 -5.41,0 -10.05,-0.94 -13.9,-2.81 -3.86,-1.88 -7.03,-4.33 -9.53,-7.34 -2.5,-3.02 -4.38,-6.4 -5.63,-10.15 -1.25,-3.75 -1.87,-7.5 -1.87,-11.25 l 0,-86.55 c 0,-4.58 0.62,-8.95 1.87,-13.11 1.25,-4.17 3.18,-7.81 5.78,-10.94 2.61,-3.12 5.83,-5.58 9.69,-7.34 3.85,-1.77 8.38,-2.66 13.59,-2.66 7.7,0 14.26,2.19 19.68,6.56 5.42,4.38 8.85,10.41 10.32,18.13 l 34.05,-10.94"
         id="path3102"
         style="fill:#181210;fill-opacity:1;fill-rule:nonzero;stroke:none" /><path
         d="m 4087.01,2768.89 35.9297,0 0,217.441 -35.9297,0 0,-217.441 z"
         id="path3104"
         style="fill:#181210;fill-opacity:1;fill-rule:nonzero;stroke:none" /><path
         d="m 4309.61,2768.89 0,127.16 -1.25,0 -15.93,-40.62 -20.62,-47.49 -25.31,0 -21.25,49.06 -15.61,39.36 -1.25,-0.31 0,-127.16 -35.62,0 0,217.44 34.06,0 30.61,-71.23 21.25,-52.48 1.25,0 20.93,52.79 29.99,70.92 34.36,0 0,-217.44 -35.61,0"
         id="path3106"
         style="fill:#181210;fill-opacity:1;fill-rule:nonzero;stroke:none" /><path
         d="m 4394.43,2768.89 0,217.44 120.91,0 0,-33.11 -85.29,0 0,-58.11 73.42,0 0,-32.49 -73.42,0 0,-59.99 85.29,0 0,-33.74 -120.91,0"
         id="path3108"
         style="fill:#181210;fill-opacity:1;fill-rule:nonzero;stroke:none" /><path
         d="m 4626.96,3000.08 c -8.74,0 -16.08,1.56 -22.02,4.69 -5.94,3.12 -10.73,6.97 -14.37,11.56 -3.65,4.58 -6.3,9.57 -7.96,14.99 -1.67,5.42 -2.61,10.42 -2.82,15 l 26.87,0 c 0.21,-2.29 0.78,-4.64 1.72,-7.03 0.94,-2.39 2.28,-4.64 4.06,-6.72 1.77,-2.08 3.85,-3.8 6.25,-5.15 2.39,-1.36 5.16,-2.04 8.27,-2.04 3.33,0 6.25,0.68 8.75,2.04 2.5,1.35 4.58,3.07 6.25,5.15 1.67,2.08 2.91,4.33 3.75,6.72 0.83,2.39 1.25,4.74 1.25,7.03 l 26.56,0 c -0.42,-4.58 -1.52,-9.58 -3.29,-15 -1.76,-5.42 -4.42,-10.41 -7.95,-14.99 -3.55,-4.59 -8.24,-8.44 -14.07,-11.56 -5.83,-3.13 -12.92,-4.69 -21.25,-4.69 z m -71.85,-231.19 0,217.44 35.3,0 0,-145.58 c 0.21,0 0.36,-0.05 0.47,-0.16 0.11,-0.11 0.26,-0.16 0.47,-0.16 4.79,8.96 9.32,17.91 13.59,26.88 4.27,8.94 8.6,17.91 12.97,26.86 7.91,15.41 15.72,30.73 23.43,45.93 7.7,15.2 15.41,30.62 23.11,46.23 l 33.13,0 0,-217.44 -35.62,0 0,141.84 -0.62,0 c -3.55,-6.87 -7.09,-13.85 -10.63,-20.93 -3.54,-7.08 -7.08,-14.06 -10.62,-20.94 l -51.24,-99.97 -33.74,0"
         id="path3110"
         style="fill:#181210;fill-opacity:1;fill-rule:nonzero;stroke:none" /><path
         d="m 4844.06,2768.89 0,94.04 -61.23,0 0,-94.04 -35.93,0 0,217.44 35.93,0 0,-91.22 61.23,0 0,91.22 35.62,0 0,-217.44 -35.62,0"
         id="path3112"
         style="fill:#181210;fill-opacity:1;fill-rule:nonzero;stroke:none" /><path
         d="m 4929.63,2768.89 0,217.44 35.3,0 0,-145.58 c 0.21,0 0.36,-0.05 0.47,-0.16 0.11,-0.11 0.26,-0.16 0.47,-0.16 4.79,8.96 9.33,17.91 13.59,26.88 4.27,8.94 8.6,17.91 12.97,26.86 7.91,15.41 15.72,30.73 23.43,45.93 7.7,15.2 15.41,30.62 23.11,46.23 l 33.13,0 0,-217.44 -35.62,0 0,141.84 -0.62,0 c -3.55,-6.87 -7.09,-13.85 -10.63,-20.93 -3.54,-7.08 -7.08,-14.06 -10.62,-20.94 l -51.24,-99.97 -33.74,0"
         id="path3114"
         style="fill:#181210;fill-opacity:1;fill-rule:nonzero;stroke:none" /><path
         d="m 5193.13,3000.08 c -8.75,0 -16.09,1.56 -22.03,4.69 -5.93,3.12 -10.73,6.97 -14.37,11.56 -3.64,4.58 -6.3,9.57 -7.96,14.99 -1.67,5.42 -2.61,10.42 -2.81,15 l 26.86,0 c 0.21,-2.29 0.78,-4.64 1.72,-7.03 0.94,-2.39 2.29,-4.64 4.06,-6.72 1.77,-2.08 3.85,-3.8 6.25,-5.15 2.4,-1.36 5.16,-2.04 8.28,-2.04 3.33,0 6.25,0.68 8.75,2.04 2.5,1.35 4.58,3.07 6.25,5.15 1.66,2.08 2.91,4.33 3.75,6.72 0.83,2.39 1.25,4.74 1.25,7.03 l 26.55,0 c -0.42,-4.58 -1.52,-9.58 -3.28,-15 -1.77,-5.42 -4.43,-10.41 -7.96,-14.99 -3.55,-4.59 -8.23,-8.44 -14.06,-11.56 -5.84,-3.13 -12.92,-4.69 -21.25,-4.69 z m -71.86,-231.19 0,217.44 35.3,0 0,-145.58 c 0.21,0 0.36,-0.05 0.47,-0.16 0.11,-0.11 0.26,-0.16 0.47,-0.16 4.79,8.96 9.33,17.91 13.59,26.88 4.27,8.94 8.6,17.91 12.97,26.86 7.91,15.41 15.72,30.73 23.43,45.93 7.71,15.2 15.41,30.62 23.12,46.23 l 33.12,0 0,-217.44 -35.61,0 0,141.84 -0.63,0 c -3.54,-6.87 -7.09,-13.85 -10.62,-20.93 -3.55,-7.08 -7.09,-14.06 -10.63,-20.94 l -51.24,-99.97 -33.74,0"
         id="path3116"
         style="fill:#181210;fill-opacity:1;fill-rule:nonzero;stroke:none" /><path
         d="m 5452.74,2872.61 c 0,-17.28 -0.88,-32.23 -2.65,-44.82 -1.77,-12.61 -4.89,-23.24 -9.38,-31.88 -4.48,-8.64 -10.46,-15.52 -17.96,-20.61 -7.5,-5.11 -16.87,-8.8 -28.12,-11.1 l -9.68,27.81 c 6.66,2.7 12.23,5.88 16.71,9.53 4.48,3.64 8.08,8.28 10.78,13.9 2.71,5.63 4.63,12.6 5.78,20.93 1.15,8.33 1.72,18.75 1.72,31.24 l 0,118.72 117.47,0 0,-217.44 -35.3,0 0,184.33 -49.37,0 0,-80.61"
         id="path3118"
         style="fill:#181210;fill-opacity:1;fill-rule:nonzero;stroke:none" /><path
         d="m 5588.33,2768.89 35.9297,0 0,217.441 -35.9297,0 0,-217.441 z"
         id="path3120"
         style="fill:#181210;fill-opacity:1;fill-rule:nonzero;stroke:none" /><path
         d="m 5674.09,2768.89 0,217.44 35.93,0 0,-91.22 17.18,0 c 3.12,0 6.35,0.41 9.68,1.25 3.33,0.83 6.52,2.34 9.54,4.53 3.01,2.19 5.83,5.31 8.43,9.37 2.6,4.06 4.74,9.32 6.41,15.78 l 15.93,59.67 34.36,0 -16.86,-64.05 c -2.72,-10.62 -6.56,-19.42 -11.56,-26.39 -5,-6.99 -10.84,-11.61 -17.5,-13.91 8.75,-2.92 15.51,-7.86 20.31,-14.83 4.78,-6.99 8.44,-15.89 10.94,-26.72 l 18.11,-70.92 -36.55,0 -15.31,61.86 c -3.34,13.12 -7.92,21.81 -13.75,26.09 -5.83,4.27 -12.7,6.41 -20.62,6.41 l -18.74,0 0,-94.36 -35.93,0"
         id="path3122"
         style="fill:#181210;fill-opacity:1;fill-rule:nonzero;stroke:none" /><path
         d="m 5913.84,2891.36 -11.24,-43.74 44.36,0 -10.93,43.43 c -0.42,1.87 -1.1,5 -2.04,9.37 -0.93,4.38 -1.98,8.95 -3.12,13.74 -1.14,4.8 -2.24,9.33 -3.28,13.6 -1.05,4.26 -1.67,7.34 -1.88,9.22 l -1.56,0 -10.31,-45.62 z m 41.24,-75.6 -60.29,0 c -0.42,-1.88 -1.25,-5 -2.5,-9.38 -1.25,-4.37 -2.55,-9.06 -3.91,-14.06 -1.36,-4.99 -2.61,-9.68 -3.75,-14.05 -1.14,-4.38 -2.03,-7.5 -2.66,-9.38 l -37.18,0 62.81,217.44 34.36,0 63.11,-217.44 -37.8,0 -12.19,46.87"
         id="path3124"
         style="fill:#181210;fill-opacity:1;fill-rule:nonzero;stroke:none" /><path
         d="m 6139.59,2919.94 c 0,10.79 -2.61,19.03 -7.81,24.73 -5.21,5.69 -13.12,8.55 -23.74,8.55 l -29.68,0 0,-67.17 29.99,0 c 10.62,0 18.48,3.06 23.58,9.17 5.11,6.12 7.66,14.35 7.66,24.72 z m 35.3,-0.78 c 0,-9.37 -1.35,-18.11 -4.06,-26.24 -2.7,-8.12 -6.72,-15.2 -12.02,-21.25 -5.31,-6.03 -12.03,-10.77 -20.16,-14.21 -8.12,-3.43 -17.6,-5.15 -28.43,-5.15 l -31.86,0 0,-83.42 -35.62,0 0,217.44 65.61,0 c 10.2,0 19.36,-1.35 27.49,-4.05 8.12,-2.72 15.1,-6.83 20.94,-12.34 5.82,-5.52 10.3,-12.5 13.43,-20.94 3.12,-8.43 4.68,-18.38 4.68,-29.84"
         id="path3126"
         style="fill:#181210;fill-opacity:1;fill-rule:nonzero;stroke:none" /><path
         d="m 6410.77,2800.76 0,153.08 -53.74,0 -2.5,-65.29 c -0.42,-9.38 -0.83,-18.44 -1.25,-27.18 -0.42,-8.75 -1.09,-16.87 -2.03,-24.37 -0.94,-7.5 -2.24,-14.32 -3.91,-20.46 -1.67,-6.16 -3.95,-11.41 -6.87,-15.78 l 70.3,0 z m -94.67,-76.55 -30.92,0 0,74.05 c 2.7,0.42 5.31,0.88 7.81,1.4 2.5,0.52 5.1,1.1 7.8,1.72 4.58,3.96 8.17,8.54 10.78,13.75 2.61,5.21 4.69,11.61 6.25,19.21 1.56,7.61 2.66,16.56 3.28,26.87 0.63,10.31 1.15,22.45 1.57,36.4 l 3.12,88.72 119.97,0 c 0,-31.03 0.05,-61.96 0.16,-92.78 0.1,-30.83 0.15,-61.76 0.15,-92.79 l 17.18,0 0,-76.55 -30.93,0 0,44.68 -116.22,0 0,-44.68"
         id="path3128"
         style="fill:#181210;fill-opacity:1;fill-rule:nonzero;stroke:none" /><path
         d="m 6562.67,2872.61 c 0,-17.28 -0.89,-32.23 -2.66,-44.82 -1.77,-12.61 -4.89,-23.24 -9.37,-31.88 -4.48,-8.64 -10.46,-15.52 -17.96,-20.61 -7.5,-5.11 -16.88,-8.8 -28.12,-11.1 l -9.69,27.81 c 6.66,2.7 12.24,5.88 16.72,9.53 4.47,3.64 8.07,8.28 10.77,13.9 2.71,5.63 4.64,12.6 5.78,20.93 1.15,8.33 1.72,18.75 1.72,31.24 l 0,118.72 117.47,0 0,-217.44 -35.3,0 0,184.33 -49.36,0 0,-80.61"
         id="path3130"
         style="fill:#181210;fill-opacity:1;fill-rule:nonzero;stroke:none" /><path
         d="m 6732.34,2921.04 c 0,-10.42 3.07,-17.65 9.21,-21.71 6.15,-4.06 13.8,-6.09 22.97,-6.09 l 27.8,0 0,60.29 -28.74,0 c -10.62,0 -18.48,-2.92 -23.59,-8.74 -5.1,-5.84 -7.65,-13.75 -7.65,-23.75 z m 95.91,65.29 0,-217.44 -35.93,0 0,92.17 -19.36,0 c -7.09,0 -13.65,-2.35 -19.69,-7.03 -6.04,-4.69 -10.73,-13.49 -14.06,-26.4 l -13.12,-58.74 -37.17,0 14.67,64.98 c 2.08,8.33 4.9,15.63 8.44,21.88 3.55,6.25 8.96,10.83 16.25,13.74 -11.67,3.95 -19.89,10.78 -24.69,20.46 -4.78,9.69 -7.17,20.26 -7.17,31.71 0,10 1.5,19.01 4.52,27.03 3.02,8.01 7.29,14.84 12.81,20.46 5.52,5.63 12.13,9.9 19.84,12.82 7.7,2.91 16.24,4.36 25.62,4.36 l 69.04,0"
         id="path3132"
         style="fill:#181210;fill-opacity:1;fill-rule:nonzero;stroke:none" /><path
         d="m 7032.57,2953.84 0,-184.95 -35.62,0 0,184.95 -47.8,0 0,32.49 131.53,0 0,-32.49 -48.11,0"
         id="path3134"
         style="fill:#181210;fill-opacity:1;fill-rule:nonzero;stroke:none" /><path
         d="m 7214.59,2835.29 c 0,9.21 -2.3,16.63 -6.88,22.28 -4.58,5.66 -12.17,8.49 -22.8,8.49 l -31.24,0 0,-63.43 31.55,0 c 5.63,0 10.32,0.84 14.06,2.51 3.75,1.68 6.76,4.02 9.06,7.06 2.29,3.04 3.91,6.54 4.84,10.53 0.94,3.97 1.41,8.15 1.41,12.56 z m -3.13,90.44 c 0,8.75 -2.34,15.62 -7.03,20.61 -4.68,5 -12.23,7.5 -22.64,7.5 l -28.12,0 0,-56.85 28.43,0 c 10.2,0 17.65,2.65 22.33,7.96 4.69,5.31 7.03,12.23 7.03,20.78 z m 38.12,-92.48 c 0,-20.83 -5.58,-36.76 -16.71,-47.8 -11.15,-11.04 -26.09,-16.56 -44.83,-16.56 l -69.98,0 0,217.44 66.54,0 c 20.61,0 36.08,-5.3 46.4,-15.93 10.3,-10.62 15.46,-25.09 15.46,-43.42 0,-9.17 -1.93,-17.61 -5.79,-25.31 -3.85,-7.71 -10.77,-13.85 -20.77,-18.43 l 0,-1.57 c 5.21,-1.67 9.69,-4.11 13.44,-7.34 3.74,-3.23 6.82,-7.02 9.21,-11.4 2.39,-4.37 4.17,-9.12 5.31,-14.22 1.14,-5.1 1.72,-10.26 1.72,-15.46"
         id="path3136"
         style="fill:#181210;fill-opacity:1;fill-rule:nonzero;stroke:none" /><path
         d="m 7346.02,2891.36 -11.25,-43.74 44.36,0 -10.93,43.43 c -0.42,1.87 -1.09,5 -2.03,9.37 -0.94,4.38 -1.98,8.95 -3.12,13.74 -1.16,4.8 -2.25,9.33 -3.28,13.6 -1.05,4.26 -1.67,7.34 -1.88,9.22 l -1.56,0 -10.31,-45.62 z m 41.24,-75.6 -60.3,0 c -0.42,-1.88 -1.25,-5 -2.5,-9.38 -1.25,-4.37 -2.56,-9.06 -3.9,-14.06 -1.36,-4.99 -2.61,-9.68 -3.75,-14.05 -1.16,-4.38 -2.03,-7.5 -2.66,-9.38 l -37.18,0 62.8,217.44 34.36,0 63.12,-217.44 -37.81,0 -12.18,46.87"
         id="path3138"
         style="fill:#181210;fill-opacity:1;fill-rule:nonzero;stroke:none" /><path
         d="m 7571.77,2919.94 c 0,10.79 -2.61,19.03 -7.81,24.73 -5.21,5.69 -13.12,8.55 -23.75,8.55 l -29.67,0 0,-67.17 29.99,0 c 10.62,0 18.47,3.06 23.58,9.17 5.11,6.12 7.66,14.35 7.66,24.72 z m 35.3,-0.78 c 0,-9.37 -1.36,-18.11 -4.06,-26.24 -2.71,-8.12 -6.72,-15.2 -12.02,-21.25 -5.32,-6.03 -12.03,-10.77 -20.16,-14.21 -8.12,-3.43 -17.6,-5.15 -28.43,-5.15 l -31.86,0 0,-83.42 -35.62,0 0,217.44 65.61,0 c 10.2,0 19.36,-1.35 27.49,-4.05 8.12,-2.72 15.1,-6.83 20.94,-12.34 5.82,-5.52 10.3,-12.5 13.42,-20.94 3.13,-8.43 4.69,-18.38 4.69,-29.84"
         id="path3140"
         style="fill:#181210;fill-opacity:1;fill-rule:nonzero;stroke:none" /><path
         d="m 7645.82,2768.89 0,217.44 35.3,0 0,-145.58 c 0.21,0 0.36,-0.05 0.47,-0.16 0.1,-0.11 0.26,-0.16 0.47,-0.16 4.79,8.96 9.32,17.91 13.58,26.88 4.27,8.94 8.6,17.91 12.97,26.86 7.91,15.41 15.73,30.73 23.43,45.93 7.71,15.2 15.41,30.62 23.13,46.23 l 33.11,0 0,-217.44 -35.61,0 0,141.84 -0.63,0 c -3.54,-6.87 -7.08,-13.85 -10.62,-20.93 -3.55,-7.08 -7.08,-14.06 -10.63,-20.94 l -51.23,-99.97 -33.74,0"
         id="path3142"
         style="fill:#181210;fill-opacity:1;fill-rule:nonzero;stroke:none" /><path
         d="m 7934.78,2768.89 0,94.04 -61.24,0 0,-94.04 -35.92,0 0,217.44 35.92,0 0,-91.22 61.24,0 0,91.22 35.61,0 0,-217.44 -35.61,0"
         id="path3144"
         style="fill:#181210;fill-opacity:1;fill-rule:nonzero;stroke:none" /><path
         d="m 6074.52,4742.07 c 0,-71.18 -57.73,-189.06 -128.89,-189.06 -71.19,0 -128.88,117.88 -128.88,189.06 0,71.17 57.69,46.24 128.88,46.24 71.16,0 128.89,24.93 128.89,-46.24"
         id="path3146"
         style="fill:#181210;fill-opacity:1;fill-rule:nonzero;stroke:none" /><path
         d="m 6053.58,4479.62 c -40.74,0 -79.16,9.11 -103.59,24.19 -30.14,18.57 -34.61,42.14 -34.61,54.55 0,16.75 13.54,30.28 30.25,30.28 16.2,0 29.42,-12.72 30.24,-28.7 3.48,-4.34 21,-15.11 56.09,-18.68 35.71,-3.61 72.44,2.05 98.34,15.08 14.92,7.52 33.11,1.52 40.63,-13.45 7.52,-14.93 1.52,-33.11 -13.42,-40.63 -31.39,-15.81 -68.54,-22.64 -103.93,-22.64"
         id="path3148"
         style="fill:#181210;fill-opacity:1;fill-rule:nonzero;stroke:none" /><path
         d="m 5837.67,4479.62 c -35.39,0 -72.52,6.83 -103.91,22.64 -14.94,7.52 -20.96,25.7 -13.44,40.63 7.52,14.97 25.71,20.97 40.67,13.45 25.88,-13.03 62.65,-18.69 98.32,-15.08 35.09,3.57 52.59,14.34 56.09,18.68 0.84,15.98 14.04,28.7 30.23,28.7 16.72,0 30.28,-13.53 30.28,-30.28 0,-12.41 -4.51,-35.98 -34.63,-54.55 -24.45,-15.08 -62.89,-24.19 -103.61,-24.19"
         id="path3150"
         style="fill:#181210;fill-opacity:1;fill-rule:nonzero;stroke:none" /><path
         d="m 5945.63,4459.81 c -41.71,0 -81.09,14.47 -108.02,39.74 -5.22,4.88 -5.47,13.03 -0.61,18.26 4.88,5.19 13.07,5.46 18.28,0.58 22.21,-20.82 55.12,-32.72 90.35,-32.72 35.81,0 69.11,12.29 91.37,33.69 5.16,4.96 13.32,4.8 18.28,-0.35 4.93,-5.11 4.79,-13.33 -0.37,-18.26 -26.99,-26.01 -66.83,-40.94 -109.28,-40.94"
         id="path3152"
         style="fill:#181210;fill-opacity:1;fill-rule:nonzero;stroke:none" /><path
         d="m 5372.77,4536.22 -75.75,0 0,1089.05 c 0,67.53 42.86,103.78 85.27,109.79 44.16,6.16 98.24,-20.01 116.1,-82.19 21.82,-76.02 149.76,-513.3 149.76,-513.3 l -78.94,0 c -0.18,0.86 -121.76,416.16 -143.64,492.37 -6.23,21.71 -20.98,29.73 -32.71,28.06 -12.56,-1.74 -20.09,-14.76 -20.09,-34.73 l 0,-1089.05"
         id="path3154"
         style="fill:#181210;fill-opacity:1;fill-rule:nonzero;stroke:none" /><path
         d="m 6518.51,4536.22 75.74,0 0,1089.05 c 0,67.53 -42.83,103.78 -85.24,109.79 -44.2,6.16 -98.28,-20.01 -116.11,-82.19 -21.86,-76.02 -149.78,-513.3 -149.78,-513.3 l 78.92,0 c 0.2,0.86 121.8,416.16 143.67,492.37 6.23,21.71 20.96,29.73 32.72,28.06 12.6,-1.74 20.08,-14.76 20.08,-34.73 l 0,-1089.05"
         id="path3156"
         style="fill:#181210;fill-opacity:1;fill-rule:nonzero;stroke:none" /><path
         d="m 3976.18,5089.99 353.65,0 0,75.67 -353.65,0 0,480.82 518.17,0 0,75.67 -556.01,0 c -20.91,0 -37.85,-16.94 -37.85,-37.84 l 0,-1148.09 75.69,0 0,553.77"
         id="path3158"
         style="fill:#38a6e3;fill-opacity:1;fill-rule:nonzero;stroke:none" /><path
         d="m 5058.27,4146.13 190.99,0 0,-842.64 75.67,0 0,842.64 190.99,0 0,75.69 -457.65,0 0,-75.69"
         id="path3160"
         style="fill:#38a6e3;fill-opacity:1;fill-rule:nonzero;stroke:none" /><path
         d="m 4566.25,4183.98 0,-843.05 c 0,-20.86 16.92,-37.79 37.84,-37.79 l 380.55,0 0,75.62 -342.72,0 0,341.08 220.85,0 0,75.66 -220.85,0 0,350.63 342.72,0 0,75.69 -380.55,0 c -20.92,0 -37.84,-16.95 -37.84,-37.84"
         id="path3162"
         style="fill:#38a6e3;fill-opacity:1;fill-rule:nonzero;stroke:none" /><path
         d="M 4212.61,3538.65 4199.58,3438 c -0.02,-0.19 -0.12,-0.35 -0.18,-0.51 -0.09,-0.54 -0.28,-0.95 -0.46,-1.46 -0.24,-0.59 -0.45,-1.13 -0.81,-1.64 -0.24,-0.37 -0.55,-0.72 -0.85,-1.08 -0.45,-0.46 -0.91,-0.89 -1.43,-1.29 -0.38,-0.23 -0.74,-0.46 -1.15,-0.64 -0.61,-0.31 -1.25,-0.55 -1.95,-0.7 -0.26,-0.08 -0.47,-0.24 -0.77,-0.28 -0.39,-0.07 -0.81,-0.07 -1.21,-0.07 l -0.02,0 0,0 c 0,0 0,0 -0.02,0 l -0.02,0 c -0.4,0 -0.82,0 -1.21,0.07 -0.29,0.04 -0.5,0.2 -0.77,0.28 -0.69,0.15 -1.33,0.39 -1.94,0.7 -0.41,0.18 -0.77,0.41 -1.16,0.64 -0.51,0.4 -0.97,0.83 -1.42,1.29 -0.3,0.36 -0.61,0.71 -0.85,1.08 -0.34,0.51 -0.58,1.05 -0.8,1.64 -0.2,0.51 -0.38,0.92 -0.49,1.46 -0.03,0.16 -0.15,0.32 -0.17,0.51 l -13.04,100.61 -198.97,683.21 -78.81,0 263.23,-903.99 c 4.7,-16.18 19.49,-27.25 36.31,-27.29 0.01,0 0.01,0 0.01,0 16.82,0 31.62,11.11 36.33,27.25 l 264.3,904.03 -78.83,0 -199.82,-683.17"
         id="path3164"
         style="fill:#38a6e3;fill-opacity:1;fill-rule:nonzero;stroke:none" /><path
         d="m 4753.92,5492 11.61,81.9 c 0.03,0.16 0.14,0.32 0.17,0.47 0.14,0.66 0.38,1.2 0.64,1.82 0.22,0.47 0.38,0.93 0.68,1.36 0.35,0.54 0.8,0.97 1.26,1.39 0.36,0.36 0.69,0.7 1.1,1.01 0.51,0.35 1.06,0.55 1.64,0.78 0.51,0.23 1.02,0.46 1.59,0.58 0.17,0.04 0.31,0.15 0.52,0.19 0.42,0.04 0.83,-0.07 1.25,-0.07 0.42,0 0.81,0.11 1.25,0.07 0.18,-0.04 0.33,-0.15 0.52,-0.19 0.52,-0.12 0.99,-0.31 1.48,-0.54 0.62,-0.23 1.23,-0.47 1.76,-0.85 0.36,-0.24 0.63,-0.55 0.95,-0.82 0.5,-0.5 1.02,-0.97 1.43,-1.59 0.25,-0.39 0.39,-0.81 0.6,-1.24 0.28,-0.62 0.55,-1.24 0.69,-1.9 0.02,-0.15 0.13,-0.31 0.16,-0.47 l 11.2,-79.08 164.82,-566.13 -369.76,0 164.44,563.31 z m -279.01,-955.78 92.46,316.8 413.92,0 92.27,-317.03 79.04,0 -341.63,1172.67 c -4.7,16.12 -19.49,27.25 -36.3,27.25 0,0 0,0 -0.03,0 -16.81,0 -31.6,-11.09 -36.29,-27.22 l -342.21,-1172.47 78.77,0"
         id="path3166"
         style="fill:#38a6e3;fill-opacity:1;fill-rule:nonzero;stroke:none" /><path
         d="m 7709.27,4536.22 75.68,0 0,385.72 233.48,800.13 -78.81,0.12 -173.4,-594.36 -9.84,-69.43 c -0.04,-0.19 -0.16,-0.35 -0.2,-0.54 -0.12,-0.51 -0.27,-0.93 -0.47,-1.4 -0.23,-0.62 -0.47,-1.16 -0.82,-1.67 -0.25,-0.38 -0.56,-0.73 -0.88,-1.09 -0.43,-0.46 -0.86,-0.88 -1.36,-1.24 -0.37,-0.26 -0.77,-0.5 -1.19,-0.69 -0.63,-0.31 -1.25,-0.51 -1.86,-0.66 -0.31,-0.08 -0.55,-0.27 -0.82,-0.31 -0.43,-0.04 -0.82,-0.08 -1.25,-0.08 l 0,0 c -0.04,0 -0.04,0 -0.04,0 l 0,0 c -0.41,0 -0.8,0.04 -1.23,0.08 -0.27,0.04 -0.51,0.23 -0.82,0.31 -0.63,0.15 -1.23,0.35 -1.86,0.66 -0.43,0.19 -0.82,0.43 -1.21,0.69 -0.49,0.36 -0.91,0.78 -1.34,1.24 -0.32,0.36 -0.63,0.71 -0.9,1.09 -0.35,0.51 -0.59,1.05 -0.8,1.67 -0.2,0.47 -0.36,0.89 -0.47,1.4 -0.04,0.19 -0.16,0.35 -0.2,0.54 l -9.24,65.24 -173.73,598.59 -78.9,-0.12 232.48,-800.13 0,-385.76"
         id="path3168"
         style="fill:#38a6e3;fill-opacity:1;fill-rule:nonzero;stroke:none" /><path
         d="m 7226.14,5722.15 -75.68,0 0,-1148.09 c 0,-20.9 16.95,-37.84 37.83,-37.84 l 371.11,0 0,75.67 -333.26,0 0,1110.26"
         id="path3170"
         style="fill:#38a6e3;fill-opacity:1;fill-rule:nonzero;stroke:none" /><path
         d="m 7190.52,3684.17 -122.66,0 0,461.96 122.66,0 c 84.16,0 167.69,-39.3 167.69,-230.96 0,-191.74 -83.53,-231 -167.69,-231 z m 205.56,23.09 c 25.79,48.32 37.8,114.37 37.8,207.91 0,93.46 -12.01,159.51 -37.8,207.87 -34.96,65.55 -122.34,98.78 -205.56,98.78 l -160.49,0 c -20.9,0 -37.85,-16.95 -37.85,-37.84 l 0,-880.49 75.68,0 0,304.96 123.77,0 0,0.04 c 20.63,0.08 41.45,2.17 61.68,6.29 l 90.61,-311.29 78.77,0.08 -97.86,336.29 c 30.63,16.21 55.94,38.73 71.25,67.4"
         id="path3172"
         style="fill:#38a6e3;fill-opacity:1;fill-rule:nonzero;stroke:none" /><path
         d="m 7562.04,4183.98 0,-843.05 c 0,-20.86 16.93,-37.79 37.83,-37.79 l 384.71,0 0,75.62 -346.87,0 0,341.08 220.85,0 0,75.66 -220.85,0 0,350.63 346.87,0 0,75.69 -384.71,0 c -20.9,0 -37.83,-16.95 -37.83,-37.84"
         id="path3174"
         style="fill:#38a6e3;fill-opacity:1;fill-rule:nonzero;stroke:none" /><path
         d="m 6102.2,4152.45 c 61.68,0 97.73,-13.22 132.77,-36.13 l 28.69,71.29 c -41.13,24.52 -88.65,40.55 -161.46,40.55 -69.08,0 -132.19,-20.27 -177.76,-57.05 -50.9,-41.14 -77.81,-99.28 -77.81,-168.25 l 0,-482.51 c 0,-68.97 26.91,-127.15 77.81,-168.25 45.57,-36.79 108.68,-57.07 177.76,-57.07 63.22,0 107.34,12.13 144.78,31.37 l -24.88,72.56 c -31.37,-17.99 -65.74,-28.22 -119.9,-28.22 -132.78,0 -179.91,80.56 -179.91,149.61 l 0,482.51 c 0,110.43 96.92,149.59 179.91,149.59"
         id="path3176"
         style="fill:#38a6e3;fill-opacity:1;fill-rule:nonzero;stroke:none" /><path
         d="m 6831.77,4536.22 75.6797,0 0,1185.93 -75.6797,0 0,-1185.93 z"
         id="path3178"
         style="fill:#38a6e3;fill-opacity:1;fill-rule:nonzero;stroke:none" /><path
         d="m 6471.03,3609.08 109.84,376.83 13.07,100.53 c 0.03,0.16 0.15,0.31 0.19,0.47 0.12,0.64 0.39,1.27 0.66,1.89 0.24,0.43 0.4,0.9 0.67,1.27 0.35,0.55 0.8,1.02 1.31,1.45 0.35,0.35 0.66,0.74 1.09,1.01 0.47,0.3 0.92,0.45 1.47,0.69 0.58,0.27 1.17,0.54 1.83,0.66 0.14,0.04 0.26,0.12 0.37,0.16 0.47,0.04 0.86,-0.08 1.29,-0.08 0.43,0 0.82,0.12 1.23,0.08 0.16,-0.04 0.24,-0.12 0.39,-0.16 0.67,-0.12 1.29,-0.39 1.9,-0.66 0.51,-0.24 0.97,-0.39 1.4,-0.69 0.43,-0.27 0.79,-0.66 1.14,-1.01 0.49,-0.47 0.91,-0.9 1.27,-1.45 0.27,-0.37 0.47,-0.84 0.66,-1.27 0.27,-0.62 0.55,-1.25 0.65,-1.89 0.03,-0.16 0.15,-0.31 0.19,-0.47 l 13.18,-100.33 109.83,-377.03 -263.63,0 z m 131.91,625.35 c -16.8,0 -31.64,-11.11 -36.33,-27.27 l -263.57,-903.79 78.84,0.12 67.08,229.92 307.77,0 66.97,-229.92 78.85,-0.04 -263.28,903.71 c -4.75,16.12 -19.51,27.27 -36.33,27.27"
         id="path3180"
         style="fill:#38a6e3;fill-opacity:1;fill-rule:nonzero;stroke:none" /></g></g></svg>