<?xml version="1.0" encoding="UTF-8" standalone="no"?>
<!-- Created with Inkscape (http://www.inkscape.org/) -->
<svg xmlns:rdf="http://www.w3.org/1999/02/22-rdf-syntax-ns#" xmlns="http://www.w3.org/2000/svg" version="1.1" xmlns:cc="http://creativecommons.org/ns#" xmlns:dc="http://purl.org/dc/elements/1.1/" viewBox="0 0 200 262.9">
 <metadata>
  <rdf:RDF>
   <cc:Work rdf:about="">
    <dc:format>image/svg+xml</dc:format>
    <dc:type rdf:resource="http://purl.org/dc/dcmitype/StillImage"/>
    <dc:title/>
   </cc:Work>
  </rdf:RDF>
 </metadata>
 <g fill-rule="nonzero" transform="translate(200.20112,-1072.5554)" fill="#38a6e3">
  <path d="m-98.024,1079.1c-20.179,0-39.149,7.8635-53.418,22.122-29.446,29.454-29.446,77.379,0,106.83,14.269,14.266,33.239,22.123,53.418,22.123,20.176,0,39.148-7.8579,53.417-22.123,29.446-29.453,29.446-77.378,0-106.83-14.269-14.259-33.241-22.122-53.417-22.122zm0,157.65c-21.935,0-42.552-8.5379-58.064-24.047-32.009-32.015-32.009-84.11,0-116.12,15.512-15.503,36.128-24.047,58.064-24.047,21.926,0,42.548,8.5435,58.059,24.047,32.013,32.015,32.013,84.11,0,116.12-15.511,15.509-36.129,24.047-58.059,24.047"/>
  <path d="m-140.51,1200.5c-0.86927,0-1.7374-0.3316-2.3963-0.9939-1.3189-1.3234-1.3189-3.4615,0-4.786l17.373-17.373c1.3178-1.3178,3.4615-1.3178,4.786,0,1.3178,1.3245,1.3178,3.4681,0,4.7859l-17.378,17.373c-0.6589,0.6623-1.5271,0.9939-2.3852,0.9939"/>
  <path d="m-68.974,1128.6c-0.77243,0-1.5393-0.2838-2.1247-0.8771-1.1709-1.1775-1.1709-3.0775,0-4.2517l13.709-13.707c1.1642-1.162,3.0708-1.162,4.2473,0,1.1664,1.1731,1.1664,3.0786,0,4.2573l-13.707,13.701c-0.59101,0.5933-1.3612,0.8771-2.1247,0.8771"/>
  <path d="m-124.15,1216.8c-0.84144,0-1.6896-0.325-2.3262-0.9571l-32.717-32.719c-1.28-1.29-1.28-3.3635,0-4.6468,1.2833-1.2833,3.3591-1.2833,4.6424,0l32.719,32.718c1.2833,1.2789,1.2833,3.3569,0,4.648-0.63664,0.6321-1.4781,0.9571-2.3184,0.9571"/>
  <path d="m-104.92,1166.5c-0.84033,0-1.6796-0.3239-2.324-0.9639l-7.6776-7.6776c-1.2833-1.2833-1.2833-3.3635,0-4.6468,1.2833-1.2834,3.3569-1.2834,4.6424,0l7.6854,7.6775c1.2766,1.2889,1.2766,3.3636,0,4.6469-0.64889,0.64-1.4848,0.9639-2.3262,0.9639"/>
  <path d="m-100.3,1155c-0.84478,0-1.6818-0.3328-2.3206-0.965l-4.1927-4.1938c-1.2833-1.2889-1.2833-3.3625,0-4.6458,1.2766-1.29,3.3591-1.29,4.6424,0l4.1972,4.1928c1.2766,1.2833,1.2766,3.3568,0,4.6468-0.64666,0.6322-1.487,0.965-2.3262,0.965"/>
  <path d="m-88.708,1150.3c-0.8381,0-1.6818-0.3205-2.3173-0.9583l-7.6876-7.6776c-1.2766-1.29-1.2766-3.3702,0-4.6468,1.2833-1.2889,3.3702-1.2889,4.6468,0l7.6876,7.6776c1.2755,1.2788,1.2755,3.3635,0,4.6468-0.64889,0.6378-1.4881,0.9583-2.3295,0.9583"/>
  <path d="m-84.091,1138.7c-0.84144,0-1.6773-0.3206-2.3151-0.9595l-4.1972-4.1927c-1.2833-1.2833-1.2833-3.3568,0-4.6402,1.2833-1.2899,3.3624-1.2899,4.6468,0l4.1927,4.1861c1.2833,1.28,1.2833,3.3635,0,4.6468-0.63887,0.6389-1.487,0.9595-2.3273,0.9595"/>
  <path d="m-123.18,1157.4,22.438,22.426,35.424-35.42c2.0613-2.0558,2.0613-5.4315,0-7.4862l-14.944-14.947c-0.99281-0.9917-2.324-1.5381-3.7464-1.5381-1.4169,0-2.7503,0.5464-3.7442,1.5381l-35.427,35.426zm22.409,30.569c-0.86815,0-1.7307-0.3194-2.3752-0.9772l-27.19-27.188c-1.2777-1.2711-1.3267-3.3224-0.12799-4.6525,0.14692-0.1691,0.25265-0.2838,0.3595-0.394l37.57-37.568c2.2706-2.2706,5.2968-3.5149,8.5257-3.5149,3.2355,0,6.2618,1.2443,8.5335,3.5149l14.943,14.943c4.7003,4.7102,4.7003,12.359,0,17.059l-37.568,37.561c-0.11019,0.118-0.22149,0.2104-0.34058,0.3206-0.65891,0.5932-1.497,0.8948-2.3307,0.8948"/>
  <path d="m-133.55,1158.9,31.254,31.259,1.2444-1.2488-31.252-31.259-1.2455,1.2488zm31.254,39.189c-0.8381,0-1.6784-0.3261-2.3173-0.965l-35.904-35.906c-1.2878-1.2778-1.2878-3.358,0-4.6469l5.8867-5.8856c1.2343-1.2354,3.4147-1.2354,4.6468,0l35.904,35.903c0.61884,0.6166,0.96387,1.4513,0.96387,2.3217,0,0.8726-0.34504,1.7096-0.96387,2.3251l-5.8912,5.889c-0.64555,0.6389-1.4859,0.965-2.3251,0.965"/>
  <path d="m-191,1294.5,0-17.954-5.7409,0,0,17.954-3.4637,0,0-21.143,12.668,0,0,21.143-3.4637,0"/>
  <path d="m-173.84,1279.8c0-1.0496-0.25266-1.8499-0.76019-2.4042-0.5042-0.5542-1.2744-0.8325-2.3073-0.8325h-2.8872v6.5323h2.9183c1.0329,0,1.7964-0.2983,2.2928-0.8915,0.4953-0.5955,0.7435-1.3958,0.7435-2.4041zm3.4336,0.076c0,0.9116-0.13133,1.7619-0.394,2.5522-0.26601,0.7891-0.65334,1.4792-1.1709,2.0657-0.51532,0.5877-1.1698,1.0474-1.9589,1.3824-0.79025,0.3339-1.7129,0.5009-2.7658,0.5009h-3.0986v8.1105h-3.4615v-21.143h6.3798c0.9917,0,1.8832,0.1313,2.6735,0.394,0.78801,0.2649,1.4681,0.6655,2.0346,1.2009,0.56653,0.5365,1.0017,1.2154,1.3056,2.0346,0.30385,0.8192,0.45633,1.7886,0.45633,2.9016"/>
  <path d="m-158,1279.7c0-0.266-0.0445-0.5754-0.13578-0.9304-0.0924-0.3551-0.24821-0.6946-0.47192-1.0185-0.22149-0.3238-0.52089-0.6043-0.89487-0.838-0.3762-0.2338-0.85591-0.3507-1.4436-0.3507-0.58767,0-1.0785,0.1069-1.4725,0.3195-0.39623,0.2137-0.71011,0.4797-0.94272,0.7936-0.23374,0.3138-0.39958,0.6522-0.50086,1.0173-0.1024,0.3661-0.15137,0.7112-0.15137,1.0351l0.0301,8.0983c0,1.015,0.23262,1.8665,0.69897,2.5566,0.46524,0.69,1.2544,1.0351,2.3696,1.0351,0.79025,0,1.4736-0.2694,2.0513-0.807,0.57655-0.5376,0.8637-1.2733,0.8637-2.2071v-8.7038zm3.526,8.4055c0,1.0151-0.15805,1.9267-0.47192,2.7347-0.31498,0.8114-0.76019,1.5037-1.3378,2.0802-0.57654,0.5799-1.2599,1.0184-2.0491,1.3223-0.79024,0.305-1.6606,0.4564-2.6134,0.4564-1.1542,0-2.1459-0.187-2.9773-0.5632-0.8292-0.3729-1.5026-0.8804-2.0201-1.5171-0.51644-0.6389-0.89598-1.3779-1.1386-2.2171-0.24375-0.8426-0.36507-1.7274-0.36507-2.6601v-7.9892c0-0.7491,0.11687-1.5093,0.34949-2.2784,0.23151-0.768,0.60771-1.4681,1.1253-2.0969,0.51532-0.6255,1.1842-1.1431,2.0034-1.5482,0.8214-0.404,1.8276-0.6077,3.023-0.6077,1.1141,0,2.0758,0.1925,2.8872,0.5776,0.80917,0.3851,1.4825,0.8871,2.0201,1.5026,0.53647,0.6177,0.93048,1.3178,1.1842,2.0958,0.25265,0.7814,0.38065,1.5649,0.38065,2.3552v8.3531"/>
  <path d="m-140.77,1289.6c1.3579-0.1002,2.2839-0.6634,2.7803-1.6851,0.49529-1.0229,0.74349-2.5177,0.74349-4.481,0-1.723-0.25822-3.0987-0.77354-4.1315-0.51756-1.0329-1.4336-1.5995-2.7503-1.7019v12zm-3.4325-12c-1.3167,0.1024-2.2283,0.6801-2.7347,1.7308-0.50531,1.054-0.75796,2.4319-0.75796,4.1315,0,0.9527,0.0557,1.7986,0.16584,2.5377,0.1113,0.739,0.29828,1.3679,0.56318,1.8832,0.26267,0.5175,0.62218,0.9171,1.0774,1.1987,0.45634,0.2861,1.0184,0.4563,1.6862,0.5176v-12zm0.0312,15.098c-1.3779-0.1213-2.5121-0.4151-3.4025-0.8804-0.89152-0.4663-1.5994-1.0885-2.1281-1.8687-0.52534-0.7792-0.89487-1.7063-1.1086-2.7804-0.21147-1.0718-0.31832-2.2772-0.31832-3.6139,0-1.2566,0.11464-2.4153,0.34949-3.4782,0.23151-1.064,0.62218-1.9956,1.1687-2.7948,0.54761-0.8002,1.2666-1.4436,2.1581-1.9299,0.89042-0.4864,1.9834-0.7881,3.2812-0.9116v-1.123h3.3713v1.123c1.2956,0.1235,2.3896,0.4207,3.2812,0.8971,0.89042,0.4764,1.6094,1.0985,2.1559,1.8687,0.5476,0.7702,0.94272,1.6796,1.1842,2.7325,0.24486,1.054,0.36618,2.2282,0.36618,3.5238,0,1.3367-0.1113,2.5477-0.33502,3.6306-0.22372,1.083-0.59769,2.0202-1.123,2.8104-0.52757,0.7903-1.2399,1.4236-2.1414,1.8999-0.90154,0.4753-2.0312,0.7736-3.388,0.8949v1.7619h-3.3713v-1.7619"/>
  <path d="m-130.22,1294.5,3.4925,0,0-21.143-3.4925,0,0,21.143z"/>
  <path d="m-117.05,1284.4c0,1.6817-0.089,3.1353-0.25934,4.3585-0.17251,1.2266-0.47637,2.2595-0.91156,3.0987-0.43519,0.8425-1.0184,1.5092-1.7474,2.0067-0.72903,0.4964-1.6406,0.856-2.7325,1.0774l-0.94272-2.7046c0.64889-0.2616,1.1887-0.5699,1.6261-0.9249,0.43519-0.3539,0.78468-0.8058,1.0474-1.3512,0.26267-0.5487,0.44966-1.2254,0.56319-2.0346,0.11019-0.8114,0.16584-1.8242,0.16584-3.0397v-11.543h11.423v21.143h-3.4336v-17.924h-4.7982v7.8379"/>
  <path d="m-98.976,1282.6-1.0919,4.2517,4.3141,0-1.064-4.2228c-0.04118-0.1814-0.10685-0.4853-0.197-0.9104-0.09238-0.4275-0.19255-0.8704-0.30385-1.3368-0.11242-0.4663-0.21704-0.9071-0.32055-1.3222-0.10017-0.4141-0.1625-0.7146-0.18031-0.8949h-0.15248l-1.0039,4.4354zm4.0102,7.3503-5.8623,0c-0.0401,0.1837-0.12132,0.4864-0.24375,0.9116-0.12132,0.4251-0.24709,0.8815-0.37843,1.3679-0.13356,0.4841-0.25488,0.9405-0.36507,1.3656-0.1113,0.4263-0.197,0.728-0.25933,0.9116h-3.6128l6.1038-21.143h3.3435l6.1372,21.143h-3.6774l-1.1854-4.5567"/>
  <path d="m-87.035,1294.5,0-21.143,3.4926,0,0,8.8696,1.6718,0c0.30385,0,0.6155-0.04,0.9405-0.1202,0.32389-0.081,0.63219-0.2282,0.92826-0.4419,0.29272-0.2115,0.56653-0.5153,0.81807-0.9093,0.25266-0.3974,0.46079-0.9082,0.62218-1.536l1.5504-5.801h3.3413l-1.6406,6.2262c-0.26267,1.034-0.63664,1.8888-1.123,2.5677-0.48639,0.6778-1.054,1.1297-1.7007,1.3512,0.85035,0.2838,1.507,0.7635,1.9734,1.4436,0.46635,0.6778,0.82141,1.5437,1.064,2.5978l1.7619,6.8951h-3.555l-1.4881-6.0147c-0.325-1.2767-0.77021-2.1214-1.3367-2.5377-0.56652-0.414-1.2366-0.6222-2.0045-0.6222h-1.8231v9.1746h-3.4926"/>
  <path d="m-63.036,1276.5,0,17.983-3.4637,0,0-17.983-4.6491,0,0-3.1598,12.791,0,0,3.1598-4.678,0"/>
  <path d="m-55.322,1294.5,0-21.143,3.4337,0,0,14.155c0.02003,0,0.0345,0.01,0.04563,0.017,0.0089,0.01,0.0256,0.013,0.04675,0.013,0.46413-0.8704,0.90488-1.7408,1.32-2.6111,0.41516-0.8704,0.83588-1.7419,1.261-2.6145,0.77021-1.4959,1.5293-2.9851,2.2783-4.4632,0.75017-1.4792,1.4992-2.9773,2.2483-4.4966h3.22v21.143h-3.4637v-13.792h-0.0601c-0.34392,0.67-0.68896,1.3467-1.0318,2.0368-0.34615,0.6878-0.69007,1.3656-1.0329,2.0357l-4.9841,9.72h-3.2812"/>
  <path d="m-34.466,1273.3,0,5.9969c0,1.4925,0.22816,2.5377,0.68339,3.1342,0.45633,0.5944,1.1998,0.8927,2.2327,0.8927,0.40403,0,0.87594-0.066,1.4124-0.1948,0.53759-0.1313,1.0384-0.3395,1.5048-0.6222v-9.2068h3.4626v21.143h-3.4626v-8.9097c-0.52757,0.2671-1.1208,0.4664-1.7786,0.5999-0.65892,0.1336-1.3111,0.1993-1.9578,0.1993-1.8242,0-3.2021-0.5176-4.1315-1.5505-0.93271-1.0328-1.3979-2.7324-1.3979-5.1031v-6.3787h3.4325"/>
  <path d="m-11.449,1294.5,0-9.1434-5.9546,0,0,9.1434-3.4915,0,0-21.143,3.4915,0,0,8.8696,5.9546,0,0-8.8696,3.4648,0,0,21.143-3.4648,0"/>
  <path d="m-3.6936,1294.5,3.4925,0,0-21.143-3.4925,0,0,21.143z"/>
  <path d="m-164.9,1331.1,0-17.954-5.7409,0,0,17.954-3.4648,0,0-21.143,12.669,0,0,21.143-3.4637,0"/>
  <path d="m-147.74,1316.4c0-1.0496-0.25266-1.8499-0.76019-2.4053-0.5042-0.5542-1.2744-0.8314-2.3073-0.8314h-2.8872v6.5323h2.9172c1.0329,0,1.7975-0.2983,2.2939-0.8915,0.49529-0.5955,0.7435-1.3957,0.7435-2.4041zm3.4325,0.076c0,0.9093-0.13134,1.7619-0.39401,2.5499-0.26267,0.7902-0.65223,1.4805-1.1698,2.0656-0.51533,0.5896-1.1687,1.0496-1.9589,1.3844-0.79024,0.3326-1.7129,0.5009-2.7636,0.5009h-3.1009v8.1106h-3.4626v-21.143h6.3798c0.9917,0,1.8832,0.1313,2.6735,0.394,0.78913,0.2627,1.4692,0.6633,2.0357,1.2009,0.56653,0.5365,1.0017,1.2132,1.3056,2.0346,0.30386,0.8192,0.45523,1.7864,0.45523,2.9017"/>
  <path d="m-131.9,1316.3c0-0.2637-0.0456-0.5732-0.13579-0.9282-0.0924-0.3551-0.2482-0.6945-0.47192-1.0207-0.22149-0.325-0.522-0.6021-0.89598-0.8358-0.37508-0.2338-0.85591-0.3506-1.4425-0.3506-0.58768,0-1.0785,0.1068-1.4725,0.3194-0.39623,0.2137-0.7101,0.4764-0.94272,0.7914-0.23262,0.3161-0.40069,0.6544-0.50086,1.0195-0.10239,0.3662-0.15248,0.7112-0.15248,1.0351l0.0312,8.0985c0,1.0144,0.23262,1.8665,0.69787,2.5565,0.46635,0.69,1.2566,1.0348,2.3696,1.0348,0.79024,0,1.4747-0.2692,2.0513-0.807,0.57765-0.5378,0.86481-1.2729,0.86481-2.2073v-8.7056zm3.5249,8.4078c0,1.0144-0.15805,1.9238-0.47192,2.7352-0.31387,0.8091-0.76019,1.5029-1.3367,2.0799-0.57654,0.577-1.2599,1.0186-2.0491,1.3221-0.79024,0.3039-1.6617,0.4562-2.6134,0.4562-1.1542,0-2.1459-0.187-2.9773-0.5627-0.83031-0.3738-1.5037-0.8808-2.019-1.5195-0.51755-0.6365-0.89709-1.3756-1.1397-2.2173-0.24375-0.84-0.36507-1.7252-0.36507-2.6573v-7.9898c0-0.7491,0.11686-1.5093,0.34948-2.2784,0.23374-0.7702,0.60771-1.468,1.1253-2.0969,0.51422-0.6255,1.1842-1.1431,2.0034-1.5482,0.82141-0.4063,1.8276-0.6077,3.023-0.6077,1.1141,0,2.0758,0.1925,2.886,0.5765,0.80916,0.384,1.4825,0.886,2.0212,1.5037,0.53537,0.6177,0.92937,1.3178,1.1842,2.0958,0.25266,0.7803,0.37954,1.5649,0.37954,2.3552v8.3532"/>
  <path d="m-112.67,1331.1-11.817,0,0-21.143,3.4926,0,0,17.923,5.8934,0,0-17.923,3.4637,0,0,17.954,1.9444,0,0,7.5645-2.9773,0,0-4.3755"/>
  <path d="m-106.46,1331.1,0-21.143,11.758,0,0,3.2188-8.2942,0,0,5.6508,7.14,0,0,3.1602-7.14,0,0,5.8315,8.2942,0,0,3.2813-11.758,0"/>
  <path d="m-79.851,1328,0-14.886-5.2256,0-0.24486,6.3509c-0.03896,0.9093-0.07903,1.7905-0.12132,2.6426-0.04007,0.85-0.10351,1.6404-0.197,2.3695-0.09015,0.7287-0.21704,1.3922-0.37954,1.9895-0.1625,0.5978-0.38399,1.1087-0.66781,1.5339h6.8361zm-9.2046,7.4433-3.0085,0,0-7.2011c0.26267-0.039,0.51532-0.084,0.76019-0.1353,0.24152-0.051,0.49418-0.1069,0.75908-0.1687,0.4452-0.3839,0.79469-0.8295,1.0473-1.3364,0.25265-0.5052,0.45634-1.1274,0.60771-1.8665,0.15137-0.7392,0.25933-1.6117,0.31832-2.6138,0.06233-1.0022,0.1113-2.1829,0.15248-3.5385l0.30274-8.627h11.668c0,3.0174,0.0033,6.0236,0.01447,9.0221,0.01002,2.9972,0.01447,6.0037,0.01447,9.0219h1.6706v7.4433h-3.0074v-4.3447h-11.299v4.3447"/>
  <path d="m-61.783,1318.3c-0.85034,2.7636-1.7307,5.544-2.6434,8.3382-0.32389,0.9922-0.6667,1.7888-1.0329,2.3843-0.36284,0.5974-0.74906,1.0531-1.1531,1.3674-0.40514,0.3144-0.84033,0.5217-1.3067,0.6221-0.46635,0.1027-0.97278,0.1622-1.5193,0.1827h-1.6996v-2.8539h1.2444c0.42517,0,0.79469-0.113,1.1086-0.3348,0.31387-0.2238,0.61216-0.659,0.89709-1.306,0.03896-0.123,0.09015-0.2482,0.15248-0.3795,0.05899-0.1318,0.11019-0.2796,0.15137-0.4418l-5.4983-15.918h3.5828l2.0057,6.5301,1.5193,4.9832h0.15248c0.16139-0.567,0.38844-1.3681,0.68339-2.3999,0.29161-1.034,0.60214-2.1214,0.92603-3.2656,0.32278-1.1453,0.63887-2.2483,0.9405-3.3112,0.30385-1.0641,0.53759-1.9099,0.70009-2.5366h3.4025c-0.89152,2.7948-1.7619,5.5729-2.6134,8.3388"/>
  <path d="m-46.622,1316.4c0-1.0496-0.25265-1.8499-0.75796-2.4053-0.50753-0.5542-1.2777-0.8314-2.3095-0.8314h-2.8861v6.5323h2.9161c1.0329,0,1.7964-0.2983,2.2939-0.8915,0.4964-0.5955,0.74349-1.3957,0.74349-2.4041zm3.4325,0.076c0,0.9093-0.13133,1.7619-0.39401,2.5499-0.26267,0.7902-0.65334,1.4805-1.1709,2.0656-0.51421,0.5896-1.1676,1.0496-1.9578,1.3844-0.79136,0.3326-1.7107,0.5009-2.7647,0.5009h-3.0986v8.1106h-3.4637v-21.143h6.3798c0.9917,0,1.8832,0.1313,2.6735,0.394,0.79136,0.2627,1.4681,0.6633,2.0346,1.2009,0.56652,0.5365,1.0017,1.2132,1.3067,2.0346,0.30385,0.8192,0.45522,1.7864,0.45522,2.9017"/>
  <path d="m-39.998,1331.1,0-21.143,3.4325,0,0,14.155c0.01892,0,0.03562,0.01,0.04563,0.017,0.01002,0.01,0.02449,0.014,0.04563,0.014,0.46524-0.8704,0.90488-1.7413,1.3223-2.6117,0.41516-0.8709,0.83364-1.7429,1.2599-2.6144,0.7691-1.4981,1.5282-2.9851,2.2784-4.4654,0.74906-1.477,1.4981-2.9751,2.2472-4.4944h3.22v21.143h-3.4615v-13.792h-0.06234c-0.34392,0.67-0.68784,1.3467-1.0318,2.0346-0.34614,0.69-0.68784,1.3679-1.0329,2.037l-4.9819,9.7206h-3.2812"/>
 </g>
</svg>
