<?xml version="1.0" encoding="UTF-8" standalone="no"?>
<!-- Created with Inkscape (http://www.inkscape.org/) -->

<svg
   xmlns:dc="http://purl.org/dc/elements/1.1/"
   xmlns:cc="http://creativecommons.org/ns#"
   xmlns:rdf="http://www.w3.org/1999/02/22-rdf-syntax-ns#"
   xmlns:svg="http://www.w3.org/2000/svg"
   xmlns="http://www.w3.org/2000/svg"
   version="1.1"
   width="702.62402"
   height="717.58185"
   id="svg7086"
   xml:space="preserve"><metadata
     id="metadata7092"><rdf:RDF><cc:Work
         rdf:about=""><dc:format>image/svg+xml</dc:format><dc:type
           rdf:resource="http://purl.org/dc/dcmitype/StillImage" /><dc:title></dc:title></cc:Work></rdf:RDF></metadata><defs
     id="defs7090"><clipPath
       id="clipPath7306"><path
         d="m 0.03125,6630.16 1143.84005,0 0,1873.78 -1143.84005,0 0,-1873.78 z"
         id="path7308" /></clipPath><clipPath
       id="clipPath7742"><path
         d="M 0,8503.94 0,0 l 6122.88,0 0,8503.94 -6122.88,0 z"
         id="path7744" /></clipPath><clipPath
       id="clipPath7748"><path
         d="m 6122.85,6626.83 -1158.63,3.33 0,1874.68 1158.63,-3.33 0,-1874.68 z"
         id="path7750" /></clipPath></defs><g
     transform="matrix(1.25,0,0,-1.25,-361.32031,719.29297)"
     id="g7094"><g
       transform="scale(0.1,0.1)"
       id="g7096"><path
         d="m 51.357149,624.62799 a 14.531286,31.252218 0 1 1 -29.062572,0 14.531286,31.252218 0 1 1 29.062572,0 z"
         transform="matrix(8,0,0,-8,0,6122.8995)"
         id="path10374"
         style="opacity:0;fill:none;stroke:#38a6e3;stroke-width:2;stroke-miterlimit:4;stroke-opacity:1;stroke-dasharray:none" /><path
         d="m 39.811743,619.05432 a 8.5595245,23.687986 0 1 1 -17.119049,0 8.5595245,23.687986 0 1 1 17.119049,0 z"
         transform="matrix(8,0,0,-8,0,6122.8995)"
         id="path10380"
         style="opacity:0;fill:none;stroke:#38a6e3;stroke-width:2;stroke-miterlimit:4;stroke-opacity:1;stroke-dasharray:none" /><g
         id="g10396"><g
           transform="translate(2388.7046,-6777.551)"
           id="g7738"><g
             clip-path="url(#clipPath7742)"
             id="g7740"><g
               clip-path="url(#clipPath7748)"
               id="g7746"><path
                 d="m 5670.66,7599.22 c -2.76,0 -5,2.24 -5,5 l 0,666.22 c 0,2.76 2.24,5 5,5 2.76,0 5,-2.24 5,-5 l 0,-666.22 c 0,-2.76 -2.24,-5 -5,-5"
                 id="path7752"
                 style="fill:#38a6e3;fill-opacity:1;fill-rule:nonzero;stroke:none" /><path
                 d="m 5506.56,7599.22 c -0.25,0 -0.5,0.02 -0.75,0.06 -2.72,0.41 -4.61,2.96 -4.2,5.69 0.02,0.13 1.96,13.84 -5.08,21.99 -3.61,4.2 -9.24,6.32 -16.72,6.32 -1.4,0 -2.74,0.59 -3.7,1.63 -0.93,1.04 -1.4,2.43 -1.28,3.82 0.09,0.92 8.39,91.79 8.39,159.93 0,80.09 -24.29,119.58 -24.55,119.97 -1.46,2.33 -0.77,5.42 1.56,6.89 2.35,1.48 5.41,0.79 6.89,-1.53 1.06,-1.68 26.1,-42.03 26.1,-125.33 0,-59.24 -6.22,-135.41 -7.97,-155.7 7.95,-0.97 14.3,-4.16 18.91,-9.52 10.02,-11.68 7.45,-29.24 7.33,-29.98 -0.38,-2.48 -2.51,-4.24 -4.93,-4.24"
                 id="path7754"
                 style="fill:#38a6e3;fill-opacity:1;fill-rule:nonzero;stroke:none" /><path
                 d="m 5589.53,7599.22 c -2.43,0 -4.56,1.76 -4.94,4.24 -0.12,0.74 -2.69,18.3 7.34,29.99 4.59,5.35 10.94,8.54 18.89,9.51 -1.75,20.28 -7.93,96.46 -7.93,155.7 0,83.3 25,123.65 26.07,125.32 1.49,2.33 4.58,3.02 6.9,1.54 2.32,-1.47 3.03,-4.56 1.55,-6.89 -0.24,-0.38 -24.52,-39.88 -24.52,-119.97 0,-68.16 8.25,-159.01 8.34,-159.93 0.13,-1.39 -0.34,-2.78 -1.29,-3.82 -0.95,-1.04 -2.28,-1.63 -3.69,-1.63 -7.49,0 -13.12,-2.14 -16.74,-6.35 -6.93,-8.1 -5.06,-21.82 -5.04,-21.95 0.42,-2.73 -1.44,-5.28 -4.18,-5.7 -0.25,-0.04 -0.5,-0.06 -0.76,-0.06"
                 id="path7756"
                 style="fill:#38a6e3;fill-opacity:1;fill-rule:nonzero;stroke:none" /><path
                 d="m 5385.48,7599.22 -109.01,0 c -22.15,0 -34.36,12.76 -34.36,35.93 0,156.46 44.48,263.02 70.99,312.62 1.31,2.43 4.34,3.33 6.76,2.05 2.44,-1.3 3.36,-4.33 2.05,-6.77 -26.06,-48.77 -69.8,-153.62 -69.8,-307.9 0,-17.7 7.75,-25.93 24.36,-25.93 l 105.15,0 c 0.9,4.69 1.49,13.48 -4.53,20.2 -8.24,9.21 -30.53,17.2 -90.02,2.96 -2.3,-0.58 -4.65,0.57 -5.68,2.71 -1.02,2.12 -0.39,4.67 1.47,6.11 1.37,1.05 136.09,105.74 93.33,165.03 -7.65,10.61 -17.03,16.72 -27.83,18.15 -22.51,2.93 -44.38,-14.74 -44.6,-14.92 -2.12,-1.75 -5.28,-1.43 -7.03,0.7 -1.75,2.14 -1.44,5.29 0.69,7.04 1.03,0.84 25.47,20.52 52.17,17.1 13.67,-1.78 25.35,-9.26 34.71,-22.22 39.05,-54.15 -43.17,-134.38 -79.46,-165.73 40.38,7.3 67.19,3.83 79.79,-10.35 12.51,-14.11 5.83,-32.73 5.54,-33.52 -0.73,-1.96 -2.6,-3.26 -4.69,-3.26"
                 id="path7758"
                 style="fill:#38a6e3;fill-opacity:1;fill-rule:nonzero;stroke:none" /><path
                 d="m 5318.33,8121.24 c -2.76,0 -5,2.24 -5,4.99 l 0,194.43 c 0,9.95 -8.1,18.04 -18.02,18.04 -9.94,0 -18.04,-8.09 -18.04,-18.04 l 0,-194.43 c 0,-2.75 -2.23,-4.99 -4.99,-4.99 -2.77,0 -5,2.24 -5,4.99 l 0,194.43 c 0,15.46 12.56,28.04 28.03,28.04 15.45,0 28.01,-12.58 28.01,-28.04 l 0,-194.43 c 0,-2.75 -2.23,-4.99 -4.99,-4.99"
                 id="path7760"
                 style="fill:#38a6e3;fill-opacity:1;fill-rule:nonzero;stroke:none" /><path
                 d="m 5418.52,8121.24 c -2.78,0 -5,2.24 -5,4.99 l 0,194.43 c 0,9.95 -8.11,18.04 -18.05,18.04 -9.92,0 -18.02,-8.09 -18.02,-18.04 l 0,-194.43 c 0,-2.75 -2.24,-4.99 -5,-4.99 -2.76,0 -4.99,2.24 -4.99,4.99 l 0,194.43 c 0,15.46 12.56,28.04 28.01,28.04 15.47,0 28.04,-12.58 28.04,-28.04 l 0,-194.43 c 0,-2.75 -2.24,-4.99 -4.99,-4.99"
                 id="path7762"
                 style="fill:#38a6e3;fill-opacity:1;fill-rule:nonzero;stroke:none" /><path
                 d="m 5342.5,7983.32 c -43.58,0 -75.22,60.1 -75.22,142.91 0,2.77 2.23,5 5,5 2.76,0 4.99,-2.23 4.99,-5 0,-77.01 27.44,-132.91 65.23,-132.91 34.15,0 71.02,49.89 71.02,130.49 0,2.76 2.22,5 5,5 2.75,0 4.99,-2.24 4.99,-5 0,-86.78 -42.05,-140.49 -81.01,-140.49"
                 id="path7764"
                 style="fill:#38a6e3;fill-opacity:1;fill-rule:nonzero;stroke:none" /><path
                 d="m 5332.56,8016.15 c -1.41,0 -2.79,0.58 -3.79,1.72 -1.81,2.09 -1.58,5.25 0.51,7.06 l 9.94,8.63 c 2.11,1.79 5.25,1.6 7.06,-0.49 1.81,-2.09 1.59,-5.25 -0.5,-7.06 l -9.95,-8.64 c -0.95,-0.82 -2.12,-1.22 -3.27,-1.22"
                 id="path7766"
                 style="fill:#38a6e3;fill-opacity:1;fill-rule:nonzero;stroke:none" /><path
                 d="m 5352.46,8016.15 c -1.15,0 -2.32,0.4 -3.26,1.22 l -9.96,8.63 c -2.09,1.82 -2.33,4.98 -0.51,7.06 1.82,2.09 4.96,2.32 7.05,0.51 l 9.96,-8.64 c 2.09,-1.81 2.32,-4.97 0.51,-7.05 -1,-1.15 -2.38,-1.73 -3.79,-1.73"
                 id="path7768"
                 style="fill:#38a6e3;fill-opacity:1;fill-rule:nonzero;stroke:none" /><path
                 d="m 5342.5,8028.73 c -1.16,0 -2.33,0.41 -3.28,1.23 l -9.94,8.63 c -1.58,1.37 -2.14,3.57 -1.41,5.53 0.72,1.96 2.6,3.25 4.69,3.25 l 19.9,0 c 2.09,0 3.97,-1.29 4.69,-3.25 0.73,-1.96 0.17,-4.17 -1.41,-5.53 l -9.96,-8.64 c -0.94,-0.81 -2.11,-1.22 -3.28,-1.22"
                 id="path7770"
                 style="fill:#38a6e3;fill-opacity:1;fill-rule:nonzero;stroke:none" /><path
                 d="m 5849.53,7911.11 c -1.39,0 -2.77,0.59 -3.77,1.72 -1.8,2.08 -1.58,5.24 0.5,7.05 l 9.93,8.64 c 2.09,1.8 5.26,1.6 7.05,-0.48 1.82,-2.08 1.6,-5.25 -0.49,-7.06 l -9.94,-8.64 c -0.93,-0.83 -2.11,-1.23 -3.28,-1.23"
                 id="path7772"
                 style="fill:#38a6e3;fill-opacity:1;fill-rule:nonzero;stroke:none" /><path
                 d="m 5869.43,7911.11 c -1.15,0 -2.32,0.4 -3.27,1.22 l -9.97,8.65 c -2.07,1.81 -2.3,4.97 -0.49,7.06 1.81,2.09 4.96,2.31 7.05,0.49 l 9.96,-8.65 c 2.09,-1.81 2.32,-4.96 0.51,-7.05 -0.99,-1.13 -2.38,-1.72 -3.79,-1.72"
                 id="path7774"
                 style="fill:#38a6e3;fill-opacity:1;fill-rule:nonzero;stroke:none" /><path
                 d="m 5854.53,7939.61 4.95,-4.31 4.96,4.31 0,17.5 -9.91,0 0,-17.5 z m 4.94,-15.94 c -1.17,0 -2.34,0.41 -3.28,1.23 l -9.94,8.66 c -1.09,0.94 -1.72,2.33 -1.72,3.77 l 0,24.78 c 0,2.76 2.25,5 5,5 l 19.9,0 c 2.78,0 5,-2.24 5,-5 l 0,-24.78 c 0,-1.45 -0.62,-2.83 -1.72,-3.78 l -9.96,-8.65 c -0.93,-0.82 -2.11,-1.23 -3.28,-1.23"
                 id="path7776"
                 style="fill:#38a6e3;fill-opacity:1;fill-rule:nonzero;stroke:none" /><path
                 d="m 5782.66,7603.55 c -1.41,0 -2.79,0.58 -3.77,1.72 -1.82,2.08 -1.6,5.24 0.49,7.05 l 9.94,8.64 c 2.09,1.81 5.23,1.6 7.05,-0.49 1.81,-2.07 1.59,-5.24 -0.49,-7.05 l -9.94,-8.64 c -0.96,-0.83 -2.12,-1.23 -3.28,-1.23"
                 id="path7778"
                 style="fill:#38a6e3;fill-opacity:1;fill-rule:nonzero;stroke:none" /><path
                 d="m 5802.56,7603.55 c -1.17,0 -2.34,0.4 -3.28,1.22 l -9.96,8.65 c -2.09,1.81 -2.31,4.96 -0.5,7.05 1.81,2.09 4.97,2.31 7.06,0.5 l 9.96,-8.65 c 2.08,-1.8 2.3,-4.96 0.49,-7.05 -0.98,-1.14 -2.37,-1.72 -3.77,-1.72"
                 id="path7780"
                 style="fill:#38a6e3;fill-opacity:1;fill-rule:nonzero;stroke:none" /><path
                 d="m 5792.6,7616.12 c -1.17,0 -2.35,0.41 -3.28,1.23 l -9.94,8.65 c -1.59,1.37 -2.14,3.57 -1.41,5.52 0.73,1.96 2.6,3.25 4.69,3.25 l 19.9,0 c 2.09,0 3.95,-1.29 4.69,-3.25 0.72,-1.96 0.16,-4.16 -1.41,-5.52 l -9.96,-8.65 c -0.95,-0.82 -2.12,-1.23 -3.28,-1.23"
                 id="path7782"
                 style="fill:#38a6e3;fill-opacity:1;fill-rule:nonzero;stroke:none" /><path
                 d="m 5731.66,7303.82 c -1.4,0 -2.79,0.57 -3.77,1.71 -1.82,2.09 -1.6,5.24 0.49,7.06 l 9.93,8.65 c 2.08,1.81 5.24,1.6 7.06,-0.48 1.81,-2.08 1.6,-5.24 -0.49,-7.05 l -9.94,-8.66 c -0.95,-0.83 -2.12,-1.23 -3.28,-1.23"
                 id="path7784"
                 style="fill:#38a6e3;fill-opacity:1;fill-rule:nonzero;stroke:none" /><path
                 d="m 5751.56,7303.82 c -1.17,0 -2.33,0.4 -3.28,1.22 l -9.96,8.66 c -2.09,1.81 -2.3,4.97 -0.5,7.05 1.81,2.09 4.97,2.3 7.06,0.5 l 9.96,-8.66 c 2.08,-1.81 2.31,-4.97 0.49,-7.05 -0.97,-1.14 -2.37,-1.72 -3.77,-1.72"
                 id="path7786"
                 style="fill:#38a6e3;fill-opacity:1;fill-rule:nonzero;stroke:none" /><path
                 d="m 5741.6,7335.28 c -1.17,0 -2.34,0.41 -3.28,1.23 l -9.94,8.64 c -1.58,1.37 -2.14,3.57 -1.41,5.52 0.73,1.96 2.6,3.26 4.69,3.26 l 19.9,0 c 2.09,0 3.96,-1.3 4.69,-3.26 0.72,-1.95 0.17,-4.15 -1.41,-5.52 l -9.96,-8.65 c -0.94,-0.81 -2.12,-1.22 -3.28,-1.22"
                 id="path7788"
                 style="fill:#38a6e3;fill-opacity:1;fill-rule:nonzero;stroke:none" /><path
                 d="m 5741.6,7316.86 c -2.76,0 -5,2.24 -5,5 l 0,14.55 c 0,2.76 2.24,5 5,5 2.76,0 5,-2.24 5,-5 l 0,-14.55 c 0,-2.76 -2.24,-5 -5,-5"
                 id="path7790"
                 style="fill:#38a6e3;fill-opacity:1;fill-rule:nonzero;stroke:none" /><path
                 d="m 6033.61,8285.39 c -1.38,0 -2.77,0.59 -3.77,1.72 -1.8,2.08 -1.58,5.24 0.49,7.05 l 9.95,8.66 c 2.09,1.81 5.25,1.59 7.06,-0.49 1.81,-2.08 1.59,-5.24 -0.48,-7.05 l -9.96,-8.66 c -0.94,-0.82 -2.11,-1.23 -3.29,-1.23"
                 id="path7792"
                 style="fill:#38a6e3;fill-opacity:1;fill-rule:nonzero;stroke:none" /><path
                 d="m 6053.52,8285.39 c -1.16,0 -2.33,0.41 -3.29,1.23 l -9.95,8.66 c -2.08,1.81 -2.29,4.97 -0.48,7.05 1.8,2.08 4.95,2.31 7.06,0.49 l 9.95,-8.66 c 2.08,-1.81 2.29,-4.97 0.48,-7.05 -0.98,-1.13 -2.37,-1.72 -3.77,-1.72"
                 id="path7794"
                 style="fill:#38a6e3;fill-opacity:1;fill-rule:nonzero;stroke:none" /><path
                 d="m 6043.57,8297.98 c -1.17,0 -2.34,0.41 -3.28,1.22 l -9.96,8.65 c -1.56,1.36 -2.13,3.57 -1.39,5.52 0.73,1.95 2.59,3.25 4.67,3.25 l 19.91,0 c 2.09,0 3.96,-1.3 4.68,-3.25 0.74,-1.95 0.18,-4.16 -1.4,-5.52 l -9.94,-8.65 c -0.95,-0.81 -2.11,-1.22 -3.29,-1.22"
                 id="path7796"
                 style="fill:#38a6e3;fill-opacity:1;fill-rule:nonzero;stroke:none" /><path
                 d="m 5158.89,7717.32 c -30.39,0 -36.37,2.04 -38.82,4.28 -13.53,12.38 -36.22,43.89 -36.22,115.84 0,60.27 33.45,119.24 96.76,170.54 47.44,38.45 94.1,58.82 96.06,59.67 2.55,1.09 5.48,-0.07 6.57,-2.61 1.11,-2.53 -0.06,-5.47 -2.6,-6.57 -1.87,-0.81 -186.79,-82.41 -186.79,-221.03 0,-70.66 23.05,-99.39 32.97,-108.47 3,-1.32 23.43,-3.44 120.39,1.08 -0.42,5.24 -2.44,14.33 -10.86,21.36 -11.25,9.41 -36.74,17.11 -94.24,0.43 -2.67,-0.75 -5.42,0.77 -6.19,3.41 -0.76,2.65 0.76,5.43 3.42,6.2 49.67,14.41 84.53,13.59 103.59,-2.49 16.35,-13.81 14.33,-33.41 14.24,-34.24 -0.28,-2.43 -2.29,-4.31 -4.74,-4.43 -44.75,-2.14 -74.13,-2.97 -93.54,-2.97"
                 id="path7798"
                 style="fill:#38a6e3;fill-opacity:1;fill-rule:nonzero;stroke:none" /><path
                 d="m 5165.28,7757.76 c -1.16,0 -2.32,0.4 -3.27,1.22 -2.09,1.8 -2.32,4.96 -0.52,7.05 0.36,0.41 35.35,41.62 42.14,102.9 5.55,49.86 -31.74,71.93 -32.12,72.14 -2.39,1.38 -3.21,4.44 -1.84,6.84 1.38,2.38 4.43,3.21 6.83,1.84 1.78,-1.02 43.34,-25.63 37.07,-81.93 -7.16,-64.48 -42.98,-106.57 -44.51,-108.33 -0.98,-1.15 -2.38,-1.73 -3.78,-1.73"
                 id="path7800"
                 style="fill:#38a6e3;fill-opacity:1;fill-rule:nonzero;stroke:none" /><path
                 d="m 5495.83,8455.98 0,-156.79 c 0,-66.6 32.73,-101.12 97.33,-102.66 2.1,27.69 10.34,173.67 -44.12,233.76 -14.39,15.9 -32.27,24.52 -53.21,25.69 z m 101.92,-269.51 c -73.22,0 -111.92,38.98 -111.92,112.72 l 0,161.94 c 0,2.76 2.24,4.99 5,4.99 26.05,0 48.13,-9.79 65.63,-29.12 62.95,-69.49 46.98,-238.85 46.27,-246.02 -0.25,-2.56 -2.41,-4.51 -4.98,-4.51"
                 id="path7802"
                 style="fill:#38a6e3;fill-opacity:1;fill-rule:nonzero;stroke:none" /><path
                 d="m 5442.6,8376.46 c -0.22,0 -0.44,0.01 -0.67,0.05 -2.1,0.28 -3.79,1.86 -4.22,3.92 -0.28,1.34 -6.64,32.83 10.28,53.66 9.35,11.52 23.77,17.36 42.84,17.36 2.76,0 5,-2.24 5,-5 0,-2.76 -2.24,-5 -5,-5 -15.89,0 -27.69,-4.59 -35.05,-13.63 -7.76,-9.54 -9.45,-22.46 -9.43,-32.06 8.44,10.2 23.32,23.19 44.48,23.19 2.76,0 5,-2.24 5,-5 0,-2.76 -2.24,-5 -5,-5 -28.1,0 -43.63,-29.49 -43.78,-29.78 -0.87,-1.68 -2.6,-2.71 -4.45,-2.71"
                 id="path7804"
                 style="fill:#38a6e3;fill-opacity:1;fill-rule:nonzero;stroke:none" /><path
                 d="m 5490.83,8376.46 c -26.1,0 -32.76,18.86 -33.04,19.66 -0.88,2.61 0.53,5.45 3.15,6.33 2.59,0.88 5.41,-0.5 6.31,-3.09 0.21,-0.56 4.91,-12.9 23.58,-12.9 2.76,0 5,-2.24 5,-5 0,-2.76 -2.24,-5 -5,-5"
                 id="path7806"
                 style="fill:#38a6e3;fill-opacity:1;fill-rule:nonzero;stroke:none" /><path
                 d="m 5870.92,7719.12 c -1.85,0 -3.58,1.02 -4.44,2.7 -0.15,0.29 -15.84,29.79 -43.77,29.79 -2.77,0 -5,2.24 -5,5 0,2.75 2.23,5 5,5 21.15,0 36.04,-13 44.47,-23.2 0.03,9.6 -1.67,22.52 -9.45,32.06 -7.35,9.05 -19.14,13.63 -35.02,13.63 -2.77,0 -5,2.24 -5,5 0,2.76 2.23,5 5,5 19.07,0 33.47,-5.85 42.82,-17.36 16.91,-20.83 10.56,-52.32 10.29,-53.65 -0.44,-2.07 -2.13,-3.64 -4.22,-3.92 -0.23,-0.04 -0.46,-0.05 -0.68,-0.05"
                 id="path7808"
                 style="fill:#38a6e3;fill-opacity:1;fill-rule:nonzero;stroke:none" /><path
                 d="m 5822.71,7719.12 c -2.77,0 -5,2.24 -5,5 0,2.76 2.23,4.99 5,4.99 18.98,0 23.51,12.73 23.56,12.85 0.89,2.62 3.75,4.02 6.34,3.14 2.61,-0.89 4.01,-3.73 3.13,-6.34 -0.27,-0.8 -6.96,-19.64 -33.03,-19.64"
                 id="path7810"
                 style="fill:#38a6e3;fill-opacity:1;fill-rule:nonzero;stroke:none" /><path
                 d="m 5518.22,8451.8 c -0.06,0 -0.1,0 -0.15,0 -2.76,0.09 -4.94,2.4 -4.85,5.16 1.04,35.11 -9.61,55.15 -17.39,65.03 l 0,-60.86 c 0,-2.77 -2.24,-5 -5,-5 -2.76,0 -5,2.23 -5,5 l 0,72.85 c 0,1.84 1.03,3.55 2.66,4.41 1.64,0.87 3.62,0.76 5.14,-0.26 1.28,-0.88 31.34,-21.88 29.58,-81.47 -0.08,-2.71 -2.29,-4.86 -4.99,-4.86"
                 id="path7812"
                 style="fill:#38a6e3;fill-opacity:1;fill-rule:nonzero;stroke:none" /><path
                 d="m 5542.53,8438.32 c -0.62,0 -1.24,0.11 -1.85,0.36 -2.56,1.02 -3.82,3.93 -2.8,6.5 12.94,32.43 9.82,54.97 5.91,66.96 l -20.82,-57.09 c -0.94,-2.6 -3.83,-3.92 -6.41,-2.99 -2.6,0.95 -3.93,3.82 -2.99,6.42 l 24.97,68.44 c 0.63,1.74 2.17,2.98 4,3.24 1.82,0.22 3.65,-0.52 4.75,-2.03 0.89,-1.24 21.97,-31.29 -0.11,-86.66 -0.79,-1.96 -2.67,-3.15 -4.65,-3.15"
                 id="path7814"
                 style="fill:#38a6e3;fill-opacity:1;fill-rule:nonzero;stroke:none" /><path
                 d="m 5561.59,8418.09 c -1.12,0 -2.25,0.37 -3.19,1.14 -2.13,1.77 -2.42,4.91 -0.67,7.04 22.42,27.07 26.34,49.41 26.25,61.99 l -37.4,-48.01 c -1.72,-2.18 -4.84,-2.56 -7.02,-0.87 -2.18,1.7 -2.57,4.84 -0.87,7.01 l 44.79,57.48 c 1.13,1.46 2.98,2.17 4.8,1.85 1.82,-0.31 3.32,-1.61 3.9,-3.38 0.48,-1.47 11.28,-36.52 -26.73,-82.44 -1,-1.2 -2.42,-1.81 -3.86,-1.81"
                 id="path7816"
                 style="fill:#38a6e3;fill-opacity:1;fill-rule:nonzero;stroke:none" /><path
                 d="m 5575.08,8393.46 c -1.53,0 -3.03,0.69 -4.01,2 -1.66,2.2 -1.21,5.34 1.01,6.99 28.12,21.08 37.17,41.89 40.03,54.13 l -47.61,-37.92 c -2.18,-1.73 -5.31,-1.36 -7.03,0.8 -1.72,2.16 -1.36,5.31 0.79,7.03 l 56.99,45.39 c 1.45,1.14 3.41,1.42 5.12,0.66 1.69,-0.73 2.83,-2.34 2.99,-4.18 0.12,-1.55 2.42,-38.16 -45.29,-73.9 -0.89,-0.68 -1.95,-1 -2.99,-1"
                 id="path7818"
                 style="fill:#38a6e3;fill-opacity:1;fill-rule:nonzero;stroke:none" /><path
                 d="m 5593.02,8186.47 c -1.28,0 -2.58,0.49 -3.56,1.48 -51.28,51.92 -70.24,128.25 -55.18,164.28 5.97,14.3 17.15,22.18 31.48,22.18 18.2,0 24.67,-7.8 25.35,-8.69 1.67,-2.2 1.25,-5.33 -0.95,-7.01 -2.15,-1.64 -5.23,-1.26 -6.92,0.83 -0.23,0.26 -4.7,4.87 -17.48,4.87 -10.32,0 -17.81,-5.4 -22.26,-16.04 -13.81,-33.06 5.95,-105.68 53.07,-153.39 1.95,-1.96 1.93,-5.13 -0.04,-7.07 -0.97,-0.96 -2.24,-1.44 -3.51,-1.44"
                 id="path7820"
                 style="fill:#38a6e3;fill-opacity:1;fill-rule:nonzero;stroke:none" /><path
                 d="m 5523.07,8410.71 c -3.82,0 -6.92,3.09 -6.92,6.89 0,3.81 3.1,6.92 6.92,6.92 3.79,0 6.89,-3.11 6.89,-6.92 0,-3.8 -3.1,-6.89 -6.89,-6.89"
                 id="path7822"
                 style="fill:#38a6e3;fill-opacity:1;fill-rule:nonzero;stroke:none" /><path
                 d="m 5742.05,8496.02 c -3.81,0 -6.89,3.09 -6.89,6.9 0,3.8 3.08,6.89 6.89,6.89 3.81,0 6.91,-3.09 6.91,-6.89 0,-3.81 -3.1,-6.9 -6.91,-6.9"
                 id="path7824"
                 style="fill:#38a6e3;fill-opacity:1;fill-rule:nonzero;stroke:none" /><path
                 d="m 6084.55,8455.46 c -3.83,0 -6.92,3.09 -6.92,6.89 0,3.81 3.09,6.9 6.92,6.9 3.79,0 6.89,-3.09 6.89,-6.9 0,-3.8 -3.1,-6.89 -6.89,-6.89"
                 id="path7826"
                 style="fill:#38a6e3;fill-opacity:1;fill-rule:nonzero;stroke:none" /><path
                 d="m 6002.58,8348.87 c -3.79,0 -6.9,3.1 -6.9,6.92 0,3.8 3.11,6.9 6.9,6.9 3.83,0 6.91,-3.1 6.91,-6.9 0,-3.82 -3.08,-6.92 -6.91,-6.92"
                 id="path7828"
                 style="fill:#38a6e3;fill-opacity:1;fill-rule:nonzero;stroke:none" /><path
                 d="m 6084.55,8348.87 c -3.83,0 -6.92,3.1 -6.92,6.92 0,3.8 3.09,6.9 6.92,6.9 3.79,0 6.89,-3.1 6.89,-6.9 0,-3.82 -3.1,-6.92 -6.89,-6.92"
                 id="path7830"
                 style="fill:#38a6e3;fill-opacity:1;fill-rule:nonzero;stroke:none" /><path
                 d="m 5763.13,8213.67 c -3.81,0 -6.92,3.1 -6.92,6.9 0,3.81 3.11,6.91 6.92,6.91 3.8,0 6.89,-3.1 6.89,-6.91 0,-3.8 -3.09,-6.9 -6.89,-6.9"
                 id="path7832"
                 style="fill:#38a6e3;fill-opacity:1;fill-rule:nonzero;stroke:none" /><path
                 d="m 6107.68,7648.45 c -3.79,0 -6.89,3.09 -6.89,6.89 0,3.82 3.1,6.92 6.89,6.92 3.82,0 6.92,-3.1 6.92,-6.92 0,-3.8 -3.1,-6.89 -6.92,-6.89"
                 id="path7834"
                 style="fill:#38a6e3;fill-opacity:1;fill-rule:nonzero;stroke:none" /><path
                 d="m 5826.78,8056.56 c -3.81,0 -6.92,3.1 -6.92,6.92 0,3.79 3.11,6.89 6.92,6.89 3.81,0 6.89,-3.1 6.89,-6.89 0,-3.82 -3.08,-6.92 -6.89,-6.92"
                 id="path7836"
                 style="fill:#38a6e3;fill-opacity:1;fill-rule:nonzero;stroke:none" /><path
                 d="m 5308.96,8078.77 c -3.8,0 -6.9,3.11 -6.9,6.92 0,3.81 3.1,6.92 6.9,6.92 3.81,0 6.94,-3.11 6.94,-6.92 0,-3.81 -3.13,-6.92 -6.94,-6.92"
                 id="path7838"
                 style="fill:#38a6e3;fill-opacity:1;fill-rule:nonzero;stroke:none" /><path
                 d="m 5197.11,8145.9 c -3.79,0 -6.9,3.1 -6.9,6.92 0,3.81 3.11,6.91 6.9,6.91 3.82,0 6.91,-3.1 6.91,-6.91 0,-3.82 -3.09,-6.92 -6.91,-6.92"
                 id="path7840"
                 style="fill:#38a6e3;fill-opacity:1;fill-rule:nonzero;stroke:none" /><path
                 d="m 5763.89,7634.25 c -3.81,0 -6.92,3.1 -6.92,6.93 0,3.8 3.11,6.9 6.92,6.9 3.82,0 6.91,-3.1 6.91,-6.9 0,-3.83 -3.09,-6.93 -6.91,-6.93"
                 id="path7842"
                 style="fill:#38a6e3;fill-opacity:1;fill-rule:nonzero;stroke:none" /><path
                 d="m 5258.47,7353.6 c -3.82,0 -6.93,3.1 -6.93,6.92 0,3.81 3.11,6.91 6.93,6.91 3.8,0 6.88,-3.1 6.88,-6.91 0,-3.82 -3.08,-6.92 -6.88,-6.92"
                 id="path7844"
                 style="fill:#38a6e3;fill-opacity:1;fill-rule:nonzero;stroke:none" /><path
                 d="m 5682.99,7370.38 c -3.82,0 -6.92,3.09 -6.92,6.9 0,3.81 3.1,6.9 6.92,6.9 3.81,0 6.89,-3.09 6.89,-6.9 0,-3.81 -3.08,-6.9 -6.89,-6.9"
                 id="path7846"
                 style="fill:#38a6e3;fill-opacity:1;fill-rule:nonzero;stroke:none" /><path
                 d="m 5801.35,7370.38 c -3.8,0 -6.9,3.09 -6.9,6.9 0,3.81 3.1,6.9 6.9,6.9 3.81,0 6.91,-3.09 6.91,-6.9 0,-3.81 -3.1,-6.9 -6.91,-6.9"
                 id="path7848"
                 style="fill:#38a6e3;fill-opacity:1;fill-rule:nonzero;stroke:none" /><path
                 d="m 6041.91,7101.59 c -3.8,0 -6.89,3.1 -6.89,6.91 0,3.81 3.09,6.9 6.89,6.9 3.81,0 6.92,-3.09 6.92,-6.9 0,-3.81 -3.11,-6.91 -6.92,-6.91"
                 id="path7850"
                 style="fill:#38a6e3;fill-opacity:1;fill-rule:nonzero;stroke:none" /><path
                 d="m 5765.18,6928.66 c -3.8,0 -6.9,3.09 -6.9,6.89 0,3.81 3.1,6.92 6.9,6.92 3.8,0 6.91,-3.11 6.91,-6.92 0,-3.8 -3.11,-6.89 -6.91,-6.89"
                 id="path7852"
                 style="fill:#38a6e3;fill-opacity:1;fill-rule:nonzero;stroke:none" /><path
                 d="m 5277.77,7206.93 c -3.81,0 -6.91,3.1 -6.91,6.91 0,3.82 3.1,6.92 6.91,6.92 3.83,0 6.93,-3.1 6.93,-6.92 0,-3.81 -3.1,-6.91 -6.93,-6.91"
                 id="path7854"
                 style="fill:#38a6e3;fill-opacity:1;fill-rule:nonzero;stroke:none" /><path
                 d="m 5822.13,7634.25 c -3.81,0 -6.91,3.1 -6.91,6.93 0,3.8 3.1,6.9 6.91,6.9 3.8,0 6.89,-3.1 6.89,-6.9 0,-3.83 -3.09,-6.93 -6.89,-6.93"
                 id="path7856"
                 style="fill:#38a6e3;fill-opacity:1;fill-rule:nonzero;stroke:none" /><path
                 d="m 5792.6,7767.46 c -3.81,0 -6.92,3.1 -6.92,6.92 0,3.79 3.11,6.89 6.92,6.89 3.81,0 6.91,-3.1 6.91,-6.89 0,-3.82 -3.1,-6.92 -6.91,-6.92"
                 id="path7858"
                 style="fill:#38a6e3;fill-opacity:1;fill-rule:nonzero;stroke:none" /><path
                 d="m 5141.99,7670 c -3.81,0 -6.91,3.1 -6.91,6.91 0,3.8 3.1,6.9 6.91,6.9 3.8,0 6.9,-3.1 6.9,-6.9 0,-3.81 -3.1,-6.91 -6.9,-6.91"
                 id="path7860"
                 style="fill:#38a6e3;fill-opacity:1;fill-rule:nonzero;stroke:none" /><path
                 d="m 5215.46,7670 c -3.8,0 -6.9,3.1 -6.9,6.91 0,3.8 3.1,6.9 6.9,6.9 3.82,0 6.91,-3.1 6.91,-6.9 0,-3.81 -3.09,-6.91 -6.91,-6.91"
                 id="path7862"
                 style="fill:#38a6e3;fill-opacity:1;fill-rule:nonzero;stroke:none" /><path
                 d="m 5381.6,8078.77 c -3.81,0 -6.89,3.11 -6.89,6.92 0,3.81 3.08,6.92 6.89,6.92 3.83,0 6.93,-3.11 6.93,-6.92 0,-3.81 -3.1,-6.92 -6.93,-6.92"
                 id="path7864"
                 style="fill:#38a6e3;fill-opacity:1;fill-rule:nonzero;stroke:none" /><path
                 d="m 5489.07,8104.38 c -3.8,0 -6.88,3.1 -6.88,6.92 0,3.81 3.08,6.9 6.88,6.9 3.82,0 6.93,-3.09 6.93,-6.9 0,-3.82 -3.11,-6.92 -6.93,-6.92"
                 id="path7866"
                 style="fill:#38a6e3;fill-opacity:1;fill-rule:nonzero;stroke:none" /><path
                 d="m 5600.08,8104.38 c -3.81,0 -6.9,3.1 -6.9,6.92 0,3.81 3.09,6.9 6.9,6.9 3.81,0 6.91,-3.09 6.91,-6.9 0,-3.82 -3.1,-6.92 -6.91,-6.92"
                 id="path7868"
                 style="fill:#38a6e3;fill-opacity:1;fill-rule:nonzero;stroke:none" /><path
                 d="m 5178.73,7716.36 c -34.95,0 -63.4,-28.44 -63.4,-63.4 0,-34.95 28.45,-63.39 63.4,-63.39 34.95,0 63.38,28.44 63.38,63.39 0,34.96 -28.43,63.4 -63.38,63.4 z m 0,-136.79 c -40.47,0 -73.4,32.92 -73.4,73.39 0,40.48 32.93,73.4 73.4,73.4 40.47,0 73.38,-32.92 73.38,-73.4 0,-40.47 -32.91,-73.39 -73.38,-73.39"
                 id="path7870"
                 style="fill:#38a6e3;fill-opacity:1;fill-rule:nonzero;stroke:none" /><path
                 d="m 5247.07,7645.99 c -0.09,0 -0.16,0 -0.24,0.01 -2.77,0.12 -4.9,2.46 -4.76,5.22 1.35,29.28 2.56,47.48 4.53,68.24 -23.63,-2.75 -66.52,-3.28 -67.87,-3.1 -2.73,0 -4.98,2.21 -5,4.96 -0.02,2.77 2.21,5.02 4.96,5.04 0.53,0.01 52.42,0.43 72.68,3.85 1.54,0.24 3.1,-0.22 4.24,-1.27 1.14,-1.07 1.71,-2.6 1.56,-4.15 -2.35,-23.34 -3.63,-42.03 -5.12,-74.04 -0.12,-2.67 -2.33,-4.76 -4.98,-4.76"
                 id="path7872"
                 style="fill:#38a6e3;fill-opacity:1;fill-rule:nonzero;stroke:none" /><path
                 d="m 5110.37,7645.99 c -2.65,0 -4.87,2.09 -5,4.76 -1.45,31.93 -2.73,50.61 -5.1,74.04 -0.15,1.55 0.43,3.08 1.58,4.15 1.12,1.06 2.68,1.55 4.24,1.27 20.26,-3.42 72.15,-3.84 72.68,-3.85 2.76,-0.02 4.98,-2.27 4.96,-5.04 -0.02,-2.75 -2.26,-4.96 -5,-4.96 -0.01,0 -0.02,0 -0.04,0 -1.96,0.01 -44.33,0.36 -67.84,3.1 1.98,-20.83 3.17,-39.04 4.52,-68.24 0.12,-2.76 -2.01,-5.1 -4.76,-5.22 -0.08,-0.01 -0.16,-0.01 -0.24,-0.01"
                 id="path7874"
                 style="fill:#38a6e3;fill-opacity:1;fill-rule:nonzero;stroke:none" /><path
                 d="m 5178.73,7660.55 c -19.51,0 -35.37,-15.86 -35.37,-35.37 0,-19.5 15.86,-35.36 35.37,-35.36 19.49,0 35.35,15.86 35.35,35.36 0,19.51 -15.86,35.37 -35.35,35.37 z m 0,-80.73 c -25.02,0 -45.37,20.35 -45.37,45.36 0,25.02 20.35,45.37 45.37,45.37 25.01,0 45.35,-20.35 45.35,-45.37 0,-25.01 -20.34,-45.36 -45.35,-45.36"
                 id="path7876"
                 style="fill:#38a6e3;fill-opacity:1;fill-rule:nonzero;stroke:none" /><path
                 d="m 5194.84,7615.73 c -0.93,0 -1.89,0.27 -2.74,0.82 l 0,0 c -0.05,0.03 -5.69,3.63 -13.37,3.63 -7.69,0 -13.28,-3.58 -13.34,-3.62 -2.32,-1.5 -5.41,-0.88 -6.92,1.42 -1.52,2.29 -0.91,5.37 1.37,6.91 0.33,0.21 8.04,5.29 18.89,5.29 10.8,0 18.56,-5.07 18.89,-5.29 2.3,-1.53 2.93,-4.64 1.38,-6.93 -0.95,-1.45 -2.54,-2.23 -4.16,-2.23"
                 id="path7878"
                 style="fill:#38a6e3;fill-opacity:1;fill-rule:nonzero;stroke:none" /><path
                 d="m 5178.73,7620.18 c -2.75,0 -5,2.25 -5,5 l 0,20.18 c 0,2.77 2.25,5 5,5 2.75,0 5,-2.23 5,-5 l 0,-20.18 c 0,-2.75 -2.25,-5 -5,-5"
                 id="path7880"
                 style="fill:#38a6e3;fill-opacity:1;fill-rule:nonzero;stroke:none" /><path
                 d="m 5175.68,7639.98 c -2.48,0 -5.68,0.53 -8.86,2.54 -5.34,3.35 -8.68,9.61 -9.95,18.61 -0.39,2.73 1.51,5.26 4.24,5.65 2.8,0.37 5.26,-1.52 5.67,-4.25 0.81,-5.79 2.63,-9.77 5.27,-11.49 2.46,-1.65 5.16,-0.91 5.25,-0.88 2.6,0.77 5.41,-0.78 6.18,-3.39 0.77,-2.61 -0.65,-5.36 -3.25,-6.17 -0.35,-0.11 -2.1,-0.62 -4.55,-0.62"
                 id="path7882"
                 style="fill:#38a6e3;fill-opacity:1;fill-rule:nonzero;stroke:none" /><path
                 d="m 5181.77,7639.98 c -2.44,0 -4.19,0.51 -4.54,0.62 -2.63,0.83 -4.1,3.64 -3.27,6.27 0.83,2.61 3.56,4.07 6.2,3.29 0.21,-0.06 2.84,-0.72 5.24,0.87 2.64,1.73 4.46,5.71 5.3,11.5 0.38,2.74 3.01,4.59 5.65,4.25 2.73,-0.39 4.64,-2.92 4.24,-5.66 -1.27,-9 -4.63,-15.26 -9.96,-18.62 -3.17,-1.99 -6.38,-2.52 -8.86,-2.52"
                 id="path7884"
                 style="fill:#38a6e3;fill-opacity:1;fill-rule:nonzero;stroke:none" /><path
                 d="m 5810,7410.54 -74.69,0 c -6.31,0 -11.64,2.36 -15.39,6.83 -3.22,3.81 -4.98,8.87 -4.98,14.26 0,10.11 6.46,20.36 18.81,20.36 l 12.72,0 c -15.43,12.61 -38.95,37.57 -38.95,72.61 0,39.81 35.62,49.39 36,49.48 2.67,0.71 5.38,-0.93 6.06,-3.59 0.69,-2.67 -0.91,-5.39 -3.57,-6.09 -1.17,-0.31 -28.49,-7.88 -28.49,-39.8 0,-45.21 46.58,-73.01 47.06,-73.29 1.94,-1.14 2.89,-3.44 2.3,-5.63 -0.59,-2.17 -2.56,-3.69 -4.83,-3.69 l -28.3,0 c -6.95,0 -8.81,-6.51 -8.81,-10.36 0,-2.99 0.96,-5.84 2.62,-7.82 1.83,-2.17 4.43,-3.27 7.75,-3.27 l 69.69,0 0,65.78 c 0,69.64 -43.87,112.9 -114.49,112.9 l -305.03,0 c -2.77,0 -5,2.24 -5,5 0,2.76 2.23,5 5,5 l 305.03,0 c 75.62,0 124.49,-48.24 124.49,-122.9 l 0,-70.78 c 0,-2.76 -2.24,-5 -5,-5"
                 id="path7886"
                 style="fill:#38a6e3;fill-opacity:1;fill-rule:nonzero;stroke:none" /><path
                 d="m 5307.2,7410.54 -74.68,0 c -7.97,0 -12.77,3.72 -15.4,6.83 -3.21,3.8 -4.97,8.86 -4.97,14.25 0,10.12 6.44,20.37 18.79,20.37 l 12.73,0 c -15.42,12.61 -38.94,37.57 -38.94,72.61 0,39.81 35.62,49.39 35.98,49.48 2.66,0.71 5.38,-0.93 6.08,-3.59 0.69,-2.67 -0.91,-5.39 -3.58,-6.09 -1.16,-0.31 -28.48,-7.88 -28.48,-39.8 0,-45.21 46.58,-73.01 47.05,-73.29 1.93,-1.14 2.89,-3.44 2.3,-5.63 -0.6,-2.17 -2.58,-3.69 -4.83,-3.69 l -28.31,0 c -6.95,0 -8.79,-6.51 -8.79,-10.37 0,-2.98 0.95,-5.83 2.62,-7.81 1.82,-2.17 4.43,-3.27 7.75,-3.27 l 69.68,0 0,65.78 c 0,2.76 2.23,5 5,5 2.76,0 5,-2.24 5,-5 l 0,-70.78 c 0,-2.76 -2.24,-5 -5,-5"
                 id="path7888"
                 style="fill:#38a6e3;fill-opacity:1;fill-rule:nonzero;stroke:none" /><path
                 d="m 5234.36,7410.54 -74.71,0 c -6.31,0 -11.62,2.36 -15.39,6.82 -3.21,3.81 -4.97,8.87 -4.97,14.25 0,10.13 6.46,20.38 18.82,20.38 l 12.7,0 c -15.42,12.61 -38.93,37.57 -38.93,72.61 0,2.76 2.24,5 5,5 2.76,0 5,-2.24 5,-5 0,-45.34 46.56,-73.01 47.03,-73.29 1.95,-1.13 2.89,-3.44 2.3,-5.62 -0.58,-2.18 -2.57,-3.7 -4.82,-3.7 l -28.28,0 c -6.97,0 -8.83,-6.53 -8.83,-10.38 0,-2.98 0.95,-5.83 2.62,-7.8 1.83,-2.17 4.43,-3.27 7.75,-3.27 l 74.71,0 c 2.76,0 5,-2.24 5,-5 0,-2.76 -2.24,-5 -5,-5"
                 id="path7890"
                 style="fill:#38a6e3;fill-opacity:1;fill-rule:nonzero;stroke:none" /><path
                 d="m 5755.82,7410.54 -74.69,0 c -6.28,0 -11.78,2.57 -15.5,7.23 -3.17,3.97 -4.91,9.22 -4.91,14.8 0,10.53 6.45,21.2 18.79,21.2 8.97,0 28.17,0.71 28.19,0.72 l 0.36,-10 c 0,0 -19.47,-0.72 -28.55,-0.72 -6.93,0 -8.79,-7.04 -8.79,-11.2 0,-3.28 1,-6.39 2.72,-8.56 1.83,-2.3 4.43,-3.47 7.69,-3.47 l 74.69,0 c 2.75,0 5,-2.24 5,-5 0,-2.76 -2.25,-5 -5,-5"
                 id="path7892"
                 style="fill:#38a6e3;fill-opacity:1;fill-rule:nonzero;stroke:none" /><path
                 d="m 5365.06,7434.14 c -20.75,0 -40.37,0.85 -58.33,2.54 -2.75,0.26 -4.77,2.7 -4.5,5.44 0.25,2.75 2.64,4.75 5.44,4.52 54.91,-5.14 125.33,-1.32 202.74,2.35 86.58,4.11 176.13,8.39 251.99,2.99 2.76,-0.2 4.85,-2.59 4.65,-5.34 -0.19,-2.76 -2.58,-4.82 -5.35,-4.63 -75.27,5.3 -164.53,1.09 -250.82,-3.01 -52.67,-2.5 -102.4,-4.86 -145.82,-4.86"
                 id="path7894"
                 style="fill:#38a6e3;fill-opacity:1;fill-rule:nonzero;stroke:none" /><path
                 d="m 5254.72,7444.96 c -0.38,0 -0.76,0.04 -1.15,0.13 -101.13,23.67 -148.24,87.19 -148.24,199.89 0,2.76 2.25,5 5,5 2.77,0 5,-2.24 5,-5 0,-108.76 43.34,-167.41 140.52,-190.16 2.69,-0.62 4.36,-3.31 3.73,-6 -0.54,-2.31 -2.59,-3.86 -4.86,-3.86"
                 id="path7896"
                 style="fill:#38a6e3;fill-opacity:1;fill-rule:nonzero;stroke:none" /><path
                 d="m 5924.77,7525.98 -121.64,0 c -2.76,0 -5,2.23 -5,5 0,2.75 2.24,4.99 5,4.99 l 121.64,0 c 39.53,0 72.94,12.51 96.62,36.16 21.23,21.19 32.92,49.66 32.92,80.17 0,30.28 -11.55,58.5 -32.5,79.44 -23.35,23.37 -56.35,35.72 -95.44,35.72 -6.78,0 -12.31,-5.52 -12.31,-12.3 0,-6.77 5.53,-12.29 12.31,-12.29 32.41,0 59.4,-9.86 78.04,-28.51 16.34,-16.33 25.33,-38.38 25.33,-62.06 0,-63.03 -54.42,-91.73 -104.97,-91.73 l -138.72,0 c -2.75,0 -5,2.24 -5,5 0,2.75 2.25,5 5,5 l 138.72,0 c 45.74,0 94.98,25.57 94.98,81.73 0,21.02 -7.96,40.55 -22.41,55 -16.71,16.73 -41.27,25.57 -70.97,25.57 -12.31,0 -22.31,10 -22.31,22.29 0,12.3 10,22.3 22.31,22.3 41.8,0 77.25,-13.36 102.51,-38.64 22.84,-22.84 35.43,-53.56 35.43,-86.52 0,-33.18 -12.74,-64.17 -35.86,-87.25 -25.6,-25.56 -61.44,-39.07 -103.68,-39.07"
                 id="path7898"
                 style="fill:#38a6e3;fill-opacity:1;fill-rule:nonzero;stroke:none" /><path
                 d="m 5827.51,7560.61 -43.74,0 c -2.75,0 -5,2.24 -5,5 0,2.76 2.25,5 5,5 l 43.74,0 c 8.23,0 14.93,6.7 14.93,14.94 l 0,69.79 c 0,2.76 2.25,5 5,5 2.77,0 5,-2.24 5,-5 l 0,-69.79 c 0,-13.75 -11.18,-24.94 -24.93,-24.94"
                 id="path7900"
                 style="fill:#38a6e3;fill-opacity:1;fill-rule:nonzero;stroke:none" /><path
                 d="m 5822.79,7670.29 -60.39,0 c -2.75,0 -5,2.24 -5,5 0,2.76 2.25,5 5,5 l 60.39,0 c 2.77,0 5,-2.24 5,-5 0,-2.76 -2.23,-5 -5,-5"
                 id="path7902"
                 style="fill:#38a6e3;fill-opacity:1;fill-rule:nonzero;stroke:none" /><path
                 d="m 5737.75,7591.62 c -2.75,0 -5,2.24 -5,5 l 0,58.72 c 0,2.76 2.25,5 5,5 2.76,0 5,-2.24 5,-5 l 0,-58.72 c 0,-2.76 -2.24,-5 -5,-5"
                 id="path7904"
                 style="fill:#38a6e3;fill-opacity:1;fill-rule:nonzero;stroke:none" /><path
                 d="m 5737.75,7650.34 c -2.75,0 -5,2.24 -5,5 0,41.87 4.6,51.03 12.04,52.24 7.47,1.38 15.08,-9.08 22.36,-30.7 0.87,-2.61 -0.54,-5.45 -3.16,-6.33 -2.64,-0.86 -5.45,0.53 -6.33,3.15 -3.37,10.03 -8.16,19.87 -11.1,23.1 -1.33,-3.02 -3.81,-12.55 -3.81,-41.46 0,-2.76 -2.24,-5 -5,-5"
                 id="path7906"
                 style="fill:#38a6e3;fill-opacity:1;fill-rule:nonzero;stroke:none" /><path
                 d="m 5847.44,7650.34 c -2.75,0 -5,2.24 -5,5 0,28.88 -2.48,38.43 -3.8,41.46 -2.93,-3.28 -7.79,-13.25 -11.1,-23.1 -0.88,-2.62 -3.69,-4.04 -6.33,-3.15 -2.62,0.88 -4.02,3.72 -3.15,6.33 7.27,21.6 14.87,31.99 22.35,30.7 7.44,-1.21 12.03,-10.37 12.03,-52.24 0,-2.76 -2.23,-5 -5,-5"
                 id="path7908"
                 style="fill:#38a6e3;fill-opacity:1;fill-rule:nonzero;stroke:none" /><path
                 d="m 5919.26,7560.61 c -2.76,0 -5,2.24 -5,5 0,2.76 2.24,5 5,5 18.04,0 33.14,5.58 43.65,16.14 9.23,9.27 14.31,21.68 14.31,34.96 0,23.4 -17.07,48.58 -54.54,48.58 l -75.72,0 c -2.76,0 -5,2.24 -5,5 0,2.76 2.24,5 5,5 l 75.72,0 c 44.33,0 64.54,-30.36 64.54,-58.58 0,-15.94 -6.12,-30.86 -17.22,-42.01 -12.43,-12.49 -29.98,-19.09 -50.74,-19.09"
                 id="path7910"
                 style="fill:#38a6e3;fill-opacity:1;fill-rule:nonzero;stroke:none" /><path
                 d="m 5769.63,7680.29 45.94,0 0,92.77 c 0.08,1.15 0.13,1.84 0.13,2.54 0,12.74 -10.36,23.1 -23.1,23.1 -12.76,0 -23.13,-10.36 -23.13,-23.1 0,-0.7 0.06,-1.39 0.13,-2.08 l 0.03,-93.23 z m 50.94,-10 -55.94,0 c -2.75,0 -5,2.24 -5,5 l 0,97.7 c -0.08,0.53 -0.16,1.56 -0.16,2.61 0,18.25 14.87,33.1 33.13,33.1 18.26,0 33.1,-14.85 33.1,-33.1 0,-1.03 -0.06,-2.03 -0.15,-3.02 l 0.02,-97.29 c 0,-2.76 -2.24,-5 -5,-5"
                 id="path7912"
                 style="fill:#38a6e3;fill-opacity:1;fill-rule:nonzero;stroke:none" /><path
                 d="m 5171,7988.32 c -2.76,0 -5,2.25 -5,5 l 0,191.08 c 0,2.57 1.95,4.73 4.5,4.98 1.36,0.15 33.29,3.07 53.41,-15.15 10.37,-9.4 15.62,-22.55 15.62,-39.1 l 0,-95.51 c 0,-2.76 -2.24,-5 -5,-5 -2.75,0 -5,2.24 -5,5 l 0,95.51 c 0,13.58 -4.14,24.23 -12.3,31.66 -12.79,11.6 -32.32,12.57 -41.23,12.82 l 0,-186.29 c 0,-2.75 -2.25,-5 -5,-5"
                 id="path7914"
                 style="fill:#38a6e3;fill-opacity:1;fill-rule:nonzero;stroke:none" /><path
                 d="m 5131.54,8126.76 c -0.52,0 -1.06,0.08 -1.59,0.26 -2.09,0.71 -3.49,2.69 -3.41,4.9 0.75,19.88 11,57.48 44.46,57.48 2.75,0 5,-2.24 5,-5 0,-2.76 -2.25,-5 -5,-5 -22.02,0 -30,-21.47 -32.87,-35.67 6.91,4.07 17.51,7.94 32.87,7.94 2.75,0 5,-2.24 5,-5 0,-2.76 -2.25,-5 -5,-5 -25.96,0 -34.97,-12.27 -35.35,-12.78 -0.96,-1.36 -2.51,-2.13 -4.11,-2.13"
                 id="path7916"
                 style="fill:#38a6e3;fill-opacity:1;fill-rule:nonzero;stroke:none" /><path
                 d="m 5122.89,7976.57 c -0.47,0 -0.96,0.07 -1.43,0.22 -1.95,0.58 -3.35,2.28 -3.54,4.3 -0.26,2.7 -6.28,66.42 0.13,91.35 6.64,25.68 23.87,36.46 36.89,40.99 -14.04,9.49 -18.57,23.92 -18.81,24.71 -0.8,2.64 0.7,5.41 3.32,6.22 2.62,0.8 5.43,-0.68 6.25,-3.32 0.25,-0.79 6.23,-19.41 26.51,-24.5 2.44,-0.61 4.04,-2.93 3.75,-5.42 -0.29,-2.49 -2.39,-4.38 -4.89,-4.43 -1.39,-0.02 -34.1,-1.03 -43.34,-36.75 -4.41,-17.15 -2.26,-56.5 -0.82,-76.21 9.59,10.33 26.43,26.48 42.42,32.13 2.62,0.88 5.46,-0.45 6.38,-3.04 0.92,-2.61 -0.44,-5.46 -3.04,-6.39 -21.03,-7.43 -45.64,-37.69 -45.88,-38 -0.97,-1.2 -2.41,-1.86 -3.9,-1.86"
                 id="path7918"
                 style="fill:#38a6e3;fill-opacity:1;fill-rule:nonzero;stroke:none" /><path
                 d="m 5646.25,8593.07 0,-269.42 c 92.5,3.14 125.64,93.6 125.64,178.35 0,51.33 -20.39,86.43 -32.36,102.6 l 0,-56.21 c 0,-2.76 -2.24,-5 -5,-5 l -58.16,0 c -2.55,0 -4.69,1.91 -4.97,4.45 -0.05,0.36 -4,33.54 -25.15,45.23 z m -5,-279.51 c -2.76,0 -5,2.24 -5,5 l 0,281.98 c 0,1.57 0.73,3.06 1.99,4 1.26,0.96 2.89,1.25 4.42,0.8 27.44,-8.05 35.8,-40.02 37.98,-51.96 l 48.89,0 0,64.98 c 0,2 1.2,3.81 3.05,4.59 1.85,0.8 3.98,0.39 5.43,-1 1.78,-1.73 43.88,-43.24 43.88,-119.95 0,-91.1 -36.95,-188.44 -140.64,-188.44"
                 id="path7920"
                 style="fill:#38a6e3;fill-opacity:1;fill-rule:nonzero;stroke:none" /><path
                 d="m 5641.25,8313.56 c -1.39,0 -2.77,0.58 -3.77,1.7 -1.82,2.08 -1.6,5.24 0.47,7.06 7.61,6.67 18.95,19.09 22.41,28.47 l -19.11,0 c -2.76,0 -5,2.24 -5,5 0,2.75 2.24,5 5,5 l 25.16,0 c 2.75,0 5,-2.25 5,-5 0,-16.98 -24.12,-38.58 -26.87,-40.99 -0.95,-0.84 -2.12,-1.24 -3.29,-1.24"
                 id="path7922"
                 style="fill:#38a6e3;fill-opacity:1;fill-rule:nonzero;stroke:none" /><path
                 d="m 5761.21,8402.14 c -0.71,0 -1.42,0.15 -2.11,0.47 -56.96,26.67 -74.72,103.67 -62.38,147.14 0.75,2.66 3.49,4.21 6.17,3.44 2.66,-0.74 4.2,-3.51 3.44,-6.16 -11.37,-40.06 4.82,-110.93 57,-135.37 2.51,-1.16 3.58,-4.14 2.41,-6.64 -0.85,-1.82 -2.65,-2.88 -4.53,-2.88"
                 id="path7924"
                 style="fill:#38a6e3;fill-opacity:1;fill-rule:nonzero;stroke:none" /><path
                 d="m 5372.45,8254.08 c -0.54,0 -1.08,0.08 -1.62,0.27 -1.83,0.63 -44.6,16.24 -44.6,96.72 0,47 29.95,79.91 31.23,81.28 1.71,1.84 4.53,2.13 6.56,0.69 2.43,-1.73 59.49,-42.98 59.49,-112.38 0,-2.75 -2.24,-5 -4.99,-5 -2.78,0 -5,2.25 -5,5 0,54.36 -39.34,91.16 -51.64,101.36 -7.3,-9.35 -25.65,-36.33 -25.65,-70.95 0,-73.42 37.47,-87.13 37.85,-87.26 2.61,-0.9 4.01,-3.74 3.11,-6.36 -0.73,-2.07 -2.66,-3.37 -4.74,-3.37"
                 id="path7926"
                 style="fill:#38a6e3;fill-opacity:1;fill-rule:nonzero;stroke:none" /><path
                 d="m 5378.07,8330.74 c -2.37,0 -4.48,1.7 -4.91,4.11 l -9.8,53.85 c -0.5,2.71 1.3,5.31 4.02,5.81 2.68,0.54 5.32,-1.31 5.81,-4.03 l 9.8,-53.84 c 0.51,-2.73 -1.3,-5.32 -4.03,-5.82 -0.29,-0.05 -0.6,-0.08 -0.89,-0.08"
                 id="path7928"
                 style="fill:#38a6e3;fill-opacity:1;fill-rule:nonzero;stroke:none" /><path
                 d="m 5193.13,8229.96 c -1.45,0 -2.9,0.63 -3.88,1.85 -1.75,2.14 -1.42,5.29 0.73,7.03 1.47,1.19 36.51,29.4 81.06,40.81 2.64,0.7 5.39,-0.92 6.07,-3.61 0.69,-2.67 -0.92,-5.39 -3.59,-6.08 -42.45,-10.87 -76.9,-38.6 -77.24,-38.88 -0.93,-0.76 -2.04,-1.12 -3.15,-1.12"
                 id="path7930"
                 style="fill:#38a6e3;fill-opacity:1;fill-rule:nonzero;stroke:none" /><path
                 d="m 5372.44,8233.9 c -2.3,0 -4.37,1.61 -4.88,3.95 -0.29,1.35 -7.35,30.99 -49.79,35.77 -2.75,0.31 -4.72,2.79 -4.41,5.53 0.3,2.74 2.73,4.69 5.53,4.41 49.94,-5.63 58.14,-42.09 58.45,-43.63 0.57,-2.72 -1.16,-5.36 -3.86,-5.93 -0.35,-0.07 -0.69,-0.1 -1.04,-0.1"
                 id="path7932"
                 style="fill:#38a6e3;fill-opacity:1;fill-rule:nonzero;stroke:none" /><path
                 d="m 5272.3,8190.12 c -0.41,0 -0.83,0.04 -1.25,0.15 -44.56,11.39 -79.6,39.62 -81.08,40.81 -2.14,1.74 -2.47,4.89 -0.72,7.03 1.73,2.16 4.89,2.48 7.03,0.73 0.34,-0.28 34.87,-28.05 77.26,-38.88 2.67,-0.68 4.29,-3.41 3.6,-6.08 -0.58,-2.26 -2.61,-3.76 -4.84,-3.76"
                 id="path7934"
                 style="fill:#38a6e3;fill-opacity:1;fill-rule:nonzero;stroke:none" /><path
                 d="m 5318.32,8186.33 c -2.51,0 -4.67,1.88 -4.96,4.44 -0.31,2.75 1.66,5.22 4.41,5.53 42.5,4.77 49.52,34.51 49.79,35.77 0.59,2.7 3.21,4.45 5.94,3.83 2.69,-0.58 4.41,-3.21 3.84,-5.9 -0.31,-1.55 -8.51,-38.04 -58.45,-43.64 -0.2,-0.02 -0.38,-0.03 -0.57,-0.03"
                 id="path7936"
                 style="fill:#38a6e3;fill-opacity:1;fill-rule:nonzero;stroke:none" /><path
                 d="m 5272.28,8229.96 -34.76,0 c -2.75,0 -5,2.24 -5,5 0,2.76 2.25,5 5,5 l 34.76,0 c 2.76,0 4.99,-2.24 4.99,-5 0,-2.76 -2.23,-5 -4.99,-5"
                 id="path7938"
                 style="fill:#38a6e3;fill-opacity:1;fill-rule:nonzero;stroke:none" /><path
                 d="m 5365.82,8229.96 -47.49,0 c -2.76,0 -5,2.24 -5,5 0,2.76 2.24,5 5,5 l 47.49,0 c 2.76,0 5,-2.24 5,-5 0,-2.76 -2.24,-5 -5,-5"
                 id="path7940"
                 style="fill:#38a6e3;fill-opacity:1;fill-rule:nonzero;stroke:none" /><path
                 d="m 5084.39,7755.67 c -17.07,0 -30.95,13.88 -30.95,30.94 0,17.07 13.88,30.95 30.95,30.95 2.1,0 4.18,-0.22 6.22,-0.62 2.69,-0.53 4.47,-3.15 3.93,-5.87 -0.54,-2.7 -3.09,-4.47 -5.87,-3.94 -1.38,0.27 -2.82,0.43 -4.28,0.43 -11.56,0 -20.95,-9.4 -20.95,-20.95 0,-11.54 9.39,-20.94 20.95,-20.94 4.33,0 8.47,1.31 11.98,3.76 2.26,1.59 5.38,1.04 6.96,-1.21 1.59,-2.26 1.05,-5.37 -1.22,-6.96 -5.2,-3.66 -11.32,-5.59 -17.72,-5.59"
                 id="path7942"
                 style="fill:#38a6e3;fill-opacity:1;fill-rule:nonzero;stroke:none" /><path
                 d="m 6043.57,8434.59 c -46.97,0 -85.17,-38.2 -85.17,-85.16 0,-46.95 38.2,-85.14 85.17,-85.14 46.94,0 85.14,38.19 85.14,85.14 0,46.96 -38.2,85.16 -85.14,85.16 z m 0,-180.3 c -52.48,0 -95.17,42.68 -95.17,95.14 0,52.47 42.69,95.15 95.17,95.15 52.46,0 95.14,-42.68 95.14,-95.15 0,-52.46 -42.68,-95.14 -95.14,-95.14"
                 id="path7944"
                 style="fill:#38a6e3;fill-opacity:1;fill-rule:nonzero;stroke:none" /><path
                 d="m 6043.63,8334.29 c -9.74,-7.97 -27.58,-25.6 -27.58,-40.34 0,-15.17 12.35,-27.5 27.52,-27.5 15.16,0 27.48,12.33 27.48,27.5 0,15.56 -17.69,32.7 -27.42,40.34 z m -0.06,-77.84 c -20.68,0 -37.52,16.82 -37.52,37.5 0,24.76 33.13,49.61 34.54,50.66 1.73,1.28 4.11,1.3 5.87,0.07 1.41,-1 34.59,-24.74 34.59,-50.73 0,-20.68 -16.81,-37.5 -37.48,-37.5"
                 id="path7946"
                 style="fill:#38a6e3;fill-opacity:1;fill-rule:nonzero;stroke:none" /><path
                 d="m 5955.19,8362.31 c -1.76,0 -3.45,0.92 -4.37,2.55 -17.79,31.8 -16.93,57.16 -16.87,58.21 0.09,2.67 2.28,4.77 4.94,4.79 0.86,0.07 18.52,0 39.37,-12.84 l 65.31,0 c 2.76,0 5,-2.24 5,-5 0,-2.75 -2.24,-5 -5,-5 l -66.74,0 c -0.95,0 -1.89,0.28 -2.69,0.78 -12.38,7.89 -23.69,10.62 -29.99,11.56 0.72,-8.57 3.66,-26.63 15.39,-47.61 1.35,-2.42 0.48,-5.46 -1.92,-6.8 -0.77,-0.44 -1.6,-0.64 -2.43,-0.64"
                 id="path7948"
                 style="fill:#38a6e3;fill-opacity:1;fill-rule:nonzero;stroke:none" /><path
                 d="m 6131.92,8362.31 c -0.83,0 -1.67,0.2 -2.43,0.64 -2.42,1.34 -3.27,4.39 -1.93,6.8 11.76,20.98 14.7,39.05 15.42,47.62 -6.3,-0.95 -17.61,-3.68 -29.99,-11.57 -0.8,-0.5 -1.74,-0.78 -2.69,-0.78 l -66.73,0 c -2.76,0 -5,2.25 -5,5 0,2.76 2.24,5 5,5 l 65.3,0 c 20.84,12.84 38.38,12.95 39.37,12.84 2.66,-0.02 4.85,-2.12 4.94,-4.79 0.06,-1.05 0.92,-26.41 -16.89,-58.21 -0.92,-1.63 -2.62,-2.55 -4.37,-2.55"
                 id="path7950"
                 style="fill:#38a6e3;fill-opacity:1;fill-rule:nonzero;stroke:none" /><path
                 d="m 5975.6,8160 c -2.69,0 -5.4,0.38 -8.1,1.18 -1.37,0.39 -34.2,10.15 -67.09,38.41 -30.37,26.04 -66.58,73.18 -66.58,149.84 0,66.9 25.94,127.79 73.04,171.45 46.35,42.98 110.46,66.66 180.53,66.66 145.16,0 263.24,-118.11 263.24,-263.27 0,-20.04 -2.28,-40.06 -6.81,-59.48 -0.63,-2.7 -3.32,-4.36 -6,-3.75 -2.69,0.63 -4.36,3.32 -3.75,6.01 4.36,18.69 6.56,37.94 6.56,57.22 0,139.65 -113.6,253.27 -253.24,253.27 -67.54,0 -129.24,-22.73 -173.73,-63.99 -45.04,-41.75 -69.84,-100.03 -69.84,-164.12 0,-72.86 34.31,-117.57 63.08,-142.25 31.27,-26.86 63.09,-36.31 63.4,-36.4 9.85,-2.9 20.22,2.7 23.13,12.52 2.91,9.83 -2.74,20.2 -12.56,23.12 -2.72,0.87 -26.2,8.74 -49.75,28.96 -33.26,28.54 -50.13,66.91 -50.13,114.05 0,53.61 20.57,102.21 57.93,136.86 37.59,34.86 90.33,54.06 148.47,54.06 119.14,0 216.08,-96.94 216.08,-216.08 0,-44.03 -13.21,-86.43 -38.17,-122.63 -1.56,-2.26 -4.68,-2.85 -6.95,-1.28 -2.27,1.57 -2.84,4.69 -1.27,6.96 23.8,34.52 36.39,74.95 36.39,116.95 0,113.63 -92.45,206.08 -206.08,206.08 -55.62,0 -105.94,-18.25 -141.68,-51.39 -35.29,-32.74 -54.72,-78.74 -54.72,-129.53 0,-44.09 15.7,-79.91 46.64,-106.46 22.44,-19.26 45.21,-26.69 46.17,-26.99 15.03,-4.47 23.68,-20.41 19.22,-35.51 -3.67,-12.41 -15.1,-20.46 -27.43,-20.47"
                 id="path7952"
                 style="fill:#38a6e3;fill-opacity:1;fill-rule:nonzero;stroke:none" /><path
                 d="m 6281.22,7978.74 -152.05,0 c -16.84,0 -25.64,11.76 -25.64,23.37 0,11.41 8.8,22.98 25.64,22.98 l 65.22,0 c 2.76,0 5,-2.25 5,-5 0,-2.76 -2.24,-5 -5,-5 l -65.22,0 c -10.81,0 -15.63,-6.53 -15.63,-12.98 0,-6.44 4.88,-13.37 15.63,-13.37 l 152.05,0 c 2.76,0 5,-2.24 5,-5 0,-2.76 -2.24,-5 -5,-5"
                 id="path7954"
                 style="fill:#38a6e3;fill-opacity:1;fill-rule:nonzero;stroke:none" /><path
                 d="m 6216.28,7978.74 -152.06,0 c -16.84,0 -25.65,11.76 -25.65,23.37 0,11.42 8.81,22.98 25.65,22.98 l 10,0 c 2.75,0 4.99,-2.25 4.99,-5 0,-2.76 -2.24,-5 -4.99,-5 l -10,0 c -10.81,0 -15.65,-6.52 -15.65,-12.98 0,-6.44 4.9,-13.37 15.65,-13.37 l 152.06,0 c 2.76,0 5,-2.24 5,-5 0,-2.76 -2.24,-5 -5,-5"
                 id="path7956"
                 style="fill:#38a6e3;fill-opacity:1;fill-rule:nonzero;stroke:none" /><path
                 d="m 6151.21,8015.09 c -1.76,0 -3.46,0.93 -4.37,2.57 -3,5.41 -73.03,132.98 -42.07,185.52 8.74,14.86 24.37,22.38 46.44,22.38 110.74,0 112.02,-138.81 112.02,-140.22 0,-2.76 -2.23,-5 -4.99,-5 l 0,0 c -2.77,0 -5,2.24 -5,5 -0.01,5.32 -1.29,130.23 -102.03,130.23 -18.53,0 -30.92,-5.72 -37.83,-17.46 -28.07,-47.64 41.49,-174.32 42.21,-175.59 1.32,-2.43 0.45,-5.47 -1.96,-6.81 -0.76,-0.42 -1.6,-0.62 -2.42,-0.62"
                 id="path7958"
                 style="fill:#38a6e3;fill-opacity:1;fill-rule:nonzero;stroke:none" /><path
                 d="m 5795.06,8066.45 c -54.34,0 -98.54,44.2 -98.54,98.55 0,54.36 44.2,98.57 98.54,98.57 2.76,0 5,-2.24 5,-5 l 0,-71.03 c 0,-2.75 -2.24,-5 -5,-5 -2.76,0 -5,2.25 -5,5 l 0,65.89 c -46.51,-2.6 -83.54,-41.27 -83.54,-88.43 0,-48.83 39.73,-88.56 88.54,-88.56 2.76,0 5,-2.24 5,-5 0,-2.76 -2.24,-4.99 -5,-4.99"
                 id="path7960"
                 style="fill:#38a6e3;fill-opacity:1;fill-rule:nonzero;stroke:none" /><path
                 d="m 5812.68,8186.88 c -16.98,0 -30.79,-13.81 -30.79,-30.79 0,-16.96 13.81,-30.77 30.79,-30.77 13.37,0 66.94,19.24 97.38,30.77 -30.44,11.54 -84.01,30.79 -97.38,30.79 z m 0,-71.56 c -22.48,0 -40.79,18.29 -40.79,40.77 0,22.49 18.31,40.79 40.79,40.79 20.11,0 103.67,-32.43 113.13,-36.13 1.92,-0.75 3.18,-2.6 3.18,-4.66 0,-2.06 -1.26,-3.9 -3.18,-4.66 -9.46,-3.69 -93.02,-36.11 -113.13,-36.11"
                 id="path7962"
                 style="fill:#38a6e3;fill-opacity:1;fill-rule:nonzero;stroke:none" /><path
                 d="m 5859.47,8122.97 c -32.8,0 -59.49,-26.69 -59.49,-59.49 0,-32.82 26.69,-59.52 59.49,-59.52 32.82,0 59.52,26.7 59.52,59.52 0,32.8 -26.7,59.49 -59.52,59.49 z m 0,-129.01 c -38.32,0 -69.49,31.18 -69.49,69.52 0,38.32 31.17,69.49 69.49,69.49 38.34,0 69.52,-31.17 69.52,-69.49 0,-38.34 -31.18,-69.52 -69.52,-69.52"
                 id="path7964"
                 style="fill:#38a6e3;fill-opacity:1;fill-rule:nonzero;stroke:none" /><path
                 d="m 5988.71,8066.45 -64.72,0 c -2.76,0 -5,2.23 -5,4.99 0,2.76 2.24,5 5,5 l 59.72,0 0,52.65 -110.82,0 c -2.75,0 -5,2.24 -5,5 0,2.75 2.25,5 5,5 l 115.82,0 c 2.76,0 5,-2.25 5,-5 l 0,-62.65 c 0,-2.76 -2.24,-4.99 -5,-4.99"
                 id="path7966"
                 style="fill:#38a6e3;fill-opacity:1;fill-rule:nonzero;stroke:none" /><path
                 d="m 5836.21,8215.57 -41.23,0 c -2.75,0 -5,2.23 -5,5 0,2.75 2.25,4.99 5,4.99 l 33.16,0 c -4.6,7.3 -14.52,17.99 -33.08,17.99 -2.76,0 -5,2.24 -5,5 0,2.76 2.24,5 5,5 34.88,0 45.78,-31.07 45.9,-31.39 0.5,-1.52 0.25,-3.2 -0.69,-4.52 -0.93,-1.3 -2.45,-2.07 -4.06,-2.07"
                 id="path7968"
                 style="fill:#38a6e3;fill-opacity:1;fill-rule:nonzero;stroke:none" /><path
                 d="m 5765.02,7879.1 c -2.75,0 -5,2.23 -5,4.99 l 0,189.73 c 0,2.76 2.25,5 5,5 2.76,0 5,-2.24 5,-5 l 0,-189.73 c 0,-2.76 -2.24,-4.99 -5,-4.99"
                 id="path7970"
                 style="fill:#38a6e3;fill-opacity:1;fill-rule:nonzero;stroke:none" /><path
                 d="m 5829.67,7879.1 c -2.76,0 -5,2.23 -5,4.99 l 0,122.19 c 0,2.76 2.24,5 5,5 2.75,0 5,-2.24 5,-5 l 0,-122.19 c 0,-2.76 -2.25,-4.99 -5,-4.99"
                 id="path7972"
                 style="fill:#38a6e3;fill-opacity:1;fill-rule:nonzero;stroke:none" /><path
                 d="m 5797.34,7846.78 c -20.56,0 -37.32,16.74 -37.32,37.31 0,2.77 2.25,5 5,5 2.76,0 5,-2.23 5,-5 0,-15.06 12.27,-27.31 27.32,-27.31 15.07,0 27.33,12.25 27.33,27.31 0,2.77 2.24,5 5,5 2.75,0 5,-2.23 5,-5 0,-20.57 -16.74,-37.31 -37.33,-37.31"
                 id="path7974"
                 style="fill:#38a6e3;fill-opacity:1;fill-rule:nonzero;stroke:none" /><path
                 d="m 5953.67,7879.1 c -2.75,0 -5,2.23 -5,4.99 l 0,187.35 c 0,2.76 2.25,5 5,5 2.77,0 5,-2.24 5,-5 l 0,-187.35 c 0,-2.76 -2.23,-4.99 -5,-4.99"
                 id="path7976"
                 style="fill:#38a6e3;fill-opacity:1;fill-rule:nonzero;stroke:none" /><path
                 d="m 5889.06,7879.1 c -2.75,0 -5,2.23 -5,4.99 l 0,122.19 c 0,2.76 2.25,5 5,5 2.77,0 5,-2.24 5,-5 l 0,-122.19 c 0,-2.76 -2.23,-4.99 -5,-4.99"
                 id="path7978"
                 style="fill:#38a6e3;fill-opacity:1;fill-rule:nonzero;stroke:none" /><path
                 d="m 5921.37,7846.78 c -20.57,0 -37.31,16.74 -37.31,37.31 0,2.77 2.25,5 5,5 2.77,0 5,-2.23 5,-5 0,-15.06 12.26,-27.31 27.31,-27.31 15.06,0 27.3,12.25 27.3,27.31 0,2.77 2.25,5 5,5 2.77,0 5,-2.23 5,-5 0,-20.57 -16.74,-37.31 -37.3,-37.31"
                 id="path7980"
                 style="fill:#38a6e3;fill-opacity:1;fill-rule:nonzero;stroke:none" /><path
                 d="m 5826.78,8030.21 -25.28,0 c -2.75,0 -5,2.24 -5,5 0,2.76 2.25,5 5,5 l 25.28,0 c 12.81,0 23.24,10.44 23.24,23.27 0,12.81 -10.43,23.24 -23.24,23.24 l -25.3,0 c -2.75,0 -5,2.23 -5,5 0,2.76 2.25,4.99 5,4.99 l 25.3,0 c 18.33,0 33.24,-14.91 33.24,-33.23 0,-18.34 -14.91,-33.27 -33.24,-33.27"
                 id="path7982"
                 style="fill:#38a6e3;fill-opacity:1;fill-rule:nonzero;stroke:none" /><path
                 d="m 5891.38,8056.56 c -3.82,0 -6.92,3.1 -6.92,6.92 0,3.79 3.1,6.89 6.92,6.89 3.8,0 6.89,-3.1 6.89,-6.89 0,-3.82 -3.09,-6.92 -6.89,-6.92"
                 id="path7984"
                 style="fill:#38a6e3;fill-opacity:1;fill-rule:nonzero;stroke:none" /><path
                 d="m 5916.65,8030.21 -25.27,0 c -18.34,0 -33.26,14.93 -33.26,33.27 0,18.32 14.92,33.23 33.26,33.23 l 25.27,0 c 2.76,0 5,-2.23 5,-4.99 0,-2.77 -2.24,-5 -5,-5 l -25.27,0 c -12.83,0 -23.26,-10.43 -23.26,-23.24 0,-12.83 10.43,-23.27 23.26,-23.27 l 25.27,0 c 2.76,0 5,-2.24 5,-5 0,-2.76 -2.24,-5 -5,-5"
                 id="path7986"
                 style="fill:#38a6e3;fill-opacity:1;fill-rule:nonzero;stroke:none" /><path
                 d="m 5743.96,7697.69 c -1.99,0 -3.88,1.2 -4.64,3.17 -1.89,4.78 -45.8,117.77 -14.67,163.48 8.63,12.68 22.03,19.11 39.82,19.11 2.76,0 5,-2.25 5,-5 0,-2.76 -2.24,-5 -5,-5 -14.48,0 -24.8,-4.82 -31.56,-14.75 -28.18,-41.38 15.26,-153.06 15.7,-154.18 1.02,-2.57 -0.25,-5.47 -2.81,-6.48 -0.6,-0.24 -1.23,-0.35 -1.84,-0.35"
                 id="path7988"
                 style="fill:#38a6e3;fill-opacity:1;fill-rule:nonzero;stroke:none" /><path
                 d="m 5961.66,7658.59 c -0.69,0 -1.39,0.14 -2.07,0.45 -2.5,1.14 -3.61,4.1 -2.47,6.62 0.11,0.25 11.54,25.47 22.33,58.08 0.86,2.62 3.71,4.04 6.31,3.17 2.62,-0.87 4.04,-3.7 3.18,-6.32 -10.96,-33.14 -22.61,-58.82 -22.73,-59.08 -0.84,-1.84 -2.65,-2.92 -4.55,-2.92"
                 id="path7990"
                 style="fill:#38a6e3;fill-opacity:1;fill-rule:nonzero;stroke:none" /><path
                 d="m 5994.59,7752.45 c -0.41,0 -0.82,0.05 -1.23,0.16 -2.69,0.67 -4.3,3.39 -3.61,6.07 12.54,49.43 12.13,84.61 -1.2,101.77 -6.8,8.75 -16.91,13 -30.9,13 -2.77,0 -4.99,2.24 -4.99,5 0,2.75 2.22,5 4.99,5 17.05,0 30.1,-5.67 38.8,-16.86 15.51,-19.96 16.52,-57.09 2.97,-110.37 -0.57,-2.26 -2.6,-3.77 -4.83,-3.77"
                 id="path7992"
                 style="fill:#38a6e3;fill-opacity:1;fill-rule:nonzero;stroke:none" /><path
                 d="m 5889.06,7873.45 -59.39,0 c -2.76,0 -5,2.24 -5,5 0,2.75 2.24,5 5,5 l 59.39,0 c 2.77,0 5,-2.25 5,-5 0,-2.76 -2.23,-5 -5,-5"
                 id="path7994"
                 style="fill:#38a6e3;fill-opacity:1;fill-rule:nonzero;stroke:none" /><path
                 d="m 5763.13,8066.45 -92.47,0 c -2.76,0 -5,2.23 -5,4.99 0,2.76 2.24,5 5,5 l 92.47,0 c 2.76,0 5,-2.24 5,-5 0,-2.76 -2.24,-4.99 -5,-4.99"
                 id="path7996"
                 style="fill:#38a6e3;fill-opacity:1;fill-rule:nonzero;stroke:none" /><path
                 d="m 5670.66,8265.44 c -2.76,0 -5,2.24 -5,5 l 0,51.17 c 0,2.76 2.24,5 5,5 2.76,0 5,-2.24 5,-5 l 0,-51.17 c 0,-2.76 -2.24,-5 -5,-5"
                 id="path7998"
                 style="fill:#38a6e3;fill-opacity:1;fill-rule:nonzero;stroke:none" /><path
                 d="m 5957.03,8129.09 c -2.76,0 -5,2.24 -5,5 0,12.4 -0.49,24.69 -1.42,36.52 -0.22,2.75 1.83,5.17 4.59,5.38 2.81,0.24 5.15,-1.83 5.38,-4.58 0.96,-12.09 1.45,-24.65 1.45,-37.32 0,-2.76 -2.24,-5 -5,-5"
                 id="path8000"
                 style="fill:#38a6e3;fill-opacity:1;fill-rule:nonzero;stroke:none" /><path
                 d="m 5946.58,8224.73 c -2.26,0 -4.31,1.55 -4.86,3.85 -10.75,45.59 -29.98,85.17 -57.13,117.65 -1.78,2.11 -1.49,5.27 0.62,7.04 2.11,1.77 5.27,1.5 7.05,-0.63 28.17,-33.68 48.08,-74.65 59.2,-121.76 0.63,-2.69 -1.04,-5.38 -3.73,-6.02 -0.39,-0.09 -0.77,-0.13 -1.15,-0.13"
                 id="path8002"
                 style="fill:#38a6e3;fill-opacity:1;fill-rule:nonzero;stroke:none" /><path
                 d="m 5842.56,8387.27 c -1.02,0 -2.05,0.31 -2.93,0.95 -38.44,27.94 -72.31,35.79 -72.64,35.86 -2.69,0.61 -4.39,3.29 -3.79,5.98 0.62,2.69 3.27,4.4 5.98,3.78 1.46,-0.33 36.24,-8.39 76.33,-37.53 2.22,-1.62 2.72,-4.75 1.1,-6.98 -0.98,-1.35 -2.51,-2.06 -4.05,-2.06"
                 id="path8004"
                 style="fill:#38a6e3;fill-opacity:1;fill-rule:nonzero;stroke:none" /><path
                 d="m 6074.22,8015.09 c -2.77,0 -5,2.24 -5,5 l 0,223.8 c 0,21.1 17.17,38.28 38.26,38.28 21.11,0 38.29,-17.18 38.29,-38.28 0,-13.05 -6.55,-25.07 -17.51,-32.17 -2.32,-1.5 -5.41,-0.84 -6.91,1.49 -1.51,2.31 -0.84,5.41 1.48,6.91 8.11,5.24 12.94,14.13 12.94,23.77 0,15.59 -12.68,28.28 -28.29,28.28 -15.59,0 -28.27,-12.69 -28.27,-28.28 l 0,-223.8 c 0,-2.76 -2.24,-5 -4.99,-5"
                 id="path8006"
                 style="fill:#38a6e3;fill-opacity:1;fill-rule:nonzero;stroke:none" /><path
                 d="m 6196.01,7817.78 -97.2,0 c -2.77,0 -5,2.24 -5,4.99 0,2.77 2.23,5 5,5 l 97.2,0 c 2.76,0 5,-2.23 5,-5 0,-2.75 -2.24,-4.99 -5,-4.99"
                 id="path8008"
                 style="fill:#38a6e3;fill-opacity:1;fill-rule:nonzero;stroke:none" /><path
                 d="m 5953.58,8002.62 c -2.76,0 -5,2.24 -5,5 0,43.48 35.38,78.86 78.87,78.86 17.8,0 35.26,-6.1 49.15,-17.18 2.16,-1.72 2.51,-4.87 0.79,-7.03 -1.71,-2.15 -4.87,-2.51 -7.02,-0.79 -12.3,9.82 -27.15,15.01 -42.92,15.01 -37.98,0 -68.87,-30.9 -68.87,-68.87 0,-2.76 -2.23,-5 -5,-5"
                 id="path8010"
                 style="fill:#38a6e3;fill-opacity:1;fill-rule:nonzero;stroke:none" /><path
                 d="m 6148.62,7536.55 c -32.51,0 -89.2,50.1 -91.6,52.24 -1.06,0.94 -1.67,2.31 -1.67,3.73 l 0,101.94 c 0,2.75 2.24,5 5,5 2.76,0 5,-2.25 5,-5 l 0,-99.67 c 16.92,-14.74 60.25,-48.24 83.27,-48.24 23.06,0 66.39,33.5 83.31,48.24 l 0,99.67 c 0,2.75 2.25,5 5,5 2.76,0 5,-2.25 5,-5 l 0,-101.94 c 0,-1.42 -0.6,-2.79 -1.68,-3.73 -2.4,-2.14 -59.1,-52.24 -91.63,-52.24"
                 id="path8012"
                 style="fill:#38a6e3;fill-opacity:1;fill-rule:nonzero;stroke:none" /><path
                 d="m 6060.35,7689.46 c -2.76,0 -5,2.24 -5,5 l 0,161.33 c 0,1.76 0.92,3.38 2.41,4.29 1.51,0.92 3.37,0.97 4.93,0.13 0.79,-0.42 79.01,-43.01 79.01,-144.53 0,-2.76 -2.25,-5 -5,-5 -2.76,0 -5,2.24 -5,5 0,77.28 -47.72,118.05 -66.35,131.03 l 0,-152.25 c 0,-2.76 -2.24,-5 -5,-5"
                 id="path8014"
                 style="fill:#38a6e3;fill-opacity:1;fill-rule:nonzero;stroke:none" /><path
                 d="m 6059.3,7760.9 c -0.57,0 -1.16,0.1 -1.73,0.31 -1.55,0.58 -37.96,14.77 -37.96,77.29 0,69.25 90.73,119.43 94.59,121.53 1.23,0.68 2.67,0.8 4,0.35 1.31,-0.45 2.4,-1.43 2.96,-2.7 1.63,-3.66 39.47,-89.98 0.1,-138.07 -1.75,-2.13 -4.89,-2.46 -7.04,-0.7 -2.13,1.75 -2.44,4.89 -0.69,7.04 30.34,37.07 7.96,103.47 0.61,122.46 -18.62,-11.33 -84.53,-55.28 -84.53,-109.91 0,-55.15 30.18,-67.43 31.46,-67.93 2.56,-0.98 3.87,-3.86 2.89,-6.43 -0.76,-2 -2.65,-3.24 -4.66,-3.24"
                 id="path8016"
                 style="fill:#38a6e3;fill-opacity:1;fill-rule:nonzero;stroke:none" /><path
                 d="m 6073.5,8132.62 c -0.23,0 -0.45,0.01 -0.67,0.04 -1.19,0.16 -29.39,4.18 -48.24,32.46 -18.81,28.21 -8.16,74.02 -7.7,75.95 0.32,1.37 1.22,2.54 2.45,3.22 1.21,0.67 2.68,0.81 4.01,0.36 1.3,-0.44 32.08,-11.11 48.82,-39.37 7.4,-12.5 7.06,-28.95 7.04,-29.64 -0.07,-2.76 -2.3,-4.64 -5.12,-4.86 -2.76,0.06 -4.94,2.35 -4.87,5.11 0,0.15 0.25,14.31 -5.67,24.3 -10.91,18.45 -29.08,28.63 -38.04,32.76 -2.11,-12.65 -5.39,-43.12 7.4,-62.28 16.35,-24.55 40.99,-28.06 41.23,-28.09 2.74,-0.37 4.66,-2.87 4.3,-5.62 -0.33,-2.51 -2.48,-4.34 -4.94,-4.34"
                 id="path8018"
                 style="fill:#38a6e3;fill-opacity:1;fill-rule:nonzero;stroke:none" /><path
                 d="m 6011.78,8115.81 c -0.78,0 -1.58,0.19 -2.33,0.58 -2.44,1.29 -3.38,4.32 -2.09,6.76 0.51,0.96 12.89,23.56 49.26,23.56 2.76,0 5,-2.25 5,-5 0,-2.76 -2.24,-5 -5,-5 -30.41,0 -40.32,-18.06 -40.41,-18.24 -0.9,-1.69 -2.64,-2.66 -4.43,-2.66"
                 id="path8020"
                 style="fill:#38a6e3;fill-opacity:1;fill-rule:nonzero;stroke:none" /><path
                 d="m 6056.62,8094.91 c -36.37,0 -48.75,22.6 -49.26,23.56 -1.29,2.44 -0.35,5.47 2.09,6.76 2.43,1.29 5.44,0.36 6.74,-2.05 0.46,-0.84 10.45,-18.27 40.43,-18.27 9.79,0 16.6,1.29 16.66,1.3 2.72,0.5 5.33,-1.26 5.86,-3.96 0.53,-2.72 -1.25,-5.34 -3.95,-5.86 -0.31,-0.06 -7.75,-1.48 -18.57,-1.48"
                 id="path8022"
                 style="fill:#38a6e3;fill-opacity:1;fill-rule:nonzero;stroke:none" /><path
                 d="m 5802.91,8455.08 c -2.75,0 -5,2.23 -5,4.99 l 0,51.27 c 0,2.76 2.25,5 5,5 2.76,0 5,-2.24 5,-5 l 0,-51.27 c 0,-2.76 -2.24,-4.99 -5,-4.99"
                 id="path8024"
                 style="fill:#38a6e3;fill-opacity:1;fill-rule:nonzero;stroke:none" /><path
                 d="m 6084.55,8486.42 c -13.28,0 -24.09,-10.8 -24.09,-24.07 0,-13.28 10.81,-24.08 24.09,-24.08 13.27,0 24.08,10.8 24.08,24.08 0,13.27 -10.81,24.07 -24.08,24.07 z m 0,-58.15 c -18.81,0 -34.08,15.28 -34.08,34.08 0,18.78 15.27,34.07 34.08,34.07 18.79,0 34.08,-15.29 34.08,-34.07 0,-18.8 -15.29,-34.08 -34.08,-34.08"
                 id="path8026"
                 style="fill:#38a6e3;fill-opacity:1;fill-rule:nonzero;stroke:none" /><path
                 d="m 6055.47,8457.35 -39.48,0 c -2.77,0 -5,2.24 -5,5 0,2.76 2.23,5 5,5 l 39.48,0 c 2.75,0 4.99,-2.24 4.99,-5 0,-2.76 -2.24,-5 -4.99,-5"
                 id="path8028"
                 style="fill:#38a6e3;fill-opacity:1;fill-rule:nonzero;stroke:none" /><path
                 d="m 5993.56,6892.15 c -3.81,0 -6.91,3.09 -6.91,6.89 0,3.82 3.1,6.92 6.91,6.92 3.8,0 6.9,-3.1 6.9,-6.92 0,-3.8 -3.1,-6.89 -6.9,-6.89"
                 id="path8030"
                 style="fill:#38a6e3;fill-opacity:1;fill-rule:nonzero;stroke:none" /><path
                 d="m 5993.56,6923.14 c -13.27,0 -24.08,-10.82 -24.08,-24.1 0,-13.27 10.81,-24.07 24.08,-24.07 13.29,0 24.1,10.8 24.1,24.07 0,13.28 -10.81,24.1 -24.1,24.1 z m 0,-58.17 c -18.79,0 -34.08,15.29 -34.08,34.07 0,18.81 15.29,34.1 34.08,34.1 18.8,0 34.09,-15.29 34.09,-34.1 0,-18.78 -15.29,-34.07 -34.09,-34.07"
                 id="path8032"
                 style="fill:#38a6e3;fill-opacity:1;fill-rule:nonzero;stroke:none" /><path
                 d="m 6062.13,6894.04 -39.47,0 c -2.78,0 -5,2.24 -5,5 0,2.76 2.22,5 5,5 l 39.47,0 c 2.75,0 5,-2.24 5,-5 0,-2.76 -2.25,-5 -5,-5"
                 id="path8034"
                 style="fill:#38a6e3;fill-opacity:1;fill-rule:nonzero;stroke:none" /><path
                 d="m 5895.12,7391.15 c -1.47,0 -2.94,0.65 -3.93,1.9 -1.11,1.41 -27.28,35.1 -23.48,80.04 0.16,1.99 1.5,3.69 3.39,4.33 1.94,0.63 48.12,14.84 113.49,-69.01 1.7,-2.18 1.31,-5.32 -0.86,-7.02 -2.21,-1.7 -5.33,-1.31 -7.03,0.87 -50.88,65.26 -88.39,67.22 -99.28,66.19 -1.72,-39.17 21.38,-68.9 21.62,-69.2 1.71,-2.17 1.34,-5.32 -0.82,-7.03 -0.92,-0.72 -2.01,-1.07 -3.1,-1.07"
                 id="path8036"
                 style="fill:#38a6e3;fill-opacity:1;fill-rule:nonzero;stroke:none" /><path
                 d="m 6025.33,7391.15 c -0.94,0 -1.87,0.26 -2.72,0.81 -2.32,1.51 -2.96,4.6 -1.46,6.92 28.31,43.41 20.39,101.57 17.01,119.57 -11.21,-4.68 -37.38,-17.8 -47.55,-41.59 -16.66,-38.9 -10.51,-63.35 -10.45,-63.6 0.7,-2.66 -0.86,-5.4 -3.52,-6.12 -2.68,-0.71 -5.41,0.85 -6.12,3.5 -0.31,1.12 -7.27,27.76 10.89,70.16 14.88,34.74 57.13,48.6 58.92,49.18 1.3,0.43 2.74,0.27 3.95,-0.4 1.21,-0.67 2.08,-1.8 2.42,-3.15 0.79,-3.14 18.98,-77.58 -17.17,-133.01 -0.97,-1.48 -2.56,-2.27 -4.2,-2.27"
                 id="path8038"
                 style="fill:#38a6e3;fill-opacity:1;fill-rule:nonzero;stroke:none" /><path
                 d="m 5945.57,7438.21 c -2.23,0 -4.26,1.5 -4.85,3.75 -6.13,24.03 4.46,49.42 4.91,50.49 1.04,2.44 3.81,3.66 6.29,2.75 1.04,-0.37 25.54,-9.5 30.33,-41.77 0.41,-2.73 -1.49,-5.28 -4.22,-5.68 -2.79,-0.36 -5.28,1.48 -5.68,4.21 -2.74,18.57 -13.19,27.68 -19.3,31.51 -2.54,-8.01 -6.44,-24.15 -2.64,-39.02 0.69,-2.68 -0.92,-5.41 -3.59,-6.09 -0.42,-0.11 -0.84,-0.15 -1.25,-0.15"
                 id="path8040"
                 style="fill:#38a6e3;fill-opacity:1;fill-rule:nonzero;stroke:none" /><path
                 d="m 5932.75,7401.91 c -1.38,0 -2.77,0.57 -3.77,1.71 l -24.7,28.3 c -1.82,2.09 -1.6,5.25 0.49,7.06 2.09,1.81 5.23,1.6 7.05,-0.47 l 24.7,-28.32 c 1.82,-2.08 1.61,-5.23 -0.48,-7.06 -0.94,-0.82 -2.11,-1.22 -3.29,-1.22"
                 id="path8042"
                 style="fill:#38a6e3;fill-opacity:1;fill-rule:nonzero;stroke:none" /><path
                 d="m 6001.34,7400.34 c -0.46,0 -0.93,0.06 -1.4,0.19 -2.65,0.78 -4.18,3.55 -3.41,6.2 l 12.59,43.23 c 0.78,2.65 3.56,4.15 6.19,3.4 2.66,-0.77 4.18,-3.55 3.42,-6.19 l -12.6,-43.23 c -0.63,-2.19 -2.62,-3.6 -4.79,-3.6"
                 id="path8044"
                 style="fill:#38a6e3;fill-opacity:1;fill-rule:nonzero;stroke:none" /><path
                 d="m 5312.04,7410.53 c -0.11,-11 1.05,-38.67 14.32,-52.89 4.3,-4.62 9.44,-7.35 15.6,-8.27 l 0,59.5 c 0,0.26 0.01,0.52 0.06,0.77 -9.68,0.52 -19.66,0.82 -29.98,0.89 z m 275.91,-238.45 c -2.64,0 -4.84,2.06 -4.99,4.72 -8.45,149.9 -78.21,221.18 -231.01,232.21 0,-0.05 0,-0.09 0,-0.14 l 0,-64.86 c 0,-2.76 -2.22,-5 -4.99,-5 -11.22,0 -20.61,3.97 -27.93,11.82 -19.68,21.12 -16.94,63.28 -16.82,65.06 0.19,2.62 2.36,4.65 4.99,4.65 190.69,0 276.14,-72.72 285.75,-243.18 0.16,-2.76 -1.96,-5.11 -4.72,-5.27 -0.1,-0.01 -0.18,-0.01 -0.28,-0.01"
                 id="path8046"
                 style="fill:#38a6e3;fill-opacity:1;fill-rule:nonzero;stroke:none" /><path
                 d="m 5262.83,7308.35 c -0.72,0 -1.46,0.16 -2.16,0.49 -1.49,0.72 -36.63,18.02 -36.63,54.03 l 0,52.67 c 0,2.76 2.23,5 4.99,5 2.77,0 5,-2.24 5,-5 l 0,-52.67 c 0,-29.78 30.67,-44.86 30.97,-45.01 2.5,-1.2 3.54,-4.18 2.34,-6.67 -0.86,-1.79 -2.64,-2.84 -4.51,-2.84"
                 id="path8048"
                 style="fill:#38a6e3;fill-opacity:1;fill-rule:nonzero;stroke:none" /><path
                 d="m 5326.26,7275.07 -128.08,0 c -21.77,0 -35.86,24.44 -35.86,62.26 0,16.07 12.12,28.19 28.19,28.19 l 38.52,0 c 2.77,0 5,-2.24 5,-5 0,-2.76 -2.23,-5 -5,-5 l -38.52,0 c -10.54,0 -18.19,-7.65 -18.19,-18.19 0,-26.02 7.99,-52.26 25.86,-52.26 l 128.08,0 c 2.76,0 5,-2.24 5,-5 0,-2.76 -2.24,-5 -5,-5"
                 id="path8050"
                 style="fill:#38a6e3;fill-opacity:1;fill-rule:nonzero;stroke:none" /><path
                 d="m 5307.2,7078.4 c -2.82,0 -4.99,-0.75 -6.43,-2.24 -1.18,-1.24 -1.84,-3 -1.84,-4.94 0,-3.91 2.58,-8.11 8.27,-8.11 l 44.72,0 0,162.53 c 0,2.76 2.24,5 5,5 16.85,0 30.56,13.71 30.56,30.56 0,16.85 -13.71,30.56 -30.56,30.56 -16.85,0 -30.57,-13.71 -30.57,-30.56 l 0,-178.19 c 0,-1.37 -0.57,-2.69 -1.56,-3.63 -1,-0.95 -2.31,-1.41 -3.72,-1.36 -0.03,0 -6.89,0.38 -13.87,0.38 z m 49.72,-25.28 -49.72,0 c -11.87,0 -18.27,9.32 -18.27,18.1 0,4.54 1.64,8.75 4.63,11.87 2.34,2.42 6.6,5.31 13.64,5.31 3.29,0 6.56,-0.08 9.15,-0.17 l 0,172.97 c 0,22.36 18.2,40.56 40.57,40.56 22.36,0 40.55,-18.2 40.55,-40.56 0,-20.67 -15.54,-37.78 -35.55,-40.25 l 0,-162.84 c 0,-2.75 -2.23,-4.99 -5,-4.99"
                 id="path8052"
                 style="fill:#38a6e3;fill-opacity:1;fill-rule:nonzero;stroke:none" /><path
                 d="m 5542.15,7053.12 -92.55,0 c -11.87,0 -18.27,9.32 -18.27,18.1 0,4.53 1.65,8.75 4.65,11.87 2.32,2.42 6.58,5.31 13.62,5.31 5.48,0 38.68,-0.23 53.84,-0.34 -10.08,25.3 -40.89,110.79 -14.41,151.19 9.34,14.24 24.58,21.46 45.31,21.46 2.75,0 5,-2.24 5,-5 0,-2.76 -2.25,-5 -5,-5 -17.39,0 -29.47,-5.54 -36.94,-16.94 -27.67,-42.22 17.66,-147.71 18.11,-148.77 0.68,-1.55 0.53,-3.34 -0.41,-4.75 -0.93,-1.41 -2.76,-2.14 -4.2,-2.24 0,0 -54.17,0.39 -61.3,0.39 -2.82,0 -4.99,-0.75 -6.42,-2.24 -1.19,-1.24 -1.85,-3 -1.85,-4.94 0,-3.91 2.6,-8.11 8.27,-8.11 l 92.55,0 c 2.75,0 5,-2.23 5,-5 0,-2.75 -2.25,-4.99 -5,-4.99"
                 id="path8054"
                 style="fill:#38a6e3;fill-opacity:1;fill-rule:nonzero;stroke:none" /><path
                 d="m 5510.93,7078.01 c -0.6,0 -1.2,0.1 -1.79,0.33 -46.27,17.74 -113.83,77.42 -146.77,146.59 -1.18,2.49 -0.12,5.47 2.38,6.66 2.5,1.17 5.46,0.12 6.66,-2.37 31.44,-66.02 97.83,-124.88 141.3,-141.54 2.58,-0.99 3.87,-3.88 2.9,-6.46 -0.77,-1.99 -2.67,-3.21 -4.68,-3.21"
                 id="path8056"
                 style="fill:#38a6e3;fill-opacity:1;fill-rule:nonzero;stroke:none" /><path
                 d="m 5167.32,7332.33 c -2.18,0 -4.19,1.45 -4.8,3.67 -0.74,2.65 0.81,5.4 3.47,6.15 0.16,0.05 16.65,4.86 19.62,19.37 0.55,2.71 3.16,4.48 5.9,3.9 2.71,-0.56 4.45,-3.2 3.9,-5.91 -4.22,-20.58 -25.84,-26.74 -26.76,-27 -0.45,-0.12 -0.89,-0.18 -1.33,-0.18"
                 id="path8058"
                 style="fill:#38a6e3;fill-opacity:1;fill-rule:nonzero;stroke:none" /><path
                 d="m 5123.87,7550.58 c -0.2,0 -0.39,0.01 -0.58,0.03 -80.72,9.19 -73.85,123.58 -73.76,124.74 0.1,1.53 0.92,2.94 2.21,3.81 1.28,0.86 2.87,1.07 4.35,0.59 1.7,-0.57 41.76,-14.24 58.74,-49.24 1.21,-2.48 0.17,-5.48 -2.31,-6.68 -2.5,-1.21 -5.48,-0.17 -6.68,2.31 -11.3,23.29 -35.07,36.35 -46.5,41.51 -0.01,-23.79 4.7,-100.24 65.08,-107.1 2.75,-0.32 4.72,-2.8 4.41,-5.53 -0.29,-2.56 -2.46,-4.44 -4.96,-4.44"
                 id="path8060"
                 style="fill:#38a6e3;fill-opacity:1;fill-rule:nonzero;stroke:none" /><path
                 d="m 5115.82,7579.57 c -0.8,0 -1.6,0.18 -2.34,0.58 -20.44,10.86 -33.44,37.28 -33.99,38.39 -1.21,2.49 -0.17,5.47 2.31,6.68 2.48,1.21 5.49,0.17 6.69,-2.31 0.12,-0.24 12.14,-24.62 29.67,-33.93 2.45,-1.29 3.36,-4.32 2.07,-6.75 -0.89,-1.7 -2.63,-2.66 -4.41,-2.66"
                 id="path8062"
                 style="fill:#38a6e3;fill-opacity:1;fill-rule:nonzero;stroke:none" /><path
                 d="m 5095.2,7469.23 c -0.38,0 -0.6,0.01 -0.7,0.01 -1.36,0.03 -2.62,0.6 -3.54,1.59 -0.92,0.99 -1.41,2.3 -1.34,3.65 2.72,56.72 34.79,74.14 36.16,74.85 2.42,1.29 5.46,0.34 6.74,-2.12 1.29,-2.44 0.34,-5.45 -2.09,-6.73 -1.18,-0.64 -26.43,-14.79 -30.45,-61.03 9.61,0.73 29.9,3.94 39.32,17.8 1.54,2.28 4.66,2.9 6.95,1.31 2.29,-1.54 2.87,-4.65 1.32,-6.94 -14.59,-21.48 -47.08,-22.39 -52.37,-22.39"
                 id="path8064"
                 style="fill:#38a6e3;fill-opacity:1;fill-rule:nonzero;stroke:none" /><path
                 d="m 5318.7,7108.91 c -0.24,0 -0.5,0.01 -0.74,0.05 -44.51,6.65 -69.03,38.49 -69.03,89.62 l 0,42.97 c 0,2.76 2.24,5 5,5 34.98,0 53.1,-11.71 69.55,-29.29 1.87,-2.02 1.77,-5.19 -0.24,-7.07 -2.02,-1.89 -5.19,-1.78 -7.08,0.23 -14.26,15.26 -29.05,25.02 -57.23,26.04 l 0,-37.88 c 0,-32.25 10.5,-72.25 60.5,-79.73 2.74,-0.41 4.61,-2.95 4.21,-5.69 -0.37,-2.48 -2.51,-4.25 -4.94,-4.25"
                 id="path8066"
                 style="fill:#38a6e3;fill-opacity:1;fill-rule:nonzero;stroke:none" /><path
                 d="m 5408.77,7106.86 c -0.04,0 -0.08,0 -0.13,0 -0.03,0 -18.79,0.5 -49.54,0.71 -2.76,0.01 -4.99,2.26 -4.97,5.03 0.01,2.75 2.26,4.96 5,4.96 l 0.03,0 c 16.43,-0.1 29.44,-0.3 38.04,-0.45 -9.17,10.06 -25.17,27.79 -41.85,47.02 -1.81,2.09 -1.58,5.24 0.5,7.05 2.09,1.79 5.24,1.58 7.06,-0.5 25.46,-29.34 49.3,-55.17 49.53,-55.43 1.37,-1.47 1.72,-3.62 0.89,-5.46 -0.81,-1.78 -2.6,-2.93 -4.56,-2.93"
                 id="path8068"
                 style="fill:#38a6e3;fill-opacity:1;fill-rule:nonzero;stroke:none" /><path
                 d="m 5221.2,7199.08 c -0.85,0 -1.69,0.21 -2.43,0.63 -1.29,0.71 -2.2,1.96 -2.48,3.4 -1.76,8.92 0.21,17.16 5.69,23.83 6.89,8.38 19.13,13.58 31.95,13.58 2.75,0 5,-2.23 5,-4.99 0,-2.77 -2.25,-5 -5,-5 -9.75,0 -19.26,-3.9 -24.22,-9.94 -2.42,-2.94 -3.75,-6.28 -4.01,-9.99 5.88,1.44 15.61,3.18 28.23,3.18 2.75,0 5,-2.24 5,-5 0,-2.76 -2.25,-4.99 -5,-4.99 -19.01,0 -30.85,-4.35 -30.98,-4.4 -0.56,-0.21 -1.15,-0.31 -1.75,-0.31"
                 id="path8070"
                 style="fill:#38a6e3;fill-opacity:1;fill-rule:nonzero;stroke:none" /><path
                 d="m 5249.86,7180.31 c -17.91,0 -26.5,15.28 -28.62,24.05 -0.64,2.68 1.01,5.36 3.67,6.01 2.67,0.65 5.38,-0.98 6.05,-3.65 0.48,-1.91 5.17,-18.63 22.26,-16.16 2.76,0.32 5.28,-1.52 5.67,-4.26 0.37,-2.74 -1.53,-5.27 -4.26,-5.65 -1.66,-0.23 -3.24,-0.34 -4.77,-0.34"
                 id="path8072"
                 style="fill:#38a6e3;fill-opacity:1;fill-rule:nonzero;stroke:none" /><path
                 d="m 5635.02,7440.19 c -1.35,-8.14 -2.01,-16.4 -2.01,-24.65 0,-70.92 48.71,-128.63 108.59,-128.63 59.88,0 108.6,57.71 108.6,128.63 0,8.37 -0.69,16.68 -2.02,24.78 l -35.04,-28.65 c -0.88,-0.73 -2.01,-1.13 -3.16,-1.13 l -137.81,0 c -1.18,0 -2.33,0.42 -3.22,1.17 l -33.93,28.48 z m 106.58,-163.28 c -65.39,0 -118.59,62.2 -118.59,138.63 0,11.77 1.29,23.55 3.83,35.03 0.38,1.7 1.62,3.09 3.28,3.65 1.66,0.55 3.47,0.21 4.82,-0.91 l 39.04,-32.77 134.22,0 40.12,32.81 c 1.35,1.11 3.15,1.43 4.81,0.86 1.64,-0.56 2.87,-1.94 3.24,-3.63 2.54,-11.35 3.83,-23.13 3.83,-35.04 0,-76.43 -53.21,-138.63 -118.6,-138.63"
                 id="path8074"
                 style="fill:#38a6e3;fill-opacity:1;fill-rule:nonzero;stroke:none" /><path
                 d="m 5662.64,7314.49 c -2.76,0 -5,2.23 -5,4.99 0,2.77 2.24,5 5,5 19.29,0 32.65,12.77 40.48,23.48 15.72,21.54 21.68,52.1 17.21,66.06 -0.84,2.62 0.61,5.44 3.24,6.29 2.66,0.86 5.44,-0.62 6.29,-3.25 6.07,-18.94 -2.3,-52.58 -18.67,-75 -13.16,-18.04 -29.96,-27.57 -48.55,-27.57"
                 id="path8076"
                 style="fill:#38a6e3;fill-opacity:1;fill-rule:nonzero;stroke:none" /><path
                 d="m 6081.22,7239.95 -396.34,0 c -23.86,0 -34.74,12.78 -34.74,24.67 0,10.27 10.43,23.58 30.99,39.55 2.21,1.71 5.33,1.3 7.02,-0.88 1.69,-2.18 1.3,-5.32 -0.88,-7.01 -25.18,-19.56 -27.13,-29.18 -27.13,-31.66 0,-7.07 7.74,-14.67 24.74,-14.67 l 396.34,0 c 10.85,0 22.53,5.45 22.53,17.42 0,83.26 -51.63,132.97 -138.11,132.97 -31,0 -69.76,-7.28 -112.08,-21.05 -2.59,-0.86 -5.43,0.58 -6.29,3.21 -0.86,2.63 0.58,5.45 3.2,6.3 43.3,14.09 83.12,21.54 115.17,21.54 92.74,0 148.11,-53.45 148.11,-142.97 0,-18.01 -16.37,-27.42 -32.53,-27.42"
                 id="path8078"
                 style="fill:#38a6e3;fill-opacity:1;fill-rule:nonzero;stroke:none" /><path
                 d="m 5971.38,7239.95 c -2.77,0 -5,2.24 -5,5 0,18.07 9.71,28.85 26,28.85 l 16.37,0 c -17.5,11.41 -42.49,32.3 -42.49,58.5 0,23.24 10.65,40.19 30.01,47.73 2.6,0.98 5.48,-0.27 6.48,-2.84 1,-2.57 -0.27,-5.47 -2.84,-6.47 -15.48,-6.04 -23.65,-19.32 -23.65,-38.42 0,-33.22 52.86,-58.73 53.4,-58.99 2.12,-1 3.24,-3.34 2.72,-5.62 -0.5,-2.28 -2.54,-3.89 -4.87,-3.89 l -35.13,0 c -10.62,0 -16,-6.34 -16,-18.85 0,-2.76 -2.24,-5 -5,-5"
                 id="path8080"
                 style="fill:#38a6e3;fill-opacity:1;fill-rule:nonzero;stroke:none" /><path
                 d="m 5900.3,6993.1 c -15.02,0 -22.88,8.86 -22.88,17.61 0,8.33 7.17,17.28 22.88,17.28 l 184.33,0 c 2.75,0 5,-2.23 5,-4.99 0,-2.77 -2.25,-5 -5,-5 l -184.33,0 c -8.85,0 -12.88,-3.78 -12.88,-7.29 0,-3.78 4.43,-7.61 12.88,-7.61 2.77,0 5,-2.24 5,-5 0,-2.75 -2.23,-5 -5,-5"
                 id="path8082"
                 style="fill:#38a6e3;fill-opacity:1;fill-rule:nonzero;stroke:none" /><path
                 d="m 5901.45,7056.51 c -2.13,0 -4.11,1.38 -4.77,3.53 -0.82,2.63 0.66,5.42 3.29,6.25 0.58,0.18 14.15,4.55 13.04,15.43 -0.29,2.74 1.72,5.2 4.46,5.48 2.8,0.22 5.21,-1.73 5.48,-4.47 1.56,-15.26 -12.43,-23.68 -20.05,-26 -0.48,-0.15 -0.98,-0.22 -1.45,-0.22"
                 id="path8084"
                 style="fill:#38a6e3;fill-opacity:1;fill-rule:nonzero;stroke:none" /><path
                 d="m 6047.93,7062.02 c -24.61,0 -50.07,15.28 -51.13,15.93 -2.37,1.43 -3.12,4.51 -1.68,6.86 1.42,2.37 4.49,3.13 6.85,1.69 0.24,-0.14 24.18,-14.48 45.96,-14.48 43.82,0 66.97,25.69 66.97,74.3 0,2.76 2.25,5 5,5 2.77,0 5,-2.24 5,-5 0,-53.57 -28.04,-84.3 -76.97,-84.3"
                 id="path8086"
                 style="fill:#38a6e3;fill-opacity:1;fill-rule:nonzero;stroke:none" /><path
                 d="m 6047.47,7144.89 c -2.76,0 -4.99,2.24 -4.99,5 l 0,57.59 c 0,2.76 2.23,5 4.99,5 9.89,0 17.78,-3.46 23.43,-10.29 14.29,-17.3 8.15,-50.35 7.89,-51.75 -0.53,-2.71 -3.15,-4.48 -5.85,-3.97 -2.71,0.52 -4.48,3.14 -3.98,5.85 0.06,0.3 5.51,29.85 -5.79,43.51 -2.74,3.31 -6.27,5.37 -10.7,6.21 l 0,-52.15 c 0,-2.76 -2.24,-5 -5,-5"
                 id="path8088"
                 style="fill:#38a6e3;fill-opacity:1;fill-rule:nonzero;stroke:none" /><path
                 d="m 6124.28,7140.15 c -0.3,0 -0.59,0.02 -0.88,0.08 -2.72,0.48 -4.53,3.08 -4.04,5.8 1.73,9.74 3.96,37.72 -6.39,50.08 -2.56,3.07 -5.75,5.01 -9.67,5.86 l 0,-52.08 c 0,-2.76 -2.25,-5 -5,-5 -2.76,0 -5,2.24 -5,5 l 0,57.59 c 0,2.76 2.24,5 5,5 9.3,0 16.82,-3.35 22.35,-9.96 15.46,-18.48 8.84,-56.64 8.55,-58.26 -0.44,-2.42 -2.55,-4.11 -4.92,-4.11"
                 id="path8090"
                 style="fill:#38a6e3;fill-opacity:1;fill-rule:nonzero;stroke:none" /><path
                 d="m 6178.44,6993.1 -52.58,0 c -2.76,0 -5,2.25 -5,5 0,2.76 2.24,5 5,5 l 47.48,0 c -1.83,48.94 -29.3,119.56 -34.26,131.93 -6.48,2.64 -30.35,11.38 -61.79,11.38 -34.71,0 -63.21,-6.53 -72.91,-9.05 l 0,-55.13 c 0,-2.77 -2.23,-5 -5,-5 l -93.77,0 c -1.78,-8.9 -3.7,-33 22.18,-50.06 2.31,-1.52 2.95,-4.62 1.43,-6.93 -1.51,-2.3 -4.61,-2.96 -6.93,-1.42 -38.15,25.15 -25.43,64.6 -25.31,65 0.69,2.03 2.59,3.4 4.74,3.4 l 92.66,0 0,53.96 c 0,2.2 1.45,4.15 3.57,4.78 1.41,0.43 35.1,10.45 79.34,10.45 39.17,0 66.61,-12.52 67.75,-13.05 1.15,-0.53 2.04,-1.47 2.52,-2.62 1.46,-3.54 35.88,-87.25 35.88,-142.64 0,-2.75 -2.23,-5 -5,-5"
                 id="path8092"
                 style="fill:#38a6e3;fill-opacity:1;fill-rule:nonzero;stroke:none" /><path
                 d="m 6082.52,6993.1 -342.79,0 c -2.76,0 -5,2.25 -5,5 0,2.76 2.24,5 5,5 l 342.79,0 c 2.76,0 5,-2.24 5,-5 0,-2.75 -2.24,-5 -5,-5"
                 id="path8094"
                 style="fill:#38a6e3;fill-opacity:1;fill-rule:nonzero;stroke:none" /><path
                 d="m 5826.25,6993.1 c -2.75,0 -5,2.25 -5,5 0,2.76 2.25,5 5,5 13.18,0 19.18,8.82 19.18,17.02 0,8.08 -5.93,16.22 -19.18,16.22 l -108.22,0 c -2.29,0 -4.28,1.55 -4.85,3.77 -0.56,2.21 0.45,4.53 2.46,5.62 0.61,0.33 61.06,33.82 61.06,81.29 0,36.34 -31.15,75.46 -99.55,75.46 -39.32,0 -70.29,-12.71 -92.03,-37.78 -44.76,-51.61 -38.5,-141.03 -36.37,-161.6 l 16.37,0 c 2.75,0 5,-2.24 5,-5 0,-2.75 -2.25,-5 -5,-5 l -20.82,0 c -2.49,0 -4.6,1.84 -4.94,4.3 -0.67,4.55 -15.31,112.16 38.2,173.85 23.73,27.36 57.23,41.23 99.59,41.23 75.27,0 109.55,-44.3 109.55,-85.46 0,-37.95 -32.07,-66.69 -51.62,-80.68 l 91.17,0 c 20.06,0 29.18,-13.59 29.18,-26.22 0,-13.43 -10.02,-27.02 -29.18,-27.02"
                 id="path8096"
                 style="fill:#38a6e3;fill-opacity:1;fill-rule:nonzero;stroke:none" /><path
                 d="m 5799.79,6867.58 -201.51,0 c -57.38,0 -104.06,46.68 -104.06,104.06 0,34.44 17.04,66.61 45.6,86.04 2.27,1.57 5.39,0.97 6.95,-1.32 1.55,-2.28 0.96,-5.39 -1.32,-6.95 -25.82,-17.57 -41.24,-46.64 -41.24,-77.77 0,-51.86 42.2,-94.06 94.07,-94.06 l 201.51,0 c 71.89,0 86.97,49.85 87.57,51.98 0.88,3.14 0.49,6.45 -1.13,9.32 -1.61,2.86 -4.24,4.92 -7.39,5.8 -6.55,1.83 -13.33,-1.97 -15.17,-8.51 -0.05,-0.19 -10.02,-34 -63.88,-34 l -201.51,0 c -38.31,0 -69.47,31.16 -69.47,69.47 0,12.94 3.59,25.57 10.39,36.54 1.46,2.35 4.55,3.05 6.89,1.61 2.35,-1.46 3.07,-4.54 1.61,-6.89 -5.82,-9.38 -8.9,-20.19 -8.9,-31.26 0,-32.79 26.69,-59.47 59.48,-59.47 l 201.51,0 c 45.52,0 53.92,25.67 54.26,26.76 3.33,11.79 15.68,18.72 27.48,15.38 5.72,-1.59 10.48,-5.33 13.41,-10.52 2.93,-5.2 3.65,-11.22 2.05,-16.95 -0.7,-2.45 -17.85,-59.26 -97.2,-59.26"
                 id="path8098"
                 style="fill:#38a6e3;fill-opacity:1;fill-rule:nonzero;stroke:none" /><path
                 d="m 5826.76,6905.8 c -1.47,0 -2.92,0.64 -3.91,1.88 -0.97,1.21 -98.03,121.59 -177.95,121.59 -79.86,0 -91.78,-61.46 -91.78,-98.08 0,-2.76 -2.24,-5 -4.99,-5 -2.78,0 -5,2.24 -5,5 0,32.49 9.91,108.07 101.77,108.07 84.74,0 181.68,-120.23 185.76,-125.34 1.72,-2.16 1.37,-5.31 -0.79,-7.03 -0.91,-0.73 -2.02,-1.09 -3.11,-1.09"
                 id="path8100"
                 style="fill:#38a6e3;fill-opacity:1;fill-rule:nonzero;stroke:none" /><path
                 d="m 5724.06,6921.03 c -13.17,0 -23.88,10.71 -23.88,23.87 0,13.17 10.71,23.86 23.88,23.86 6.31,0 12.25,-2.42 16.72,-6.84 1.96,-1.94 1.99,-5.1 0.05,-7.07 -1.94,-1.96 -5.11,-1.98 -7.07,-0.05 -2.59,2.56 -6.05,3.97 -9.7,3.97 -7.65,0 -13.88,-6.23 -13.88,-13.87 0,-9.12 9.66,-16.1 18.22,-13.15 2.62,0.89 5.45,-0.53 6.33,-3.15 0.89,-2.61 -0.52,-5.45 -3.14,-6.34 -2.42,-0.81 -4.95,-1.23 -7.53,-1.23"
                 id="path8102"
                 style="fill:#38a6e3;fill-opacity:1;fill-rule:nonzero;stroke:none" /><path
                 d="m 5730.88,6902.17 c -2.44,0 -4.57,1.78 -4.94,4.27 -1.08,7.24 -1.25,13.96 -0.54,21.15 0.26,2.75 2.63,4.8 5.46,4.48 2.75,-0.27 4.77,-2.72 4.49,-5.46 -0.62,-6.35 -0.47,-12.29 0.48,-18.71 0.4,-2.72 -1.48,-5.27 -4.21,-5.67 -0.25,-0.04 -0.51,-0.06 -0.74,-0.06"
                 id="path8104"
                 style="fill:#38a6e3;fill-opacity:1;fill-rule:nonzero;stroke:none" /><path
                 d="m 5738.38,6952.65 c -0.67,0 -1.34,0.13 -1.98,0.41 -2.53,1.09 -3.7,4.03 -2.61,6.57 5.24,12.17 11.66,21.49 16.13,27.18 1.68,2.16 4.83,2.55 7.01,0.84 2.17,-1.7 2.56,-4.84 0.84,-7.02 -4.08,-5.22 -9.98,-13.78 -14.8,-24.96 -0.82,-1.9 -2.66,-3.02 -4.59,-3.02"
                 id="path8106"
                 style="fill:#38a6e3;fill-opacity:1;fill-rule:nonzero;stroke:none" /><path
                 d="m 5578.44,7159.5 c -1.07,0 -2.13,0.33 -3.03,1.02 -2.2,1.67 -2.63,4.81 -0.96,7.01 31.19,40.96 86.31,82.42 131.31,82.42 2.76,0 5,-2.25 5,-5 0,-2.76 -2.24,-5 -5,-5 -41.76,0 -93.65,-39.48 -123.35,-78.49 -0.98,-1.28 -2.47,-1.96 -3.97,-1.96"
                 id="path8108"
                 style="fill:#38a6e3;fill-opacity:1;fill-rule:nonzero;stroke:none" /><path
                 d="m 6254.77,6807.47 c -47.33,0 -90.94,18.31 -122.82,51.53 -31.36,32.68 -48.64,76.86 -48.64,124.39 0,50.36 17.59,67.82 22.99,71.97 4.71,3.64 10.58,5.19 16.45,4.47 5.91,-0.76 11.18,-3.78 14.81,-8.5 7.13,-9.22 5.9,-22.51 -2.8,-30.26 l 0.01,0 c 0.08,0 -6.88,-9.39 -6.88,-37.68 0,-74.85 54.54,-131.3 126.88,-131.3 35.66,0 69.06,13.58 94.06,38.25 23.98,23.61 37.63,54.92 38.75,88.57 l -18.75,2.01 c -2.75,0.29 -4.73,2.76 -4.44,5.5 0.29,2.75 2.78,4.85 5.5,4.44 l 23.29,-2.5 c 2.55,-0.27 4.48,-2.41 4.48,-4.97 0,-38.04 -14.85,-73.62 -41.8,-100.17 -26.9,-26.53 -62.79,-41.13 -101.09,-41.13 -78.04,0 -136.88,60.75 -136.88,141.3 0,31.35 8.07,42.65 9.68,44.6 5.34,4.81 6,12.14 2.08,17.23 -2.01,2.61 -4.91,4.27 -8.17,4.69 -3.25,0.4 -6.48,-0.46 -9.08,-2.47 -3.2,-2.46 -19.1,-17.08 -19.1,-64.05 0,-44.94 16.3,-86.65 45.88,-117.46 29.96,-31.25 71.02,-48.46 115.59,-48.46 44.78,0 86.81,17.13 118.36,48.24 31.67,31.21 49.12,73.01 49.12,117.68 0,29.04 -14.54,40.88 -50.18,40.88 -2.75,0 -5,2.23 -5,5 0,2.76 2.25,4.99 5,4.99 25.84,0 60.18,-5.27 60.18,-50.87 0,-47.37 -18.5,-91.7 -52.1,-124.81 -33.43,-32.96 -77.96,-51.11 -125.38,-51.11"
                 id="path8110"
                 style="fill:#38a6e3;fill-opacity:1;fill-rule:nonzero;stroke:none" /><path
                 d="m 6178.46,6993.1 c -0.08,0 -0.16,0 -0.24,0.01 -2.75,0.12 -4.89,2.46 -4.76,5.21 0.06,1.53 6.05,153.52 -52.11,274.41 0,0.02 -1.35,2.79 -2.66,7.33 -2.94,10.12 -1.62,20.83 3.71,30.15 5.49,9.61 14.79,16.7 25.51,19.44 20.29,5.22 41.07,-5.56 48.4,-25.01 0.98,-2.58 -0.33,-5.47 -2.92,-6.44 -2.57,-0.96 -5.46,0.33 -6.44,2.92 -5.44,14.42 -21.5,22.72 -36.56,18.84 -8.1,-2.07 -15.16,-7.44 -19.31,-14.71 -3.97,-6.95 -4.97,-14.91 -2.79,-22.4 1.01,-3.47 2,-5.63 2.08,-5.8 59.26,-123.19 53.14,-277.63 53.07,-279.17 -0.12,-2.68 -2.34,-4.78 -4.98,-4.78"
                 id="path8112"
                 style="fill:#38a6e3;fill-opacity:1;fill-rule:nonzero;stroke:none" /><path
                 d="m 6123.38,7276.91 c -1.97,0 -3.83,1.17 -4.63,3.1 -59.79,145.16 -52.87,248.56 -43.43,297.26 0.52,2.72 3.16,4.48 5.86,3.96 2.71,-0.52 4.48,-3.14 3.96,-5.86 -9.23,-47.61 -15.92,-148.8 42.86,-291.55 1.04,-2.56 -0.17,-5.48 -2.73,-6.53 -0.62,-0.25 -1.27,-0.38 -1.89,-0.38"
                 id="path8114"
                 style="fill:#38a6e3;fill-opacity:1;fill-rule:nonzero;stroke:none" /><path
                 d="m 5481.84,6956.85 c -75.04,-0.01 -122.73,66.21 -123.24,66.93 -0.8,1.14 -1.09,2.55 -0.81,3.91 0.3,1.36 1.13,2.54 2.32,3.26 0.89,0.54 22.33,13 75.27,8.3 38.76,-3.48 72.92,-23.55 74.35,-24.4 2.37,-1.41 3.16,-4.48 1.75,-6.85 -1.41,-2.38 -4.47,-3.16 -6.85,-1.75 -0.33,0.19 -33.71,19.76 -70.14,23.03 -34.84,3.12 -55,-1.6 -63.84,-4.65 13.47,-16.17 60.98,-66.02 127.87,-56.6 2.74,0.32 5.26,-1.52 5.64,-4.26 0.39,-2.74 -1.52,-5.26 -4.25,-5.65 -6.18,-0.86 -12.21,-1.27 -18.07,-1.27"
                 id="path8116"
                 style="fill:#38a6e3;fill-opacity:1;fill-rule:nonzero;stroke:none" /><path
                 d="m 5500.37,6981.7 c -0.14,0 -0.25,0 -0.39,0.01 -45.53,3.55 -86.27,22.86 -87.97,23.68 -2.5,1.2 -3.55,4.18 -2.35,6.67 1.2,2.49 4.18,3.53 6.67,2.35 0.4,-0.19 40.82,-19.33 84.42,-22.73 2.76,-0.22 4.82,-2.62 4.6,-5.37 -0.2,-2.62 -2.39,-4.61 -4.98,-4.61"
                 id="path8118"
                 style="fill:#38a6e3;fill-opacity:1;fill-rule:nonzero;stroke:none" /><path
                 d="m 5928.06,6886.97 0,-14.39 c 0,-39.33 32,-71.34 71.32,-71.34 37.05,0 67.58,28.38 71.01,64.55 l -77.35,-22.94 c -2.14,-0.65 -4.49,0.24 -5.67,2.15 l -16.55,26.61 -8.85,-10.79 c -0.89,-1.09 -2.2,-1.75 -3.61,-1.82 -1.42,-0.15 -2.78,0.46 -3.79,1.46 l -26.51,26.51 z m 71.32,-95.73 c -44.84,0 -81.32,36.49 -81.32,81.34 l 0,26.46 c 0,2.02 1.22,3.85 3.09,4.62 1.86,0.77 4.02,0.35 5.44,-1.08 l 31.14,-31.15 9.78,11.92 c 1.03,1.24 2.59,2.04 4.19,1.82 1.61,-0.11 3.07,-0.98 3.93,-2.35 l 18.22,-29.3 80.45,23.85 c 1.52,0.46 3.14,0.16 4.4,-0.78 1.26,-0.95 2.01,-2.44 2.01,-4.01 0,-44.85 -36.48,-81.34 -81.33,-81.34"
                 id="path8120"
                 style="fill:#38a6e3;fill-opacity:1;fill-rule:nonzero;stroke:none" /><path
                 d="m 5895.28,6791.29 c -46.92,0 -87.33,27.34 -89.68,28.96 -1.24,0.85 -2.03,2.22 -2.14,3.71 -0.13,1.5 0.43,2.97 1.51,4.01 2.18,2.11 54.26,51.2 120.84,34.24 2.69,-0.68 4.3,-3.4 3.61,-6.08 -0.67,-2.67 -3.4,-4.32 -6.06,-3.61 -50.06,12.71 -92.4,-16.22 -106.48,-27.51 18.65,-10.89 80.23,-41.72 131.09,-8.36 2.3,1.51 5.41,0.88 6.91,-1.44 1.53,-2.3 0.88,-5.4 -1.42,-6.91 -19.07,-12.51 -39.16,-17.01 -58.18,-17.01"
                 id="path8122"
                 style="fill:#38a6e3;fill-opacity:1;fill-rule:nonzero;stroke:none" /><path
                 d="m 5935.21,6823.57 -63.09,0 c -2.76,0 -5,2.24 -5,5 0,2.76 2.24,5 5,5 l 63.09,0 c 2.76,0 5,-2.24 5,-5 0,-2.76 -2.24,-5 -5,-5"
                 id="path8124"
                 style="fill:#38a6e3;fill-opacity:1;fill-rule:nonzero;stroke:none" /><path
                 d="m 5578.75,7239.95 c -1.77,0 -3.48,0.94 -4.39,2.61 -1.31,2.42 -0.41,5.46 2,6.78 0.34,0.19 33.76,18.87 35.32,56.36 1.7,40.27 -27.91,78.43 -39.18,91.43 -24.57,-40.07 -22.64,-71.29 -22.62,-71.61 0.2,-2.75 -1.85,-5.15 -4.61,-5.36 -2.59,-0.23 -5.14,1.84 -5.37,4.6 -0.11,1.51 -2.52,37.61 27.74,83.33 0.82,1.26 2.17,2.08 3.67,2.22 1.48,0.18 2.99,-0.38 4.04,-1.46 1.99,-2.01 48.58,-49.85 46.32,-103.57 -1.79,-43.26 -38.96,-63.87 -40.54,-64.73 -0.76,-0.41 -1.58,-0.6 -2.38,-0.6"
                 id="path8126"
                 style="fill:#38a6e3;fill-opacity:1;fill-rule:nonzero;stroke:none" /><path
                 d="m 5568.97,7273.05 c -0.84,0 -1.68,0.21 -2.48,0.66 -2.39,1.37 -3.22,4.43 -1.84,6.83 13.6,23.73 8.87,67.38 8.82,67.82 -0.31,2.75 1.66,5.22 4.4,5.54 2.81,0.22 5.24,-1.67 5.54,-4.41 0.2,-1.92 5.14,-47.33 -10.09,-73.93 -0.93,-1.61 -2.62,-2.51 -4.35,-2.51"
                 id="path8128"
                 style="fill:#38a6e3;fill-opacity:1;fill-rule:nonzero;stroke:none" /><path
                 d="m 6021.09,6944.58 c -41.34,0 -84.55,14.9 -102.52,51.31 -1.22,2.48 -0.2,5.48 2.27,6.7 2.5,1.22 5.49,0.19 6.7,-2.28 18.34,-37.16 69.01,-49.08 110.47,-44.84 -1.96,7.8 -8.42,24.08 -29.57,38.5 -2.29,1.56 -2.87,4.67 -1.32,6.95 1.57,2.28 4.68,2.86 6.95,1.32 32.77,-22.36 34.68,-49.67 34.75,-50.82 0.14,-2.6 -1.73,-4.88 -4.31,-5.24 -7.62,-1.05 -15.49,-1.6 -23.42,-1.6"
                 id="path8130"
                 style="fill:#38a6e3;fill-opacity:1;fill-rule:nonzero;stroke:none" /><path
                 d="m 5506.02,7360.7 c -2.77,0 -5,2.24 -5,5 0,25.07 19.45,42.64 20.29,43.38 1.17,1.04 2.75,1.48 4.3,1.16 0.97,-0.2 23.94,-5.06 36.19,-28.76 1.27,-2.45 0.31,-5.47 -2.15,-6.74 -2.46,-1.26 -5.47,-0.29 -6.74,2.15 -7.93,15.37 -21.29,21.08 -26.82,22.87 -4.39,-4.67 -15.07,-17.7 -15.07,-34.06 0,-2.76 -2.25,-5 -5,-5"
                 id="path8132"
                 style="fill:#38a6e3;fill-opacity:1;fill-rule:nonzero;stroke:none" /><path
                 d="m 6079.3,7837.31 c -0.51,0 -1.02,0.08 -1.53,0.24 -2.63,0.85 -4.08,3.66 -3.23,6.29 l 19.5,60.65 c 0.84,2.62 3.68,4.05 6.29,3.23 2.64,-0.84 4.08,-3.66 3.23,-6.29 l -19.5,-60.65 c -0.68,-2.12 -2.64,-3.47 -4.76,-3.47"
                 id="path8134"
                 style="fill:#38a6e3;fill-opacity:1;fill-rule:nonzero;stroke:none" /><path
                 d="m 5418.52,7599.22 c -2.78,0 -5,2.24 -5,5 l 0,666.22 c 0,8.93 6.42,16.34 15.28,17.63 8.31,1.19 18.25,-3.36 22.06,-16.21 4.02,-13.56 20.06,-62.02 24.49,-75.37 l 138.46,0.05 c 4.42,13.35 20.47,61.8 24.47,75.37 3.83,12.86 13.81,17.42 22.1,16.19 8.86,-1.3 15.28,-8.7 15.28,-17.61 0,-2.76 -2.24,-5 -5,-5 -2.76,0 -5,2.24 -5,5 0,4.65 -3.37,7.22 -6.72,7.71 -3.84,0.57 -8.8,-1.55 -11.07,-9.14 -4.69,-15.85 -24.86,-76.52 -25.71,-79.1 -0.68,-2.04 -2.59,-3.42 -4.75,-3.42 l -145.67,-0.05 c -2.15,0 -4.06,1.38 -4.75,3.42 -0.84,2.58 -21.03,63.26 -25.72,79.11 -2.25,7.59 -7.19,9.74 -11.04,9.15 -3.34,-0.49 -6.72,-3.06 -6.72,-7.73 l 0,-666.22 c 0,-2.76 -2.24,-5 -4.99,-5"
                 id="path8136"
                 style="fill:#38a6e3;fill-opacity:1;fill-rule:nonzero;stroke:none" /><path
                 d="m 5529.84,8068.6 c -3.86,0 -4.6,-0.14 -4.6,-4.53 0,-12.38 10.19,-30.67 19.35,-30.67 9.14,0 19.32,18.29 19.32,30.67 0,4.39 -0.74,4.53 -4.59,4.53 -1.78,0 -3.74,-0.16 -5.86,-0.33 -5.52,-0.45 -12.23,-0.45 -17.75,0 -2.12,0.17 -4.09,0.33 -5.87,0.33 z m 14.75,-45.2 c -16.74,0 -29.34,24.67 -29.34,40.67 0,9.64 4.91,14.54 14.59,14.54 2.02,0 4.26,-0.18 6.68,-0.38 5.02,-0.41 11.11,-0.41 16.14,0.01 2.4,0.19 4.64,0.37 6.66,0.37 9.67,0 14.59,-4.9 14.59,-14.54 0,-16 -12.6,-40.67 -29.32,-40.67"
                 id="path8138"
                 style="fill:#38a6e3;fill-opacity:1;fill-rule:nonzero;stroke:none" /><path
                 d="m 5567.09,8013.25 c -8.22,0 -15.98,1.84 -20.9,4.88 -5.75,3.54 -6.6,7.95 -6.6,10.27 0,2.76 2.24,5 5,5 2.75,0 5,-2.24 5,-5 0,-0.17 0.43,-0.89 1.84,-1.76 6.64,-4.09 22.19,-4.93 32.28,0.16 2.46,1.23 5.47,0.24 6.71,-2.23 1.24,-2.46 0.24,-5.47 -2.22,-6.71 -6.37,-3.21 -13.92,-4.61 -21.11,-4.61"
                 id="path8140"
                 style="fill:#38a6e3;fill-opacity:1;fill-rule:nonzero;stroke:none" /><path
                 d="m 5522.07,8013.25 c -7.17,0 -14.73,1.4 -21.09,4.61 -2.48,1.24 -3.47,4.25 -2.23,6.71 1.25,2.47 4.24,3.47 6.72,2.23 10.07,-5.07 25.62,-4.25 32.26,-0.16 1.41,0.87 1.86,1.59 1.86,1.76 0,2.76 2.24,5 5,5 2.75,0 5,-2.24 5,-5 0,-2.32 -0.86,-6.73 -6.6,-10.27 -4.94,-3.04 -12.69,-4.88 -20.92,-4.88"
                 id="path8142"
                 style="fill:#38a6e3;fill-opacity:1;fill-rule:nonzero;stroke:none" /><path
                 d="m 5544.59,8005.53 c -9.26,0 -18.05,3.24 -24.12,8.9 -2.01,1.89 -2.13,5.05 -0.25,7.07 1.89,2.03 5.05,2.13 7.07,0.25 8.55,-7.98 26.36,-7.88 34.77,0.17 1.99,1.9 5.15,1.85 7.06,-0.15 1.92,-2 1.86,-5.16 -0.15,-7.07 -6.08,-5.83 -14.97,-9.17 -24.38,-9.17"
                 id="path8144"
                 style="fill:#38a6e3;fill-opacity:1;fill-rule:nonzero;stroke:none" /></g></g></g><g
           id="g10392"><path
             d="m 2898.5539,5754.3251 c 7.125,-4910.5079 3.8522,-4717.2107 3.8522,-4717.2107 m 234.1837,-311.44726 4340.082,6.00303"
             id="path8148"
             style="fill:none;stroke:#38a6e3;stroke-width:16;stroke-linecap:butt;stroke-linejoin:miter;stroke-miterlimit:4;stroke-opacity:1;stroke-dasharray:none" /><path
             d="M 52.093612,662.24867 A 29.659748,37.024918 0 0 1 22.74536,623.01967"
             transform="matrix(8,0,0,-8,2720.8851,6023.708)"
             id="path10390"
             style="fill:none;stroke:#38a6e3;stroke-width:2;stroke-miterlimit:4;stroke-opacity:1;stroke-dasharray:none" /></g></g></g></g></svg>