<?xml version="1.0" encoding="UTF-8" standalone="no"?>
<!-- Created with Inkscape (http://www.inkscape.org/) -->
<svg xmlns:rdf="http://www.w3.org/1999/02/22-rdf-syntax-ns#" xmlns="http://www.w3.org/2000/svg" version="1.1" xmlns:cc="http://creativecommons.org/ns#" xmlns:dc="http://purl.org/dc/elements/1.1/" viewBox="0 0 200 257">
 <metadata>
  <rdf:RDF>
   <cc:Work rdf:about="">
    <dc:format>image/svg+xml</dc:format>
    <dc:type rdf:resource="http://purl.org/dc/dcmitype/StillImage"/>
    <dc:title/>
   </cc:Work>
  </rdf:RDF>
 </metadata>
 <g fill-rule="nonzero" transform="translate(216.31209,-940.79899)" fill="#38a6e3">
  <path d="m-192.39,1161-11.727,0,0-20.984,3.466,0,0,17.787,5.8473,0,0-17.787,3.4384,0,0,17.817,1.9296,0,0,7.5075-2.9546,0,0-4.3408"/>
  <path d="m-186.22,1161,3.468,0,0-20.984-3.468,0,0,20.984z"/>
  <path d="m-173.16,1151c0,1.6667-0.085,3.1092-0.25625,4.3253-0.1712,1.2161-0.47384,2.2411-0.9057,3.075-0.43187,0.8339-1.0084,1.4978-1.733,1.9882-0.72456,0.4937-1.627,0.8504-2.7127,1.0702l-0.93553-2.6817c0.64394-0.2607,1.1829-0.5689,1.6148-0.9212,0.43187-0.3501,0.77758-0.7986,1.0382-1.3409,0.26067-0.5412,0.44843-1.2161,0.55889-2.0191,0.10934-0.8041,0.16457-1.8092,0.16457-3.0153v-11.456h11.336v20.984h-3.4074v-17.786h-4.7616v7.778"/>
  <path d="m-151.7,1146.3c0-0.2629-0.0453-0.5688-0.13475-0.9212-0.0917-0.3523-0.24631-0.6903-0.46832-1.0128-0.2209-0.3214-0.51802-0.5987-0.88914-0.8306-0.37222-0.2309-0.84937-0.3468-1.4326-0.3468-0.58208,0-1.0692,0.106-1.4602,0.3181-0.39321,0.2098-0.70468,0.4727-0.93553,0.7842-0.23305,0.3115-0.39762,0.6505-0.49703,1.0128-0.10272,0.3623-0.15132,0.7036-0.15132,1.0272l0.0309,8.0343c0,1.0062,0.23084,1.8523,0.69253,2.5371,0.4628,0.6859,1.2448,1.0272,2.3515,1.0272,0.78421,0,1.4613-0.2651,2.0356-0.7997,0.57325-0.5334,0.85821-1.2647,0.85821-2.1902v-8.6396zm3.4958,8.3447c0,1.004-0.15463,1.9086-0.46611,2.7116-0.31147,0.8052-0.75439,1.4933-1.3265,2.0665-0.57214,0.5722-1.2514,1.0084-2.0356,1.31-0.782,0.3015-1.6468,0.4528-2.5923,0.4528-1.1443,0-2.1284-0.1855-2.9546-0.5566-0.82287-0.3734-1.4911-0.8748-2.0047-1.5077-0.51139-0.634-0.88803-1.3674-1.131-2.2013-0.24078-0.8328-0.36007-1.7131-0.36007-2.6387v-7.9283c0-0.7433,0.11597-1.4955,0.34571-2.2598,0.23085-0.7644,0.60307-1.4569,1.1167-2.0798,0.51139-0.6241,1.1763-1.1355,1.9892-1.5386,0.81292-0.4021,1.8136-0.6031,2.9988-0.6031,1.1045,0,2.061,0.1911,2.8651,0.5721,0.80298,0.3833,1.4712,0.8803,2.0025,1.4944,0.53459,0.6131,0.92559,1.3056,1.1763,2.0799,0.25293,0.772,0.37664,1.5529,0.37664,2.3349v8.2917"/>
  <path d="m-133.51,1158,0-14.771-5.1835,0-0.24189,6.3002c-0.0409,0.9046-0.0795,1.7783-0.12039,2.6222-0.0409,0.8438-0.10603,1.628-0.1955,2.3515-0.0906,0.7235-0.21648,1.3806-0.37774,1.9749-0.16016,0.592-0.38106,1.1001-0.66382,1.522h6.7829zm-9.1344,7.3859-2.9833,0,0-7.144c0.26067-0.041,0.51139-0.086,0.75439-0.137,0.23968-0.049,0.49041-0.1049,0.75439-0.1645,0.4396-0.3811,0.78531-0.8229,1.0382-1.3266,0.25072-0.5025,0.45285-1.12,0.60307-1.8545,0.15132-0.7334,0.25735-1.5971,0.31589-2.5912,0.0619-0.9962,0.11045-2.1659,0.15132-3.5134l0.30153-8.5623h11.575c0,2.9955,0.007,5.981,0.0166,8.9533,0.01,2.9755,0.0144,5.961,0.0144,8.9543h1.659v7.3859h-2.9855v-4.3098h-11.215v4.3098"/>
  <path d="m-116.3,1146.3c0-0.2629-0.0464-0.5688-0.13696-0.9212-0.0895-0.3523-0.2463-0.6903-0.4661-1.0128-0.22201-0.3214-0.51802-0.5987-0.89025-0.8306-0.37112-0.2309-0.85048-0.3468-1.4326-0.3468-0.58319,0-1.0703,0.106-1.4613,0.3181-0.391,0.2098-0.70248,0.4727-0.93553,0.7842-0.22974,0.3115-0.39652,0.6505-0.49704,1.0128-0.0994,0.3623-0.15021,0.7036-0.15021,1.0272l0.0298,8.0343c0,1.0062,0.23085,1.8523,0.69364,2.5371,0.4628,0.6859,1.247,1.0272,2.3515,1.0272,0.78421,0,1.4624-0.2651,2.0356-0.7997,0.57214-0.5334,0.85931-1.2647,0.85931-2.1902v-8.6396zm3.4969,8.3447c0,1.004-0.15684,1.9086-0.46721,2.7116-0.31369,0.8052-0.75329,1.4933-1.3265,2.0665-0.57435,0.5722-1.2503,1.0084-2.0356,1.31-0.78422,0.3015-1.648,0.4528-2.5934,0.4528-1.1454,0-2.1295-0.1855-2.9524-0.5566-0.82508-0.3734-1.4933-0.8748-2.0058-1.5077-0.51361-0.634-0.89025-1.3674-1.131-2.2013-0.23968-0.8328-0.36229-1.7131-0.36229-2.6387v-7.9283c0-0.7433,0.11598-1.4955,0.34903-2.2598,0.22974-0.7644,0.60086-1.4569,1.1145-2.0798,0.5114-0.6241,1.1752-1.1355,1.9881-1.5386,0.81514-0.4021,1.8136-0.6031,2.9999-0.6031,1.1067,0,2.0599,0.1911,2.8651,0.5721,0.80298,0.3833,1.4712,0.8803,2.0047,1.4944,0.53238,0.6131,0.92338,1.3056,1.1752,2.0799,0.25073,0.772,0.37775,1.5529,0.37775,2.3349v8.2917"/>
  <path d="m-105.54,1157.8,2.8927,0c1.0659,0,1.8346-0.285,2.3074-0.8582,0.47273-0.5722,0.7091-1.353,0.7091-2.3372,0-0.9432-0.23637-1.6932-0.7091-2.2455-0.47274-0.5522-1.2514-0.8294-2.3372-0.8294h-2.8629v6.2703zm0-9.4646,3.0131,0c1.1067,0,2.0566,0.1546,2.8486,0.4661,0.79526,0.3114,1.4524,0.7378,1.9749,1.2812,0.52354,0.5423,0.91012,1.1907,1.1609,1.9451,0.25073,0.7533,0.37775,1.5828,0.37775,2.4874,0,2.1494-0.56883,3.7675-1.7032,4.8532-1.1354,1.0847-2.6785,1.6281-4.6279,1.6281h-6.5122v-20.984h11.156v3.1976h-7.6875v5.125"/>
  <path d="m-83.764,1146.3c0-0.2629-0.04639-0.5688-0.13586-0.9212-0.09057-0.3523-0.24741-0.6903-0.46721-1.0128-0.22201-0.3214-0.51692-0.5987-0.89024-0.8306-0.37112-0.2309-0.84938-0.3468-1.4326-0.3468-0.58319,0-1.0703,0.106-1.4613,0.3181-0.391,0.2098-0.70468,0.4727-0.93442,0.7842-0.23084,0.3115-0.39763,0.6505-0.49814,1.0128-0.09941,0.3623-0.15022,0.7036-0.15022,1.0272l0.03093,8.0343c0,1.0062,0.22974,1.8523,0.69254,2.5371,0.46169,0.6859,1.247,1.0272,2.3515,1.0272,0.78421,0,1.4624-0.2651,2.0356-0.7997,0.57214-0.5334,0.85932-1.2647,0.85932-2.1902v-8.6396zm3.4969,8.3447c0,1.004-0.15684,1.9086-0.46942,2.7116-0.31148,0.8052-0.75108,1.4933-1.3254,2.0665-0.57325,0.5722-1.2514,1.0084-2.0334,1.31-0.78531,0.3015-1.649,0.4528-2.5945,0.4528-1.1454,0-2.1295-0.1855-2.9546-0.5566-0.82287-0.3734-1.4922-0.8748-2.0025-1.5077-0.5136-0.634-0.89135-1.3674-1.131-2.2013-0.24299-0.8328-0.36339-1.7131-0.36339-2.6387v-7.9283c0-0.7433,0.11597-1.4955,0.34682-2.2598,0.23195-0.7644,0.60307-1.4569,1.1167-2.0798,0.51139-0.6241,1.1752-1.1355,1.9892-1.5386,0.81403-0.4021,1.8125-0.6031,2.9988-0.6031,1.1067,0,2.0599,0.1911,2.8651,0.5721,0.80299,0.3833,1.4712,0.8803,2.0047,1.4944,0.53128,0.6131,0.92338,1.3056,1.1763,2.0799,0.25073,0.772,0.37664,1.5529,0.37664,2.3349v8.2917"/>
  <path d="m-67.076,1154.6c0-0.8881-0.22201-1.606-0.66382-2.1494-0.44291-0.5457-1.1763-0.8196-2.2013-0.8196h-3.0131v6.1213h3.0441c0.54232,0,0.99407-0.082,1.3575-0.2419,0.36007-0.1613,0.65167-0.3899,0.87367-0.6826,0.2209-0.2916,0.37664-0.6296,0.46721-1.0151,0.09168-0.3832,0.13586-0.7864,0.13586-1.2127zm-0.30154-8.7269c0-0.8438-0.22643-1.5065-0.67818-1.9892-0.45285-0.4827-1.1818-0.7224-2.187-0.7224h-2.7116v5.4873h2.7425c0.98413,0,1.7032-0.2573,2.156-0.771,0.45175-0.5113,0.67818-1.1796,0.67818-2.0047zm3.6781,8.9246c0,2.0091-0.5379,3.5477-1.6137,4.6113-1.0736,1.0659-2.5161,1.5994-4.3264,1.5994h-6.7519v-20.984h6.4217c1.9892,0,3.4814,0.5136,4.4777,1.5386,0.99407,1.025,1.4911,2.4211,1.4911,4.1894,0,0.8848-0.18556,1.6999-0.55778,2.4432-0.37112,0.7434-1.0394,1.3365-2.0058,1.7783v0.1491c0.50366,0.1635,0.93553,0.3977,1.2978,0.7091,0.36118,0.3115,0.65609,0.6782,0.88914,1.1002,0.22974,0.4219,0.40094,0.8802,0.5125,1.3718,0.11045,0.4926,0.16568,0.9896,0.16568,1.4933"/>
  <path d="m-60.158,1161,0-20.984,3.4074,0,0,14.051c0.01988,0,0.03424,0,0.04418,0.013,0.01105,0.01,0.0254,0.014,0.04529,0.014,0.46279-0.8638,0.90129-1.7275,1.3122-2.5924,0.41199-0.8637,0.8295-1.7274,1.2514-2.5911,0.76433-1.4878,1.5154-2.9646,2.2621-4.4325,0.74113-1.4668,1.4856-2.9546,2.2289-4.4623h3.1965v20.984h-3.4373v-13.687h-0.06075c-0.34019,0.6627-0.68259,1.3376-1.025,2.0202-0.34019,0.6826-0.68259,1.3563-1.025,2.019l-4.9438,9.648h-3.2561"/>
  <path d="m-35.321,1138.7c-0.84384,0-1.5507-0.1502-2.1229-0.4518-0.57546-0.3015-1.0371-0.6726-1.3884-1.1144-0.35235-0.4429-0.60749-0.9256-0.76765-1.447-0.16125-0.5235-0.25293-1.004-0.27171-1.4469h2.5923c0.01987,0.2198,0.0751,0.4462,0.16567,0.6771,0.09057,0.2319,0.22091,0.4473,0.39211,0.6494,0.1701,0.2,0.37113,0.3668,0.60197,0.4971,0.23195,0.1303,0.49924,0.1955,0.79856,0.1955,0.32143,0,0.60308-0.065,0.84608-0.1955,0.23968-0.1303,0.44181-0.2971,0.60306-0.4971,0.16016-0.2021,0.28056-0.4175,0.36008-0.6494,0.08173-0.2309,0.1204-0.4573,0.1204-0.6771h2.5636c-0.04087,0.4429-0.14689,0.9234-0.31588,1.4469-0.17121,0.5214-0.42856,1.0041-0.77096,1.447-0.3413,0.4418-0.79194,0.8129-1.3552,1.1144-0.56441,0.3016-1.2459,0.4518-2.0511,0.4518zm-6.932,22.31,0-20.984,3.4063,0,0,14.051c0.01878,0,0.03534,0,0.04528,0.013,0.0099,0.01,0.0243,0.014,0.04418,0.014,0.4628-0.8638,0.89909-1.7275,1.3133-2.5924,0.40867-0.8637,0.82728-1.7274,1.2492-2.5911,0.76323-1.4878,1.5176-2.9646,2.261-4.4325,0.74444-1.4668,1.4878-2.9546,2.2311-4.4623h3.1954v20.984h-3.4351v-13.687h-0.06185c-0.3424,0.6627-0.68259,1.3376-1.025,2.0202-0.3424,0.6826-0.68259,1.3563-1.025,2.019l-4.9427,9.648h-3.2561"/>
  <path d="m-207,1190.9c0-0.888-0.22201-1.606-0.66382-2.1494-0.44291-0.5456-1.1763-0.8195-2.2013-0.8195h-3.0131v6.119h3.0441c0.54232,0,0.99407-0.08,1.3574-0.2397,0.36008-0.1634,0.65167-0.3899,0.87368-0.6826,0.2198-0.2938,0.37664-0.6317,0.46611-1.015,0.0928-0.3833,0.13696-0.7886,0.13696-1.2128zm-0.30154-8.7268c0-0.8438-0.22642-1.5066-0.67817-1.9892-0.45285-0.4827-1.1818-0.7235-2.187-0.7235h-2.7116v5.4862h2.7425c0.98413,0,1.7032-0.2552,2.156-0.7688,0.45175-0.5114,0.67817-1.1796,0.67817-2.0047zm3.6781,8.9245c0,2.0091-0.5379,3.5455-1.6137,4.6114-1.0736,1.0659-2.5161,1.5971-4.3264,1.5971h-6.7519v-20.981h6.4206c1.9904,0,3.4826,0.5136,4.4788,1.5386,0.99407,1.025,1.4911,2.4211,1.4911,4.1894,0,0.8847-0.18555,1.6999-0.55888,2.441-0.37002,0.7433-1.0382,1.3365-2.0047,1.7783v0.1513c0.50366,0.1613,0.93553,0.3976,1.2967,0.7091,0.36228,0.3115,0.65719,0.6782,0.89024,1.1001,0.22974,0.4219,0.40094,0.8803,0.5114,1.3718,0.11155,0.4926,0.16678,0.9897,0.16678,1.4933"/>
  <path d="m-200.08,1197.3,0-20.981,3.4074,0,0,14.048c0.0199,0,0.0342,0.01,0.0453,0.015,0.01,0.01,0.0232,0.014,0.0442,0.014,0.4628-0.8637,0.90019-1.7286,1.3122-2.5923,0.41198-0.8637,0.82949-1.7275,1.2514-2.5912,0.76433-1.4878,1.5154-2.9646,2.2598-4.4325,0.74334-1.4668,1.4878-2.9545,2.2311-4.4622h3.1965v20.982h-3.4373v-13.687h-0.0607c-0.34241,0.665-0.6826,1.3376-1.025,2.0224-0.3424,0.6826-0.68259,1.3553-1.025,2.0191l-4.9438,9.6458h-3.2561"/>
  <path d="m-182.17,1197.3,0-20.981,3.466,0,0,8.803,1.659,0c0.30153,0,0.613-0.039,0.93331-0.1204,0.32142-0.08,0.62848-0.2264,0.92007-0.4385,0.29159-0.2099,0.5622-0.5114,0.81293-0.9024,0.25072-0.3932,0.45727-0.9002,0.61742-1.5242l1.5386-5.7557h3.3158l-1.6281,6.1798c-0.26177,1.025-0.63179,1.8722-1.1156,2.547-0.48267,0.6727-1.0449,1.1211-1.6866,1.3409,0.84386,0.2806,1.4955,0.7599,1.9583,1.4326,0.46279,0.6715,0.81513,1.532,1.0559,2.5768l1.7474,6.8425h-3.5267l-1.4778-5.9677c-0.32142-1.2658-0.76323-2.1052-1.3254-2.5161-0.5633-0.412-1.2271-0.6196-1.9892-0.6196h-1.8092v9.1034h-3.466"/>
  <path d="m-159.89,1187.3c0,1.6678-0.0862,3.1114-0.25515,4.3253-0.1712,1.2172-0.47273,2.2411-0.9046,3.0772-0.43187,0.8328-1.0106,1.4955-1.7341,1.9881-0.72346,0.4937-1.6281,0.8494-2.7127,1.0703l-0.93443-2.684c0.64173-0.2607,1.1796-0.5666,1.6115-0.919,0.43187-0.3501,0.77979-0.7985,1.0416-1.3408,0.26067-0.5413,0.44623-1.2161,0.55778-2.0191,0.11046-0.8052,0.16458-1.8092,0.16458-3.0154v-11.456h11.336v20.981h-3.4064v-17.786h-4.7638v7.7781"/>
  <path d="m-147.43,1197.3,0-20.981,3.4063,0,0,14.048c0.021,0,0.0353,0.01,0.0453,0.015,0.01,0.01,0.0243,0.014,0.0453,0.014,0.46169-0.8637,0.90018-1.7286,1.3122-2.5923,0.41199-0.8637,0.8295-1.7275,1.2503-2.5912,0.76433-1.4878,1.5165-2.9646,2.261-4.4325,0.74334-1.4668,1.4867-2.9545,2.23-4.4622h3.1976v20.982h-3.4373v-13.687h-0.0618c-0.3413,0.665-0.6826,1.3376-1.0239,2.0224-0.34241,0.6826-0.6826,1.3553-1.025,2.0191l-4.9438,9.6458h-3.2561"/>
  <path d="m-129.53,1197.3,0-20.981,3.466,0,0,8.803,1.6579,0c0.30153,0,0.61411-0.039,0.93332-0.1204,0.32141-0.08,0.62957-0.2264,0.92117-0.4385,0.29159-0.2099,0.5622-0.5114,0.81292-0.9024,0.25073-0.3932,0.45617-0.9002,0.61743-1.5242l1.5386-5.7557h3.3147l-1.6281,6.1798c-0.26067,1.025-0.63178,1.8722-1.1145,2.547-0.48267,0.6727-1.0449,1.1211-1.6866,1.3409,0.84385,0.2806,1.4955,0.7599,1.9583,1.4326,0.46169,0.6715,0.81404,1.532,1.0548,2.5768l1.7485,6.8425h-3.5267l-1.4778-5.9677c-0.32141-1.2658-0.76322-2.1052-1.3265-2.5161-0.5622-0.412-1.226-0.6196-1.9881-0.6196h-1.8092v9.1034h-3.466"/>
  <path d="m-99.505,1187.3c0,1.6678-0.08505,3.1114-0.25735,4.3253-0.1712,1.2172-0.47274,2.2411-0.90239,3.0772-0.43408,0.8328-1.0106,1.4955-1.7341,1.9881-0.72346,0.4937-1.6281,0.8494-2.7138,1.0703l-0.93332-2.684c0.64173-0.2607,1.1796-0.5666,1.6115-0.919,0.43186-0.3501,0.77868-0.7985,1.0416-1.3408,0.26067-0.5413,0.44623-1.2161,0.55668-2.0191,0.10935-0.8052,0.16678-1.8092,0.16678-3.0154v-11.456h11.336v20.981h-3.4074v-17.786h-4.7638v7.7781"/>
  <path d="m-87.02,1197.3,3.4663,0,0-20.982-3.4663,0,0,20.982z"/>
  <path d="m-79.34,1197.3,0-20.981,3.4682,0,0,8.803,1.6568,0c0.30154,0,0.61301-0.039,0.93553-0.1204,0.32142-0.08,0.62737-0.2264,0.91896-0.4385,0.29159-0.2099,0.5622-0.5114,0.81514-0.9024,0.25073-0.3932,0.45617-0.9002,0.61743-1.5242l1.5375-5.7557h3.3158l-1.6281,6.1798c-0.26067,1.025-0.634,1.8722-1.1145,2.547-0.48268,0.6727-1.0449,1.1211-1.6899,1.3409,0.84385,0.2806,1.4988,0.7599,1.9605,1.4326,0.4628,0.6715,0.81293,1.532,1.0559,2.5768l1.7485,6.8425h-3.5278l-1.4767-5.9677c-0.32252-1.2658-0.76433-2.1052-1.3265-2.5161-0.5622-0.412-1.2271-0.6196-1.9903-0.6196h-1.8081v9.1034h-3.4682"/>
  <path d="m-56.719,1185.5-1.0835,4.2204,4.2811,0-1.0559-4.1917c-0.04087-0.1789-0.10603-0.4816-0.1955-0.9024-0.09168-0.4241-0.19108-0.8637-0.30154-1.3265-0.11156-0.4628-0.21538-0.9013-0.317-1.3122-0.10051-0.412-0.16126-0.7091-0.18004-0.8891h-0.15242l-0.99517,4.4015zm3.9796,7.2953-5.8175,0c-0.03976,0.1812-0.11929,0.4827-0.24189,0.9046-0.12039,0.422-0.2441,0.8737-0.37554,1.3575-0.13254,0.4805-0.25183,0.9322-0.36228,1.3541-0.10935,0.4242-0.1955,0.7257-0.25625,0.9046h-3.5864l6.0572-20.981h3.318l6.0881,20.981h-3.6471l-1.1763-4.5208"/>
  <path d="m-35.499,1182.8c0-1.0383-0.24964-1.8357-0.75329-2.3858-0.50146-0.55-1.2658-0.8251-2.2908-0.8251h-2.8651v6.4814h2.896c1.025,0,1.7827-0.2938,2.2753-0.8837,0.49151-0.5909,0.73782-1.3861,0.73782-2.3868zm3.4074,0.076c0,0.9046-0.13033,1.7473-0.391,2.5327-0.26287,0.782-0.64836,1.4668-1.162,2.0489-0.51138,0.5831-1.1597,1.0393-1.944,1.3718-0.78421,0.3324-1.6988,0.497-2.7447,0.497h-3.075v8.0486h-3.4351v-20.981h6.3311c0.98413,0,1.8689,0.1303,2.6531,0.391,0.782,0.2628,1.4569,0.6605,2.0191,1.1928,0.56221,0.5313,0.99408,1.2062,1.2956,2.0191,0.30263,0.8151,0.45284,1.775,0.45284,2.8795"/>
  <path d="m-25.567,1182.7c0,1.0052,0.2949,1.7043,0.88804,2.0953,0.59313,0.3932,1.3309,0.5887,2.2179,0.5887h2.6807v-5.8197h-2.7735c-1.0239,0-1.7827,0.2839-2.2753,0.8461-0.49373,0.5622-0.73782,1.3265-0.73782,2.2896zm9.2548-6.3001,0,20.981-3.4682,0,0-8.8925-1.8677,0c-0.68259,0-1.3166,0.2265-1.8998,0.6793-0.58208,0.4518-1.0349,1.3-1.3574,2.5471l-1.2647,5.6661h-3.5886l1.4182-6.2692c0.19992-0.803,0.47053-1.5088,0.81294-2.1119,0.34239-0.603,0.86373-1.0426,1.5673-1.3254-1.1244-0.381-1.9197-1.0393-2.3802-1.9749-0.46168-0.9333-0.69474-1.9539-0.69474-3.0584,0-0.9664,0.14689-1.8346,0.43848-2.6078,0.2916-0.7753,0.70248-1.4325,1.2349-1.9749,0.53349-0.5445,1.1708-0.9554,1.9152-1.237,0.74335-0.2806,1.5673-0.4219,2.4719-0.4219h6.6625"/>
  <path d="m-116.37,947.31c-41.333,0-74.958,33.627-74.958,74.965,0,41.333,33.625,74.967,74.958,74.967,41.34,0,74.975-33.634,74.975-74.967,0-41.338-33.635-74.965-74.975-74.965zm0,156.45c-44.925,0-81.474-36.555-81.474-81.482,0-44.93,36.549-81.479,81.474-81.479,44.943,0,81.486,36.55,81.486,81.479,0,44.926-36.543,81.482-81.486,81.482"/>
  <path d="m-149.21,1037.1c-17.259,0-31.305-14.047-31.305-31.304,0-17.263,14.046-31.298,31.305-31.298,4.5164,0,8.8914,0.94878,12.971,2.8055,1.6413,0.7566,2.3626,2.6873,1.6093,4.3242-0.74003,1.6358-2.6774,2.3637-4.312,1.6137-3.2351-1.4756-6.6879-2.2256-10.269-2.2256-13.665,0-24.781,11.119-24.781,24.78,0,13.666,11.116,24.78,24.781,24.78,13.655,0,24.774-11.114,24.774-24.78,0-1.5099-0.13254-3.022-0.40094-4.491-0.33025-1.7683,0.84164-3.4638,2.6188-3.7852,1.7683-0.33025,3.466,0.84054,3.7918,2.61,0.34682,1.8622,0.50918,3.7697,0.50918,5.6662,0,17.257-14.031,31.304-31.293,31.304"/>
  <path d="m-87.179,1034.5c-1.7971,0-3.2517-1.4536-3.2517-3.2628v-13.909c0-1.7982,1.4547-3.2617,3.2517-3.2617,1.8114,0,3.2628,1.4635,3.2628,3.2617v13.909c0,1.8092-1.4513,3.2628-3.2628,3.2628"/>
  <path d="m-98.826,1034.5c-1.8015,0-3.2561-1.4536-3.2561-3.2628v-13.909c0-1.7982,1.4547-3.2617,3.2561-3.2617,1.8081,0,3.2628,1.4635,3.2628,3.2617v13.909c0,1.8092-1.4547,3.2628-3.2628,3.2628"/>
  <path d="m-118.47,1034.5c-1.7948,0-3.2561-1.4536-3.2561-3.2628v-13.909c0-1.7982,1.4613-3.2617,3.2561-3.2617,1.8037,0,3.2683,1.4635,3.2683,3.2617v13.909c0,1.8092-1.4646,3.2628-3.2683,3.2628"/>
  <path d="m-128.89,1044.3c-3.371,0-6.1091,2.7381-6.1091,6.1102,0,3.361,2.7381,6.1036,6.1091,6.1036,3.3666,0,6.1047-2.7426,6.1047-6.1036,0-3.3721-2.7381-6.1102-6.1047-6.1102zm0,18.728c-6.964,0-12.627-5.6606-12.627-12.618,0-6.9618,5.6629-12.629,12.627-12.629,6.9541,0,12.619,5.6673,12.619,12.629,0,6.9574-5.6651,12.618-12.619,12.618"/>
  <path d="m-81.441,1044.3c-3.3699,0-6.1102,2.7381-6.1102,6.1102,0,3.361,2.7403,6.1036,6.1102,6.1036,3.3666,0,6.1091-2.7426,6.1091-6.1036,0-3.3721-2.7425-6.1102-6.1091-6.1102zm0,18.728c-6.9585,0-12.62-5.6606-12.62-12.618,0-6.9618,5.6618-12.629,12.62-12.629,6.9585,0,12.624,5.6673,12.624,12.629,0,6.9574-5.6651,12.618-12.624,12.618"/>
  <path d="m-98.137,1011.1c-1.8015,0-3.2539-1.4635-3.2539-3.2628v-7.429c0-1.9473-1.5861-3.5334-3.5234-3.5334-1.9539,0-3.5312,1.5861-3.5312,3.5334v7.429c0,1.7993-1.4657,3.2628-3.2561,3.2628-1.807,0-3.2628-1.4635-3.2628-3.2628v-7.429c0-5.5381,4.5075-10.052,10.05-10.052,5.5325,0,10.039,4.5142,10.039,10.052v7.429c0,1.7993-1.4547,3.2628-3.2616,3.2628"/>
  <path d="m-98.826,1034.5-38.544,0c-1.7971,0-3.2616-1.4536-3.2616-3.2628,0-1.8048,1.4646-3.2583,3.2616-3.2583h38.544c1.8081,0,3.2628,1.4535,3.2628,3.2583,0,1.8092-1.4547,3.2628-3.2628,3.2628"/>
  <path d="m-98.826,1020.6-24.823,0c-1.8004,0-3.2616-1.4591-3.2616-3.2628,0-1.7982,1.4613-3.2617,3.2616-3.2617h24.823c1.8015,0,3.2628,1.4635,3.2628,3.2617,0,1.8037-1.4613,3.2628-3.2628,3.2628"/>
  <path d="m-72.076,1034.5-15.103,0c-1.8015,0-3.2616-1.4536-3.2616-3.2628,0-1.8048,1.4602-3.2583,3.2616-3.2583h11.847v-3.741c0-2.0102-1.6402-3.6471-3.6515-3.6471h-8.1955c-1.7971,0-3.2583-1.4591-3.2583-3.2628,0-1.7982,1.4613-3.2617,3.2583-3.2617h8.1955c5.6054,0,10.166,4.5639,10.166,10.172v6.9993c0,1.8092-1.4569,3.2628-3.2583,3.2628"/>
  <path d="m-151.21,1013.7c1.532,0,2.7182,0.7047,2.7182,2.3062,0,1.6016-1.1862,2.2952-2.5062,2.2952h-11.647c-1.5331,0-2.7204-0.6936-2.7204-2.2952,0-0.7367,0.45616-1.3651,0.80409-1.7805,2.9005-3.4582,6.034-6.5873,8.6826-10.427,0.63399-0.9046,1.2183-1.9882,1.2183-3.2462,0-1.4237-1.0813-2.6851-2.5062-2.6851-4.0182,0-2.1008,5.654-5.4409,5.654-1.68,0-2.5481-1.1873-2.5481-2.547,0-4.3927,3.9078-7.9139,8.1933-7.9139,4.2889,0,7.7449,2.8176,7.7449,7.2435,0,4.8532-5.4044,9.6667-8.3723,13.396h6.3797"/>
  <path d="m-138.65,998.53-0.0773,0-4.7042,9.7297,4.7815,0,0-9.7297zm-8.4065,14.334c-1.712,0-2.4421-1.1509-2.4421-2.0621,0-0.7555,0.27613-1.1818,0.48709-1.5276l7.8145-14.156c0.76653-1.3961,1.7363-2.0235,3.5566-2.0235,2.0224,0,4.0072,1.2834,4.0072,4.4667v10.697h0.59533c1.3586,0,2.4366,0.9112,2.4366,2.3007,0,1.3994-1.078,2.304-2.4366,2.304h-0.59533v2.969c0,1.8445-0.72567,2.7149-2.5128,2.7149-1.7739,0-2.504-0.8704-2.504-2.7149v-2.969h-8.4065"/>
  <path d="m-61.354,1052.2-10.722,0c-1.8048,0-3.2561-1.4525-3.2561-3.2517,0-1.7971,1.4513-3.2628,3.2561-3.2628h7.4655v-21.748c0-7.0888-5.7722-12.859-12.865-12.859h-43.779c-1.8004,0-3.2616-1.4635-3.2616-3.2628,0-1.797,1.4613-3.2561,3.2616-3.2561h43.779c10.686,0,19.384,8.6926,19.384,19.378v25.011c0,1.7992-1.4657,3.2517-3.2628,3.2517"/>
  <path d="m-90.692,1052.2-28.947,0c-1.7993,0-3.2639-1.4525-3.2639-3.2517,0-1.7971,1.4646-3.2628,3.2639-3.2628h28.947c1.7993,0,3.2617,1.4657,3.2617,3.2628,0,1.7992-1.4624,3.2517-3.2617,3.2517"/>
  <path d="m-138.25,1052.2-10.241,0c-1.8015,0-3.2539-1.4525-3.2539-3.2517v-15.123c0-1.8059,1.4524-3.2628,3.2539-3.2628s3.2727,1.4569,3.2727,3.2628v11.86h6.9684c1.7948,0,3.2561,1.4657,3.2561,3.2628,0,1.7992-1.4613,3.2517-3.2561,3.2517"/>
  <path d="m-142.89,988.39c-1.1045,0-2.1803-0.55889-2.7966-1.5795-0.92449-1.5441-0.43408-3.5433,1.1045-4.4788l4.5341-2.726-2.3372-5.2962c-0.72125-1.648,0.0243-3.5742,1.6734-4.2955,1.6468-0.73119,3.5676,0.0188,4.2955,1.6678l3.4859,7.9238c0.66382,1.4999,0.11045,3.2561-1.2956,4.1033l-6.9828,4.2138c-0.53016,0.31258-1.1045,0.46721-1.6811,0.46721"/>
 </g>
</svg>
