<?xml version="1.0" encoding="UTF-8" standalone="no"?>
<!-- Created with Inkscape (http://www.inkscape.org/) -->
<svg xmlns:rdf="http://www.w3.org/1999/02/22-rdf-syntax-ns#" xmlns="http://www.w3.org/2000/svg" version="1.1" xmlns:cc="http://creativecommons.org/ns#" xmlns:dc="http://purl.org/dc/elements/1.1/" viewBox="0 0 200 276.92">
 <metadata>
  <rdf:RDF>
   <cc:Work rdf:about="">
    <dc:format>image/svg+xml</dc:format>
    <dc:type rdf:resource="http://purl.org/dc/dcmitype/StillImage"/>
    <dc:title/>
   </cc:Work>
  </rdf:RDF>
 </metadata>
 <g fill-rule="nonzero" transform="translate(264.29695,-776.76881)" fill="#38a6e3">
  <path d="m-245.32,1010.7,0-16.058-5.6351,0-0.26416,6.849c-0.0444,0.981-0.0853,1.9332-0.13088,2.8506-0.0432,0.9173-0.11407,1.7699-0.21253,2.5563-0.0973,0.7865-0.23415,1.5022-0.40946,2.147-0.17531,0.6436-0.41425,1.1959-0.72044,1.6546h7.3725zm-9.9277,8.0293-3.2456,0,0-7.7687c0.28337-0.042,0.55594-0.09,0.8201-0.1465,0.26056-0.055,0.53313-0.1141,0.8189-0.1813,0.4791-0.4143,0.85733-0.8946,1.1299-1.4421,0.27257-0.544,0.4911-1.2152,0.6556-2.0125,0.16451-0.7985,0.27978-1.7398,0.34342-2.8205,0.066-1.0807,0.12007-2.3523,0.1633-3.8172l0.3278-9.3081h12.587c0,3.2564,0.004,6.4996,0.0156,9.7332,0.0108,3.2348,0.0156,6.478,0.0156,9.7344h1.8023v8.0293h-3.2444v-4.6877h-12.19v4.6877"/>
  <path d="m-236.21,1014,3.7683,0,0-22.809-3.7683,0,0,22.809z"/>
  <path d="m-221.88,1001.2-1.1803,4.5893,4.6541,0-1.1479-4.5568c-0.0444-0.197-0.11527-0.5224-0.21253-0.9835-0.0997-0.45863-0.20773-0.93892-0.3278-1.442-0.12007-0.50071-0.23534-0.97741-0.34341-1.4241-0.11047-0.44787-0.17531-0.77087-0.19692-0.96779h-0.1645l-1.0807,4.7849zm4.3239,7.9321-6.3243,0c-0.0444,0.1969-0.13088,0.5247-0.26056,0.9834-0.13088,0.4587-0.26897,0.951-0.41065,1.4733-0.14169,0.5248-0.27498,1.0171-0.39385,1.4758-0.12007,0.4574-0.21253,0.7852-0.27977,0.9821h-3.8988l6.5885-22.809h3.6034l6.6221,22.809h-3.966l-1.28-4.9146"/>
  <path d="m-205.23,994.67,0,19.335-3.7367,0,0-22.809,12.553,0,0,3.4737-8.8158,0"/>
  <path d="m-182.8,1014,0-9.864-6.424,0,0,9.864-3.7679,0,0-22.809,3.7679,0,0,9.5699,6.424,0,0-9.5699,3.7355,0,0,22.809-3.7355,0"/>
  <path d="m-164.68,998.02c0-0.28337-0.048-0.61718-0.14769-1.0002-0.0973-0.38305-0.26777-0.74927-0.50791-1.1023-0.24015-0.3494-0.56195-0.6484-0.9678-0.90055-0.40225-0.25215-0.92097-0.37943-1.555-0.37943-0.63519,0-1.1647,0.11528-1.5898,0.34581-0.42506,0.23054-0.76487,0.51392-1.017,0.85374-0.25096,0.3398-0.42987,0.70603-0.54034,1.0999-0.10926,0.39504-0.1645,0.76727-0.1645,1.1167l0.0336,8.7366c0,1.0939,0.24976,2.0136,0.75287,2.7581s1.3556,1.1167,2.5564,1.1167c0.85253,0,1.591-0.2906,2.213-0.8705,0.62199-0.5812,0.93418-1.3737,0.93418-2.3811v-9.3934zm3.8015,9.0716c0,1.0939-0.1705,2.0773-0.50671,2.9502-0.33861,0.8729-0.82011,1.6222-1.4421,2.2442-0.62318,0.622-1.3604,1.0987-2.213,1.4265-0.85373,0.3278-1.7927,0.4923-2.8181,0.4923-1.2476,0-2.3174-0.2017-3.212-0.6076-0.89695-0.4035-1.6234-0.9498-2.1793-1.639-0.55834-0.6868-0.9678-1.4841-1.2296-2.3931-0.26056-0.9053-0.39384-1.8599-0.39384-2.8661v-8.619c0-0.80809,0.12608-1.6282,0.37823-2.4579,0.25096-0.83091,0.65561-1.585,1.2116-2.2622,0.55834-0.67601,1.2788-1.2344,2.1649-1.6702,0.88375-0.43707,1.9716-0.65561,3.26-0.65561,1.2007,0,2.2394,0.20773,3.1123,0.62198,0.87534,0.41426,1.6018,0.95699,2.1805,1.6222,0.57756,0.6664,1.005,1.4217,1.2776,2.261,0.27257,0.84172,0.40945,1.6882,0.40945,2.5408v9.0116"/>
  <path d="m-143.32,1009.2c-0.37102,1.5981-1.1575,2.8361-2.3582,3.7223-1.2031,0.8837-2.656,1.3268-4.3599,1.3268-1.1803,0-2.2058-0.1861-3.0811-0.5584-0.87294-0.3698-1.6054-0.8837-2.195-1.5393-0.58957-0.6568-1.0278-1.4265-1.3112-2.3114-0.28338-0.8838-0.42626-1.8408-0.42626-2.8674v-8.8483c0-0.89694,0.14288-1.7699,0.42626-2.6224,0.28337-0.85012,0.71564-1.6066,1.2956-2.2622,0.57755-0.6556,1.3052-1.1779,2.1793-1.5718,0.87294-0.39265,1.9116-0.58957,3.1123-0.58957,1.8347,0,3.3272,0.4803,4.4752,1.4421,1.1455,0.96059,1.9044,2.1613,2.2766,3.6034l-3.5722,1.1803c-0.0648-0.32661-0.1753-0.6436-0.3278-0.94979-0.15369-0.30498-0.36142-0.58476-0.62318-0.83451-0.26176-0.25215-0.57756-0.45389-0.94979-0.60758-0.37223-0.15249-0.79849-0.23054-1.2788-0.23054-0.56915,0-1.0542,0.0997-1.4577,0.29538-0.40465,0.19692-0.73726,0.45389-1.0014,0.77087-0.26056,0.31699-0.45748,0.67122-0.58836,1.0651-0.13088,0.39504-0.19692,0.78648-0.19692,1.1803v9.0776c0,0.4814,0.066,0.9401,0.19692,1.376,0.13088,0.4383,0.3314,0.8201,0.60637,1.1479,0.27257,0.3278,0.61238,0.5848,1.0146,0.7709,0.40585,0.1861,0.88014,0.2762,1.4265,0.2762,0.80929,0,1.4949-0.2282,2.0653-0.6869,0.56675-0.4587,0.92817-1.0914,1.0807-1.8995l3.5722,1.1443"/>
  <path d="m-132.02,994.61,0,19.399-3.7379,0,0-19.399-5.0143,0,0-3.4101,13.798,0,0,3.4101-5.0455,0"/>
  <path d="m-123.69,1014,0-22.809,3.7007,0,0,15.272c0.0228,0,0.0384,0.01,0.0516,0.017,0.008,0.011,0.0264,0.016,0.048,0.016,0.50311-0.939,0.9774-1.8779,1.4253-2.8181,0.44667-0.939,0.90055-1.878,1.3592-2.8193,0.83091-1.615,1.651-3.2204,2.4591-4.8174,0.8081-1.5934,1.6174-3.2108,2.4255-4.8498h3.4737v22.809h-3.7379v-14.878h-0.0636c-0.37223,0.72166-0.74446,1.4529-1.1143,2.1949-0.37222,0.7445-0.74445,1.4758-1.1143,2.1974l-5.3757,10.486h-3.5374"/>
  <path d="m-104.23,1014,0-22.809,3.7703,0,0,9.5699,1.8011,0c0.3278,0,0.66641-0.044,1.017-0.1309,0.34942-0.089,0.68202-0.2461,0.99902-0.4767,0.3158-0.22812,0.61118-0.55593,0.88614-0.98218,0.27137-0.42626,0.4959-0.97741,0.67121-1.6558l1.6702-6.2594h3.6058l-1.7699,6.7181c-0.28337,1.1143-0.68922,2.0376-1.2115,2.7713-0.52472,0.7312-1.1371,1.2187-1.8359,1.4577,0.91616,0.3062,1.627,0.8237,2.1301,1.5573,0.50071,0.7313,0.88374,1.6655,1.1479,2.8014l1.9008,7.4385h-3.8352l-1.6054-6.4875c-0.35062-1.3773-0.83091-2.2887-1.4421-2.7377-0.61358-0.4479-1.334-0.6712-2.1649-0.6712h-1.9644v9.8964h-3.7703"/>
  <path d="m-79.638,1001.2-1.1815,4.5893,4.6541,0-1.1455-4.5568c-0.04443-0.197-0.11528-0.5224-0.21494-0.9835-0.09725-0.45863-0.20532-0.93892-0.32779-1.442-0.11887-0.50071-0.23415-0.97741-0.34342-1.4241-0.10806-0.44787-0.17411-0.77087-0.19692-0.96779h-0.1633l-1.0807,4.7849zm4.3251,7.9321-6.3243,0c-0.04443,0.1969-0.13208,0.5247-0.26296,0.9834-0.13087,0.4587-0.26895,0.951-0.40945,1.4733-0.14168,0.5248-0.27257,1.0171-0.39265,1.4758-0.12006,0.4574-0.21253,0.7852-0.27856,0.9821h-3.9012l6.5873-22.809h3.607l6.6185,22.809h-3.9648l-1.2788-4.9146"/>
  <path d="m-264.3,1048.4c0.19452-0.066,0.45148-0.1477,0.76727-0.2449,0.3182-0.097,0.652-0.209,1.0014-0.3278,0.34821-0.1201,0.68322-0.2354,0.99902-0.3434,0.31699-0.1105,0.57395-0.197,0.76967-0.2642,0.17411,0.939,0.57996,1.6678,1.214,2.1805,0.63279,0.514,1.3856,0.7709,2.261,0.7709,0.98341,0,1.7531-0.3146,2.3102-0.9462,0.55595-0.6316,0.83572-1.4805,0.83572-2.5455,0-0.4791-0.0492-0.9234-0.14649-1.3353-0.0997-0.4142-0.26777-0.778-0.50912-1.095-0.24014-0.3146-0.55594-0.5644-0.95098-0.7481-0.39144-0.1861-0.88375-0.2798-1.4745-0.2798h-1.7699v-3.1783h1.8035c0.91617,0,1.639-0.275,2.1637-0.8237,0.52232-0.55,0.78649-1.34,0.78649-2.3727,0-0.8345-0.25336-1.5081-0.75527-2.0268-0.50311-0.5164-1.2115-0.7733-2.1289-0.7733-0.89695,0-1.6354,0.2617-2.213,0.7865-0.57876,0.5247-0.9774,1.2007-1.1959,2.0316l-3.4401-1.2452c0.36863-1.5681,1.1515-2.8133,2.3414-3.733,1.1911-0.9186,2.7149-1.3797,4.5712-1.3797,2.1205,0,3.7487,0.5139,4.8846,1.5393,1.1371,1.0279,1.7038,2.5372,1.7038,4.5232,0,0.3723-0.0384,0.7973-0.11527,1.2788-0.0756,0.4803-0.20893,0.9546-0.39264,1.4241-0.18612,0.4719-0.44668,0.9078-0.78649,1.3112-0.33861,0.4059-0.77087,0.7157-1.2956,0.9354v0.1297c0.54754,0.2197,1.0014,0.5211,1.3604,0.9017,0.36022,0.3831,0.6508,0.8153,0.86814,1.2944,0.21973,0.4803,0.36502,0.9786,0.44307,1.4925,0.078,0.5115,0.11527,1.0099,0.11527,1.4913,0,1.136-0.1705,2.129-0.50671,2.9815-0.33981,0.8525-0.82011,1.5682-1.4433,2.1457-0.62198,0.5812-1.3664,1.017-2.2274,1.3124-0.86454,0.2942-1.8215,0.4431-2.8686,0.4431-1.8792,0-3.4365-0.4635-4.6697-1.3893-1.2368-0.9257-2.0052-2.2333-2.3102-3.9216"/>
  <path d="m-240.8,1040.6-1.1803,4.5904,4.6541,0-1.1479-4.5568c-0.042-0.1969-0.11287-0.5247-0.21253-0.9834-0.0973-0.4587-0.20653-0.939-0.3278-1.4421-0.11888-0.5031-0.23415-0.9774-0.34341-1.4241-0.10807-0.4479-0.17411-0.7709-0.19693-0.9678h-0.1633l-1.0819,4.7838zm4.3263,7.9332-6.3243,0c-0.0444,0.1946-0.13209,0.5224-0.26297,0.9834-0.13088,0.4587-0.26896,0.9498-0.40945,1.4734-0.14289,0.5247-0.27257,1.017-0.39264,1.4745-0.12248,0.4587-0.21253,0.7864-0.27857,0.9834h-3.9012l6.5873-22.809h3.607l6.6185,22.809h-3.9648l-1.2788-4.9147"/>
  <path d="m-224.56,1053.5-4.2266,0c0.17291-0.3278,0.42026-0.8033,0.73726-1.4265,0.31459-0.622,0.67121-1.3148,1.0638-2.0797,0.39385-0.7637,0.8033-1.5609,1.2296-2.3919,0.42746-0.8309,0.83091-1.6282,1.214-2.393,0.38063-0.7637,0.73005-1.4589,1.047-2.0821,0.317-0.6232,0.56315-1.0963,0.73726-1.4241l-5.6375-11.012h4.2626l3.3429,7.3726,3.4065-7.3726h4.229l-5.6711,11.012,6.0625,11.797h-4.193l-3.8039-8.0942-3.8003,8.0942"/>
  <path d="m-199.34,1046.5c0-0.9654-0.24134-1.7459-0.72164-2.3391-0.4815-0.5907-1.2788-0.8885-2.3931-0.8885h-3.2756v6.6521h3.3092c0.59196,0,1.0807-0.086,1.4757-0.263,0.39144-0.1753,0.70843-0.4238,0.94978-0.7396,0.23895-0.3194,0.40945-0.6869,0.50791-1.1035,0.0997-0.4191,0.14769-0.8573,0.14769-1.3184zm-0.3278-9.4871c0-0.9173-0.24615-1.639-0.73725-2.1649-0.49231-0.5223-1.2836-0.7853-2.3775-0.7853h-2.9478v5.9653h2.9814c1.0699,0,1.8515-0.2798,2.3438-0.8357,0.4911-0.5584,0.73725-1.2848,0.73725-2.1794zm3.9985,9.6996c0,2.1866-0.58476,3.8568-1.7543,5.0155-1.1671,1.1587-2.7353,1.7363-4.7033,1.7363h-7.3401v-22.809h6.9811c2.1625,0,3.7847,0.556,4.8678,1.6703,1.0807,1.1142,1.621,2.6344,1.621,4.5568,0,0.9618-0.20172,1.8455-0.60757,2.6536-0.40225,0.8081-1.1299,1.4529-2.1793,1.9344v0.1633c0.54753,0.1753,1.017,0.4323,1.4109,0.7709,0.39264,0.3386,0.71564,0.736,0.96659,1.1959,0.24975,0.4587,0.43587,0.9546,0.55834,1.4913,0.11888,0.5355,0.17892,1.0771,0.17892,1.621"/>
  <path d="m-181.93,1037.5c0-0.2834-0.0492-0.6171-0.14889-1.0002-0.0973-0.383-0.26777-0.7517-0.50671-1.1023-0.24135-0.3494-0.56315-0.6508-0.9666-0.9005-0.40585-0.2522-0.92337-0.3795-1.5574-0.3795-0.63279,0-1.1647,0.1153-1.5898,0.3459-0.42506,0.2305-0.76487,0.5139-1.0146,0.8525-0.25336,0.3398-0.43227,0.7072-0.54274,1.1011-0.10926,0.395-0.1645,0.7672-0.1645,1.1166l0.0336,8.7366c0,1.0939,0.24976,2.0137,0.75527,2.7581,0.5007,0.7445,1.3532,1.1167,2.5564,1.1167,0.85012,0,1.5886-0.2906,2.2106-0.8705,0.62319-0.5812,0.93538-1.3737,0.93538-2.3811v-9.3934zm3.8003,9.0716c0,1.0915-0.17051,2.0749-0.50671,2.9502-0.33861,0.873-0.82011,1.6222-1.4421,2.2442-0.62198,0.622-1.3604,1.0987-2.213,1.4265-0.85373,0.3278-1.7927,0.4923-2.8181,0.4923-1.2464,0-2.3174-0.2017-3.212-0.6076-0.89695-0.4034-1.6234-0.951-2.1793-1.639-0.55834-0.6868-0.9678-1.4841-1.2296-2.3931-0.26176-0.9053-0.39264-1.8623-0.39264-2.8661v-8.6189c0-0.8081,0.12488-1.6282,0.37703-2.4591,0.25096-0.831,0.65561-1.5838,1.2116-2.261,0.55834-0.6785,1.2788-1.2344,2.1649-1.6703,0.88375-0.4382,1.9716-0.6556,3.26-0.6556,1.2007,0,2.2394,0.2053,3.1123,0.622,0.87534,0.4143,1.6018,0.9546,2.1805,1.6222,0.57756,0.6664,1.005,1.4193,1.2776,2.261,0.27257,0.8417,0.40945,1.6882,0.40945,2.5408v9.0115"/>
  <path d="m-163.76,1037.6c0-1.1323-0.27376-1.9968-0.8189-2.5948-0.54754-0.598-1.376-0.8969-2.4903-0.8969h-3.1147v7.0459h3.1459c1.1143,0,1.9404-0.3206,2.4771-0.963,0.53313-0.64,0.80089-1.5045,0.80089-2.5912zm3.7043,0.079c0,0.9834-0.14169,1.9019-0.42747,2.7533-0.28337,0.8525-0.70483,1.5946-1.2608,2.2285-0.55835,0.6352-1.2632,1.1311-2.1133,1.4926-0.85253,0.359-1.8467,0.5403-2.9838,0.5403h-3.3429v8.7498h-3.7367v-22.809h6.8826c1.0723,0,2.0328,0.1417,2.8842,0.4263,0.85253,0.2822,1.5838,0.7144,2.1974,1.2932,0.61117,0.5799,1.0807,1.3112,1.4085,2.1973,0.32901,0.8838,0.49231,1.9272,0.49231,3.128"/>
  <path d="m-143.94,1034.1c-0.57155,0-1.0482,0.095-1.4325,0.2786-0.38424,0.1861-0.69163,0.4395-0.92217,0.7564-0.23054,0.3158-0.40104,0.6665-0.51151,1.0471-0.10927,0.383-0.1645,0.7709-0.1645,1.1635l0.0336,9.3081c0,1.0471,0.23054,1.8996,0.69162,2.5564,0.45989,0.6556,1.2404,0.9834,2.339,0.9834,0.87894,0,1.5922-0.269,2.1421-0.8045,0.54874-0.5343,0.82371-1.3268,0.82371-2.3751v-9.6683c0-0.3506-0.0492-0.7204-0.14889-1.1143-0.0973-0.3926-0.26296-0.742-0.4935-1.0482-0.23055-0.305-0.53794-0.562-0.92337-0.7709-0.38304-0.2077-0.86214-0.3122-1.4337-0.3122zm0.0516-3.5374c1.1779,0,2.1878,0.1753,3.0295,0.5223,0.84172,0.3495,1.5285,0.8382,2.0653,1.4601,0.53553,0.622,0.93418,1.3533,1.1959,2.195,0.26296,0.8417,0.39384,1.7543,0.39384,2.7353v9.3081c0,2.2286-0.60277,3.9456-1.8023,5.1464-1.2007,1.2007-2.841,1.8035-4.9158,1.8035-1.1803,0-2.1914-0.1825-3.0331-0.5415-0.84172-0.3603-1.5286-0.8562-2.0641-1.4926-0.53673-0.6339-0.92817-1.3868-1.1791-2.2621-0.25216-0.873-0.37583-1.8228-0.37583-2.8506v-2.9154h-2.3619v9.8641h-3.7343v-22.809h3.7343v9.5699h2.3619v-2.8205c0-0.9162,0.13088-1.7963,0.39144-2.638,0.26176-0.8394,0.6604-1.5766,1.1971-2.2106,0.53553-0.6328,1.2224-1.1359,2.0641-1.5081,0.84172-0.3699,1.8515-0.556,3.0331-0.556"/>
  <path d="m-122.85,1046.5c0-0.9654-0.24015-1.7459-0.71925-2.3391-0.4827-0.5907-1.28-0.8885-2.3943-0.8885h-3.2768v6.6521h3.3092c0.59196,0,1.0819-0.086,1.4757-0.263,0.39384-0.1753,0.70963-0.4238,0.94978-0.7396,0.24255-0.3194,0.41065-0.6869,0.50791-1.1035,0.0997-0.4191,0.1477-0.8573,0.1477-1.3184zm-0.32781-9.4871c0-0.9173-0.24495-1.639-0.73725-2.1649-0.4911-0.5223-1.2824-0.7853-2.3763-0.7853h-2.949v5.9653h2.9814c1.0698,0,1.8527-0.2798,2.3438-0.8357,0.4923-0.5584,0.73725-1.2848,0.73725-2.1794zm3.9985,9.6996c0,2.1866-0.58476,3.8568-1.7519,5.0155-1.1695,1.1587-2.7377,1.7363-4.7045,1.7363h-7.3413v-22.809h6.9823c2.1613,0,3.7835,0.556,4.8666,1.6703,1.0807,1.1142,1.621,2.6344,1.621,4.5568,0,0.9618-0.20172,1.8455-0.60637,2.6536-0.40345,0.8081-1.1299,1.4529-2.1793,1.9344v0.1633c0.54634,0.1753,1.0158,0.4323,1.4109,0.7709,0.39144,0.3386,0.71564,0.736,0.96539,1.1959,0.25096,0.4587,0.43707,0.9546,0.55835,1.4913,0.11887,0.5355,0.17891,1.0771,0.17891,1.621"/>
  <path d="m-109.69,1040.6-1.1791,4.5904,4.6541,0-1.1467-4.5568c-0.0444-0.1969-0.11527-0.5247-0.21373-0.9834-0.0985-0.4587-0.20773-0.939-0.32781-1.4421-0.12127-0.5031-0.23414-0.9774-0.34461-1.4241-0.10927-0.4479-0.17531-0.7709-0.19572-0.9678h-0.1633l-1.0831,4.7838zm4.3263,7.9332-6.3243,0c-0.0444,0.1946-0.13088,0.5224-0.26176,0.9834-0.13328,0.4587-0.26776,0.9498-0.40945,1.4734-0.14409,0.5247-0.27497,1.017-0.39505,1.4745-0.11887,0.4587-0.21253,0.7864-0.27857,0.9834h-3.8988l6.5873-22.809h3.6046l6.6209,22.809h-3.9672l-1.2776-4.9147"/>
  <path d="m-86.605,1053.5,0-9.8641-6.4228,0,0,9.8641-3.7691,0,0-22.809,3.7691,0,0,9.5699,6.4228,0,0-9.5699,3.7355,0,0,22.809-3.7355,0"/>
  <path d="m-68.066,1046.5c0-1.0471-0.25696-1.8672-0.77208-2.4567-0.51032-0.5908-1.3592-0.8862-2.5384-0.8862h-3.1471v6.819h3.1808c1.1347,0,1.9644-0.317,2.4903-0.951,0.52472-0.6327,0.78648-1.4745,0.78648-2.5251zm3.7691-0.1153c0,2.3223-0.61718,4.0813-1.8515,5.2749-1.2356,1.1935-2.9238,1.7891-5.0635,1.7891h-7.046v-22.809h3.7679v8.9779h3.278c1.2007,0,2.2322,0.1706,3.0967,0.5104,0.86214,0.341,1.5778,0.8057,2.1469,1.3976,0.56676,0.5908,0.9882,1.3028,1.262,2.135,0.27257,0.8309,0.40945,1.741,0.40945,2.7244"/>
  <path d="m-162.09,783.86c-44.934,0-81.492,36.557-81.492,81.497,0,44.928,36.558,81.485,81.492,81.485s81.491-36.557,81.491-81.485c0-44.94-36.557-81.497-81.491-81.497zm0,170.07c-48.846,0-88.591-39.74-88.591-88.577,0-48.85,39.744-88.583,88.591-88.583,48.841,0,88.583,39.734,88.583,88.583,0,48.838-39.742,88.577-88.583,88.577"/>
  <path d="m-155.08,814.04c-5.0131,0-9.0908,4.0741-9.0908,9.08s4.0777,9.0932,9.0908,9.0932c5.0107,0,9.0932-4.0873,9.0932-9.0932s-4.0825-9.08-9.0932-9.08zm0,25.266c-8.9251,0-16.178-7.2705-16.178-16.186s7.2525-16.179,16.178-16.179c8.9179,0,16.173,7.2633,16.173,16.179,0,8.9155-7.2549,16.186-16.173,16.186"/>
  <path d="m-124.27,888.37-71.407,0c-1.95,0-3.5386-1.5922-3.5386-3.5422,0-1.9596,1.5886-3.5446,3.5386-3.5446h71.407c1.956,0,3.5386,1.585,3.5386,3.5446,0,1.95-1.5826,3.5422-3.5386,3.5422"/>
  <path d="m-167.33,907.74,6.2955,0,0-3.9925-6.2955,0,0,3.9925zm9.8413,7.082-13.381,0c-1.9584,0-3.5398-1.5862-3.5398-3.5422v-11.072c0-1.9536,1.5814-3.5458,3.5398-3.5458h13.381c1.9524,0,3.5398,1.5922,3.5398,3.5458v11.072c0,1.956-1.5874,3.5422-3.5398,3.5422"/>
  <path d="m-161.78,803.94-23.025,0c-1.9584,0-3.547-1.5898-3.547-3.5458,0-1.9608,1.5886-3.547,3.547-3.547h23.025c1.9656,0,3.547,1.5862,3.547,3.547,0,1.956-1.5814,3.5458-3.547,3.5458"/>
  <path d="m-161.78,857.56-23.025,0c-1.9584,0-3.547-1.5934-3.547-3.547v-44.04c0-1.9608,1.5886-3.5458,3.547-3.5458h23.025c1.9656,0,3.547,1.585,3.547,3.5458v2.4255c0,1.9608-1.5814,3.547-3.547,3.547-1.5658,0-2.8998-1.0218-3.3645-2.4255h-16.115v36.946h15.941v-16.631c0-1.9536,1.585-3.5398,3.5386-3.5398,1.9656,0,3.547,1.5862,3.547,3.5398v20.178c0,1.9536-1.5814,3.547-3.547,3.547"/>
  <path d="m-175.36,869.07,4.1522,0,0-11.516-4.1522,0,0,11.516zm7.6895,7.0928-11.229,0c-1.9584,0-3.5458-1.5862-3.5458-3.547v-18.609c0-1.9632,1.5874-3.547,3.5458-3.547h11.229c1.9644,0,3.5458,1.5838,3.5458,3.547v18.609c0,1.9608-1.5814,3.547-3.5458,3.547"/>
  <path d="m-199.54,914.82c-2.1241,0-3.9696,1.3148-3.9696,2.8061,0,1.4973,1.8455,2.8133,3.9696,2.8133h71.548c2.1181,0,3.972-1.316,3.972-2.8133,0-1.4913-1.8539-2.8061-3.972-2.8061h-71.548zm71.548,12.705-71.548,0c-6.1094,0-11.056-4.4403-11.056-9.8989,0-5.4514,4.947-9.8881,11.056-9.8881h71.548c6.1034,0,11.056,4.4367,11.056,9.8881,0,5.4586-4.953,9.8989-11.056,9.8989"/>
  <path d="m-155.08,903.75-15.79,0c-1.9584,0-3.5398-1.579-3.5398-3.5398,0-1.9536,1.5814-3.5458,3.5398-3.5458h15.79c19.293,0,34.994-15.696,34.994-34.996,0-14.983-9.5159-28.292-23.68-33.136-1.8455-0.62678-2.8398-2.65-2.2082-4.4992,0.62678-1.8479,2.6416-2.8374,4.4992-2.2058,17.036,5.814,28.482,21.825,28.482,39.841,0,23.202-18.877,42.081-42.087,42.081"/>
 </g>
</svg>
