<?xml version="1.0" encoding="UTF-8" standalone="no"?>
<!-- Created with Inkscape (http://www.inkscape.org/) -->
<svg xmlns:rdf="http://www.w3.org/1999/02/22-rdf-syntax-ns#" xmlns="http://www.w3.org/2000/svg" version="1.1" xmlns:cc="http://creativecommons.org/ns#" xmlns:dc="http://purl.org/dc/elements/1.1/" viewBox="0 0 200 250.75">
 <metadata>
  <rdf:RDF>
   <cc:Work rdf:about="">
    <dc:format>image/svg+xml</dc:format>
    <dc:type rdf:resource="http://purl.org/dc/dcmitype/StillImage"/>
    <dc:title/>
   </cc:Work>
  </rdf:RDF>
 </metadata>
 <g fill-rule="nonzero" transform="translate(316.44713,-973.87545)" fill="#38a6e3">
  <path d="m-304.49,1181.9c-0.32358,1.3889-1.0086,2.4692-2.0553,3.24-1.0467,0.7718-2.3119,1.1556-3.7965,1.1556-1.0274,0-1.9222-0.1621-2.6832-0.4852-0.76147-0.3232-1.3988-0.7708-1.9123-1.3429-0.51393-0.5689-0.89472-1.2403-1.1418-2.0122-0.24755-0.7697-0.37096-1.6012-0.37096-2.4964v-7.7078c0-0.7792,0.12341-1.5416,0.37096-2.282,0.24713-0.7426,0.62301-1.3994,1.1275-1.9704,0.50367-0.571,1.1369-1.0281,1.898-1.3701,0.76116-0.343,1.6652-0.5145,2.7119-0.5145,1.5986,0,2.8973,0.4183,3.8966,1.256,0.99888,0.8367,1.6598,1.8846,1.9838,3.1407l-3.1114,1.026c-0.0572-0.2845-0.15238-0.5606-0.28562-0.8273-0.13314-0.2656-0.31417-0.5093-0.54206-0.7268-0.22841-0.2186-0.50462-0.3954-0.8281-0.5293-0.32358-0.1328-0.69496-0.1987-1.1133-0.1987-0.4951,0-0.91835,0.085-1.2701,0.2573-0.35266,0.1715-0.64225,0.3953-0.87066,0.6704-0.22831,0.2761-0.39993,0.5846-0.51393,0.9266-0.11431,0.3441-0.17109,0.685-0.17109,1.0281v7.9065c0,0.4194,0.0568,0.8179,0.17109,1.2006,0.114,0.3797,0.29012,0.7123,0.52826,0.9978,0.23782,0.2855,0.53233,0.5093,0.88488,0.6714,0.35172,0.1611,0.76556,0.2426,1.2415,0.2426,0.70395,0,1.3032-0.2008,1.7983-0.6003,0.49479-0.3995,0.80896-0.9506,0.94209-1.6545l3.1114,0.9988"/>
  <path d="m-301.32,1186.1,3.283,0,0-19.869-3.283,0,0,19.869z"/>
  <path d="m-281.55,1186.1,0-11.618-0.11399,0-1.4558,3.7107-1.8846,4.3381-2.3113,0-1.9411-4.4814-1.4276-3.5966-0.114,0.029,0,11.618-3.2546,0,0-19.869,3.1114,0,2.7976,6.5083,1.9411,4.7962,0.11399,0,1.9128-4.8234,2.7412-6.4811,3.1386,0,0,19.869-3.2536,0"/>
  <path d="m-274.36,1186.1,0-19.869,11.047,0,0,3.0277-7.7936,0,0,5.3077,6.7091,0,0,2.9691-6.7091,0,0,5.4812,7.7936,0,0,3.0832-11.047,0"/>
  <path d="m-253.65,1165c-0.79902,0-1.4694-0.1423-2.0122-0.4278-0.54175-0.2855-0.97996-0.6369-1.3125-1.0552-0.33362-0.4194-0.57626-0.8764-0.72895-1.3701-0.15165-0.4957-0.23741-0.9506-0.25623-1.37h2.4546c0.0188,0.2081,0.0711,0.4225,0.15688,0.6411,0.0858,0.2196,0.20917,0.4235,0.37127,0.6149,0.16106,0.1893,0.35245,0.3472,0.57103,0.4707,0.21858,0.1234,0.47063,0.1851,0.75614,0.1851,0.30434,0,0.57103-0.062,0.80007-0.1851,0.22799-0.1235,0.41729-0.2814,0.56998-0.4707,0.15269-0.1914,0.26669-0.3953,0.34304-0.6149,0.0753-0.2186,0.11399-0.433,0.11399-0.6411h2.4264c-0.0387,0.4194-0.13805,0.8743-0.30016,1.37-0.16106,0.4937-0.40369,0.9507-0.72686,1.3701-0.32421,0.4183-0.753,0.7697-1.2853,1.0552-0.53233,0.2855-1.1797,0.4278-1.9411,0.4278zm-6.5658,21.125,0-19.869,3.2264,0,0,13.304c0.0188,0,0.0335,0,0.0429,0.013,0.009,0.01,0.024,0.014,0.0429,0.014,0.43716-0.8178,0.85131-1.6357,1.2414-2.4546,0.39009-0.8178,0.78542-1.6357,1.1849-2.4535,0.72268-1.4087,1.4359-2.807,2.1408-4.1969,0.70384-1.3889,1.4077-2.7977,2.1126-4.2252h3.0256v19.869h-3.2546v-12.96h-0.0565c-0.32421,0.6275-0.64738,1.2665-0.97159,1.9128-0.32316,0.6463-0.64633,1.2843-0.96949,1.9118l-4.6822,9.1354h-3.0831"/>
  <path d="m-234.38,1186.1,0-8.5937-5.5942,0,0,8.5937-3.2829,0,0-19.869,3.2829,0,0,8.3354,5.5942,0,0-8.3354,3.2546,0,0,19.869-3.2546,0"/>
  <path d="m-227.12,1186.1,0-19.869,3.2254,0,0,13.304c0.0188,0,0.0335,0,0.0429,0.013,0.009,0.01,0.0241,0.014,0.0429,0.014,0.43821-0.8178,0.85132-1.6357,1.2414-2.4546,0.39009-0.8178,0.78542-1.6357,1.1849-2.4535,0.72268-1.4087,1.437-2.807,2.1408-4.1969,0.70385-1.3889,1.4088-2.7977,2.1126-4.2252h3.0256v19.869h-3.2546v-12.96h-0.0565c-0.32421,0.6275-0.64737,1.2665-0.97053,1.9128-0.32421,0.6463-0.64738,1.2843-0.97054,1.9118l-4.6812,9.1354h-3.0831"/>
  <path d="m-203.6,1165c-0.79902,0-1.4704-0.1423-2.0122-0.4278-0.54279-0.2855-0.97995-0.6369-1.3125-1.0552-0.33362-0.4194-0.5773-0.8764-0.72895-1.3701-0.15269-0.4957-0.2374-0.9506-0.25728-1.37h2.4546c0.0199,0.2081,0.0711,0.4225,0.15897,0.6411,0.0837,0.2196,0.20812,0.4235,0.36918,0.6149,0.1621,0.1893,0.35349,0.3472,0.57207,0.4707,0.21753,0.1234,0.47063,0.1851,0.75614,0.1851,0.30434,0,0.57103-0.062,0.79902-0.1851,0.22904-0.1235,0.41834-0.2814,0.57103-0.4707,0.15165-0.1914,0.26564-0.3953,0.34304-0.6149,0.0753-0.2186,0.11399-0.433,0.11399-0.6411h2.4274c-0.0387,0.4194-0.1391,0.8743-0.30121,1.37-0.1621,0.4937-0.40369,0.9507-0.7279,1.3701-0.32316,0.4183-0.75196,0.7697-1.2843,1.0552-0.53338,0.2855-1.1797,0.4278-1.9411,0.4278zm-6.5658,21.125,0-19.869,3.2264,0,0,13.304c0.0188,0,0.0324,0,0.0418,0.013,0.009,0.01,0.0251,0.014,0.0439,0.014,0.43611-0.8178,0.85131-1.6357,1.2414-2.4546,0.38905-0.8178,0.78542-1.6357,1.1849-2.4535,0.72268-1.4087,1.437-2.807,2.1408-4.1969,0.7028-1.3889,1.4087-2.7977,2.1126-4.2252h3.0256v19.869h-3.2546v-12.96h-0.0565c-0.32421,0.6275-0.64842,1.2665-0.97054,1.9128-0.32421,0.6463-0.64842,1.2843-0.97054,1.9118l-4.6822,9.1354h-3.0831"/>
  <path d="m-180.28,1176.7c0,1.5782-0.0805,2.9441-0.24054,4.0955-0.16315,1.1515-0.44867,2.122-0.85759,2.9116-0.41101,0.7897-0.9559,1.4182-1.642,1.8826-0.68397,0.4674-1.5405,0.8053-2.5696,1.0134l-0.88374-2.5393c0.60764-0.2468,1.117-0.5386,1.5259-0.8723,0.40997-0.3315,0.73732-0.7561,0.98623-1.2696,0.24682-0.5125,0.42252-1.1515,0.52919-1.9118,0.10459-0.7614,0.15583-1.7131,0.15583-2.8551v-10.848h10.733v19.869h-3.2264v-16.841h-4.5107v7.3648"/>
  <path d="m-168.46,1186.1,3.2817,0,0-19.869-3.2817,0,0,19.869z"/>
  <path d="m-161.18,1186.1,0-19.869,3.2829,0,0,8.3354,1.5708,0c0.28551,0,0.57939-0.037,0.88374-0.114,0.30433-0.075,0.59403-0.2144,0.87013-0.4131,0.27611-0.2008,0.53443-0.4864,0.77183-0.8566,0.23741-0.3723,0.43192-0.8523,0.58462-1.4411l1.4569-5.452h3.1386l-1.5416,5.8515c-0.24682,0.9705-0.59823,1.7747-1.0553,2.4117-0.45704,0.639-0.98936,1.0615-1.5991,1.2696,0.80111,0.2688,1.4182,0.7196,1.8564,1.3565,0.43715,0.6379,0.76868,1.4505,0.99877,2.4399l1.6556,6.4811h-3.3404l-1.3983-5.6528c-0.30434-1.1985-0.72372-1.9934-1.256-2.3824-0.53234-0.3901-1.1609-0.5867-1.8836-0.5867h-1.7131v8.6219h-3.2829"/>
  <path d="m-139.76,1175-1.028,3.9962,4.0537,0-0.99877-3.9669c-0.0387-0.1715-0.10144-0.4571-0.18511-0.8566-0.0879-0.3995-0.18198-0.8178-0.28552-1.256-0.10667-0.4382-0.20498-0.8513-0.3012-1.2425-0.0952-0.3901-0.1527-0.6693-0.17046-0.8419h-0.14224l-0.94231,4.1677zm3.7671,6.9078-5.5084,0c-0.0387,0.1715-0.11399,0.457-0.22799,0.8565-0.11609,0.3995-0.23322,0.8273-0.35663,1.2853-0.1255,0.4571-0.2395,0.8848-0.34408,1.2843-0.10353,0.3995-0.18511,0.685-0.24264,0.8566h-3.3958l5.7375-19.869h3.1396l5.7668,19.869h-3.4554l-1.1128-4.2827"/>
  <path d="m-119.67,1172.3c0-0.9841-0.23741-1.7371-0.71222-2.26-0.4769-0.5208-1.2006-0.7792-2.1712-0.7792h-2.7098v6.136h2.739c0.97054,0,1.688-0.2782,2.1555-0.8378,0.46539-0.5595,0.69862-1.3125,0.69862-2.259zm3.2254,0.071c0,0.8565-0.12342,1.6545-0.37023,2.3981-0.24682,0.7425-0.61391,1.3888-1.0992,1.941-0.48528,0.5522-1.0981,0.9831-1.8417,1.2979-0.74255,0.3148-1.6085,0.4717-2.5968,0.4717h-2.9106v7.6221h-3.2557v-19.869h5.9947c0.93185,0,1.7696,0.1255,2.5121,0.3723,0.74255,0.2469,1.3795,0.6234,1.9118,1.1275,0.53337,0.503,0.94229,1.142,1.2278,1.9118,0.28552,0.7718,0.42775,1.6806,0.42775,2.7265"/>
  <path d="m-281.02,1217.6,0-13.986-4.9092,0-0.22904,5.9665c-0.0377,0.8566-0.0763,1.6838-0.11295,2.4829-0.0387,0.7979-0.1004,1.5415-0.18616,2.2266-0.0858,0.685-0.20498,1.3073-0.35663,1.8699-0.15269,0.5606-0.36186,1.0417-0.62855,1.4401h6.4225zm-8.6491,6.9946-2.8248,0,0-6.7645c0.24577-0.039,0.48422-0.082,0.71326-0.1297,0.228-0.048,0.4654-0.1004,0.71326-0.1558,0.41834-0.3629,0.74673-0.7812,0.98518-1.2561,0.23741-0.4769,0.42775-1.0604,0.56999-1.7559,0.14328-0.6944,0.24263-1.5123,0.30015-2.4556,0.0565-0.9413,0.10459-2.0488,0.14328-3.3248l0.28552-8.1073h10.96c0,2.8363,0.005,5.6632,0.0147,8.4776,0.009,2.8175,0.0147,5.6444,0.0147,8.4775h1.5698v6.9946h-2.8259v-4.0829h-10.619v4.0829"/>
  <path d="m-267.63,1211.1c0,1.5792-0.0805,2.9461-0.24263,4.0955-0.16106,1.1525-0.44658,2.122-0.8555,2.9137-0.40997,0.7886-0.95694,1.4161-1.642,1.8825-0.68502,0.4675-1.5416,0.8043-2.5696,1.0134l-0.88478-2.5413c0.60973-0.2469,1.118-0.5366,1.528-0.8702,0.40892-0.3315,0.73731-0.7561,0.98413-1.2696,0.24786-0.5125,0.42356-1.1515,0.52815-1.9118,0.10458-0.7624,0.15687-1.7131,0.15687-2.8552v-10.847h10.733v19.867h-3.2254v-16.841h-4.5107v7.3648"/>
  <path d="m-252.69,1206.6c0,0.9517,0.28028,1.6137,0.84294,1.9839,0.56057,0.3723,1.2602,0.5574,2.0969,0.5574h2.5403v-5.5105h-2.6261c-0.96949,0-1.688,0.2688-2.1544,0.8011-0.46644,0.5324-0.69966,1.2561-0.69966,2.1681zm8.7631-5.9655,0,19.867-3.2829,0,0-8.4201-1.7696,0c-0.64633,0-1.2466,0.2144-1.7978,0.6432-0.5522,0.4277-0.98099,1.2309-1.2853,2.4117l-1.1985,5.3652h-3.3969l1.3418-5.9362c0.19035-0.7604,0.44658-1.4287,0.77079-1.9997,0.32316-0.571,0.81784-0.9872,1.484-1.255-1.0657-0.3608-1.8177-0.9841-2.2548-1.8699-0.4382-0.8838-0.65678-1.8501-0.65678-2.896,0-0.9151,0.13805-1.7371,0.41415-2.4692,0.2761-0.7342,0.6662-1.3565,1.1703-1.87,0.5041-0.5156,1.1086-0.9046,1.8124-1.1713,0.70385-0.2656,1.4851-0.3995,2.3406-0.3995h6.3085"/>
  <path d="m-225.66,1203.6,0,16.898-3.2546,0,0-16.898-4.3674,0,0-2.9691,12.018,0,0,2.9691-4.3957,0"/>
  <path d="m-209.56,1214.5c0-0.8409-0.20812-1.5207-0.62645-2.0352-0.41834-0.5167-1.1138-0.776-2.0844-0.776h-2.8541v5.7939h2.8823c0.51455,0,0.9423-0.075,1.2843-0.2269,0.34303-0.1548,0.61913-0.3692,0.82726-0.6464,0.21021-0.2782,0.35663-0.5982,0.44448-0.9611,0.0847-0.3629,0.12654-0.7467,0.12654-1.1483zm-0.28551-8.2632c0-0.799-0.2144-1.4265-0.64005-1.8835-0.4288-0.4571-1.119-0.6851-2.0708-0.6851h-2.5686v5.1947h2.5968c0.93289,0,1.6137-0.2416,2.0425-0.7279,0.42565-0.4842,0.64005-1.1169,0.64005-1.8982zm3.4826,8.4504c0,1.9024-0.50932,3.3571-1.5259,4.3664-1.0186,1.0092-2.3824,1.5123-4.0966,1.5123h-6.3943v-19.867h6.0805c1.8825,0,3.2965,0.4863,4.2388,1.4569,0.94125,0.9705,1.4119,2.2924,1.4119,3.9668,0,0.8377-0.1757,1.6096-0.52606,2.3113-0.35349,0.7039-0.98622,1.2655-1.8992,1.6838v0.1433c0.47481,0.1527,0.88373,0.3765,1.2268,0.6714,0.34408,0.295,0.62436,0.6422,0.84399,1.0417,0.21753,0.3995,0.37964,0.8335,0.48422,1.2989,0.10354,0.4665,0.15583,0.9371,0.15583,1.414"/>
  <path d="m-198.1,1209.3-1.0281,3.9961,4.0537,0-0.99982-3.9689c-0.0387-0.1695-0.1004-0.456-0.18511-0.8545-0.0847-0.4016-0.18093-0.8178-0.28552-1.256-0.10458-0.4383-0.20393-0.8534-0.29911-1.2425-0.0962-0.3901-0.15269-0.6714-0.17151-0.8419h-0.14224l-0.9423,4.1677zm3.7682,6.9077-5.5105,0c-0.0376,0.1716-0.11295,0.4571-0.22694,0.8566-0.114,0.3995-0.23323,0.8272-0.35768,1.2853-0.12341,0.4549-0.23741,0.8827-0.34094,1.2822-0.10563,0.4016-0.18721,0.6871-0.24368,0.8566h-3.3969l5.7375-19.867h3.1396l5.7668,19.867h-3.4544l-1.1128-4.2807"/>
  <path d="m-178,1206.7c0-0.9831-0.23949-1.7382-0.71326-2.2591-0.4769-0.5208-1.2006-0.7812-2.1712-0.7812h-2.7108v6.137h2.7401c0.97054,0,1.688-0.2782,2.1544-0.8367,0.46749-0.5595,0.70071-1.3125,0.70071-2.26zm3.2264,0.072c0,0.8566-0.1255,1.6545-0.37232,2.3981-0.24682,0.7405-0.61391,1.3889-1.0981,1.9401-0.48632,0.5522-1.1002,0.9841-1.8428,1.2989-0.74046,0.3148-1.6075,0.4706-2.5968,0.4706h-2.9116v7.6211h-3.2546v-19.867h5.9948c0.93184,0,1.7706,0.1234,2.5121,0.3702,0.74254,0.2489,1.3795,0.6254,1.9118,1.1295,0.53443,0.5031,0.94335,1.1421,1.2289,1.9118,0.28552,0.7718,0.4288,1.6807,0.4288,2.7265"/>
  <path d="m-171.78,1220.5,0-19.867,3.2254,0,0,13.302c0.0199,0,0.0335,0.01,0.0429,0.015,0.009,0.01,0.023,0.014,0.0429,0.014,0.43716-0.8179,0.85236-1.6368,1.2425-2.4546,0.38905-0.8179,0.78438-1.6357,1.1839-2.4535,0.72372-1.4088,1.4359-2.8071,2.1398-4.197,0.70385-1.3889,1.4087-2.7976,2.1126-4.2252h3.0277v19.867h-3.2557v-12.96h-0.0575c-0.32421,0.6296-0.64633,1.2665-0.97054,1.915-0.32421,0.6463-0.64633,1.2832-0.97054,1.9117l-4.6801,9.1334h-3.0831"/>
  <path d="m-145.94,1220.5,0-8.5916-5.5952,0,0,8.5916-3.2818,0,0-19.867,3.2818,0,0,8.3353,5.5952,0,0-8.3353,3.2546,0,0,19.867-3.2546,0"/>
  <path d="m-216.9,980.05c-39.137,0-70.977,31.846-70.977,70.978,0,39.143,31.84,70.981,70.977,70.981,39.143,0,70.985-31.838,70.985-70.981,0-39.132-31.843-70.978-70.985-70.978zm0,148.14c-42.54,0-77.15-34.613-77.15-77.162,0-42.543,34.611-77.157,77.15-77.157,42.547,0,77.156,34.614,77.156,77.157,0,42.549-34.609,77.162-77.156,77.162"/>
  <path d="m-216.9,1069.2c-13.788,0-25.384-12.689-28.197-30.864-0.25936-1.6922,0.89524-3.2641,2.5759-3.5193,1.6922-0.2677,3.2641,0.889,3.5255,2.5697,2.2977,14.862,11.595,25.64,22.095,25.64,10.506,0,19.799-10.777,22.096-25.64,0.25832-1.6807,1.8365-2.8374,3.5172-2.5759,1.6922,0.2614,2.8405,1.8333,2.5822,3.5255-2.8112,18.175-14.407,30.864-28.196,30.864"/>
  <path d="m-209.49,1018.4c-0.7917,0-1.5939-0.3169-2.2057-0.9339-1.1891-1.2174-1.1619-3.1762,0.0491-4.3601,1.4579-1.4297,2.2642-3.3362,2.2642-5.3662,0-1.7037,1.3816-3.0884,3.0831-3.0884h13.585c1.7047,0,3.0884,1.3847,3.0884,3.0884s-1.3836,3.0831-3.0884,3.0831h-10.843c-0.58253,2.5163-1.87,4.8255-3.7671,6.6861-0.59927,0.5846-1.3868,0.891-2.1659,0.891"/>
  <path d="m-224.31,1018.4c-0.7802,0-1.5531-0.3064-2.1586-0.891-1.894-1.8606-3.1794-4.1698-3.7608-6.6861h-10.85c-1.7058,0-3.0842-1.3794-3.0842-3.0831s1.3784-3.0884,3.0842-3.0884h13.581c1.7058,0,3.0884,1.3847,3.0884,3.0884,0,2.03,0.8053,3.9365,2.2632,5.3662,1.2142,1.1839,1.2393,3.1427,0.0408,4.3601-0.59822,0.617-1.4004,0.9339-2.2046,0.9339"/>
  <path d="m-216.9,1000.2c-4.1415,0-7.5102,3.3603-7.5102,7.5029,0,4.1373,3.3686,7.5091,7.5102,7.5091,4.1405,0,7.5123-3.3718,7.5123-7.5091,0-4.1426-3.3718-7.5029-7.5123-7.5029zm0,21.187c-7.5447,0-13.68-6.1412-13.68-13.684,0-7.5415,6.1349-13.687,13.68-13.687,7.5374,0,13.687,6.1454,13.687,13.687,0,7.5426-6.1495,13.684-13.687,13.684"/>
  <path d="m-217.01,1096.5c-4.9395,0-10.618-1.5332-15.948-4.4908-1.4924-0.8241-2.0279-2.7077-1.1975-4.197,0.82935-1.4966,2.7066-2.0258,4.197-1.1964,6.7321,3.7336,14.397,4.8203,18.211,2.5759,1.6116-0.9496,2.3636-2.4169,2.3636-4.6226,0-2.4504-1.3774-3.6835-4.0108-5.8442-2.9336-2.4023-6.5898-5.3923-6.5898-11.403,0-1.7016,1.3826-3.0769,3.0884-3.0769s3.081,1.3753,3.081,3.0769c0,2.9367,1.5667,4.3621,4.3308,6.6253,2.7976,2.2883,6.275,5.133,6.275,10.622,0,4.3601-1.9222,7.8929-5.4101,9.9386-2.2747,1.3429-5.1675,1.9923-8.3908,1.9923"/>
  <path d="m-237.6,1082.4c-1.9724,0-3.5799,1.6117-3.5799,3.581,0,1.9766,1.6075,3.5851,3.5799,3.5851,1.9808,0,3.583-1.6085,3.583-3.5851,0-1.9693-1.6022-3.581-3.583-3.581zm0,13.34c-5.3756,0-9.7524-4.3779-9.7524-9.7587,0-5.3767,4.3768-9.7525,9.7524-9.7525,5.3871,0,9.7556,4.3758,9.7556,9.7525,0,5.3808-4.3685,9.7587-9.7556,9.7587"/>
  <path d="m-216.9,1101.2,6.8314,0.016,0.005,0c11.45,0,21.492-0.2562,28.396-3.3247,7.0301-3.125,10.163-9.0162,10.163-19.106,0-17.736-10.206-33.67-26.16-41.129-5.3516,4.6111-12.101,7.1326-19.236,7.1326-7.1274,0-13.881-2.5215-19.23-7.1326-15.958,7.4652-26.165,23.395-26.165,41.129,0,20.216,12.351,22.431,38.564,22.431l6.8304-0.016zm6.8366,6.1841-0.005,0-6.8314-0.012-6.8304,0.012c-20.973,0-44.732,0-44.732-28.6,0-20.892,12.46-39.585,31.751-47.614,1.1483-0.48,2.4807-0.2227,3.3624,0.6547,4.4019,4.3779,10.241,6.7896,16.449,6.7896,6.2018,0,12.048-2.4117,16.455-6.7896,0.87537-0.8774,2.213-1.1347,3.353-0.6547,19.293,8.0289,31.752,26.722,31.752,47.614,0,12.51-4.5159,20.614-13.82,24.747-8.009,3.5694-18.732,3.8529-30.904,3.8529"/>
  <path d="m-216.9,991.98c-12.866,0-23.334,10.467-23.334,23.333,0,12.869,10.468,23.336,23.334,23.336,12.87,0,23.335-10.467,23.335-23.336,0-12.866-10.465-23.333-23.335-23.333zm0,52.842c-16.269,0-29.507-13.241-29.507-29.509,0-16.276,13.238-29.51,29.507-29.51,16.272,0,29.507,13.234,29.507,29.51,0,16.268-13.235,29.509-29.507,29.509"/>
 </g>
</svg>
