<?xml version="1.0" encoding="UTF-8" standalone="no"?>
<!-- Created with Inkscape (http://www.inkscape.org/) -->
<svg xmlns:rdf="http://www.w3.org/1999/02/22-rdf-syntax-ns#" xmlns="http://www.w3.org/2000/svg" version="1.1" xmlns:cc="http://creativecommons.org/ns#" xmlns:dc="http://purl.org/dc/elements/1.1/" viewBox="0 0 200 275.27">
 <metadata>
  <rdf:RDF>
   <cc:Work rdf:about="">
    <dc:format>image/svg+xml</dc:format>
    <dc:type rdf:resource="http://purl.org/dc/dcmitype/StillImage"/>
    <dc:title/>
   </cc:Work>
  </rdf:RDF>
 </metadata>
 <g fill-rule="nonzero" transform="translate(251.28489,-870.78005)" fill="#38a6e3">
  <path d="m-212.99,1145.9-4.7715,0c0.1952-0.3701,0.47173-0.9083,0.82959-1.6104,0.35786-0.7022,0.76046-1.4857,1.2037-2.3492,0.44461-0.8648,0.90685-1.7622,1.3867-2.7002,0.48393-0.938,0.93803-1.8381,1.3704-2.7029,0.43106-0.8635,0.82552-1.6457,1.1834-2.3478,0.35786-0.7035,0.63575-1.2417,0.8323-1.6118l-6.3642-12.43h4.8094l3.7765,8.3257,3.8457-8.3257h4.7742l-6.4022,12.43,6.8441,13.322h-4.7335l-4.293-9.1404-4.2916,9.1404"/>
  <path d="m-195.94,1145.9,4.2562,0,0-25.752-4.2562,0,0,25.752z"/>
  <path d="m-175.01,1128c0-1.2756-0.31041-2.2502-0.92583-2.9253-0.61812-0.6764-1.5548-1.0126-2.8127-1.0126h-3.5136v7.9516h3.5502c1.2579,0,2.1892-0.3606,2.7938-1.0858,0.60593-0.7238,0.90821-1.6998,0.90821-2.9279zm4.1778,0.092c0,1.1116-0.15995,2.1459-0.47986,3.1083-0.31991,0.9638-0.7957,1.8015-1.4247,2.5159-0.62761,0.7157-1.4233,1.2782-2.3858,1.6836-0.96378,0.4066-2.0835,0.6099-3.3658,0.6099h-3.7738v9.8806h-4.2184v-25.752h7.7686c1.2091,0,2.2936,0.1626,3.256,0.4825,0.96379,0.3199,1.788,0.8079,2.4793,1.46,0.68997,0.656,1.22,1.4815,1.59,2.4779,0.37007,1.0004,0.55442,2.1783,0.55442,3.5338"/>
  <path d="m-155.01,1130.3c-1.0383,3.3672-2.1106,6.7519-3.2208,10.157-0.39311,1.2078-0.81332,2.1757-1.2593,2.9036-0.4419,0.7279-0.91227,1.2823-1.4043,1.666-0.49342,0.3822-1.0234,0.6343-1.5914,0.7577-0.56797,0.122-1.182,0.1966-1.8503,0.2223h-2.0699v-3.4783h1.5155c0.51917,0,0.96786-0.1356,1.3501-0.408,0.38226-0.2698,0.7469-0.7998,1.0926-1.5901,0.0502-0.1477,0.1098-0.3036,0.18571-0.4622,0.0718-0.1613,0.1342-0.3389,0.18435-0.5354l-6.6964-19.388h4.3648l2.4413,7.9543,1.8517,6.0674h0.18435c0.19791-0.6913,0.47444-1.6633,0.8323-2.9212s0.73334-2.5864,1.1278-3.9785c0.39581-1.3935,0.77807-2.7395,1.1481-4.0314,0.37007-1.2959,0.65202-2.3261,0.84993-3.0906h4.1439c-1.0858,3.4024-2.1458,6.7885-3.1801,10.156"/>
  <path d="m-136.54,1128c0-1.2756-0.31042-2.2502-0.92583-2.9253-0.61813-0.6764-1.5534-1.0126-2.8127-1.0126h-3.5136v7.9516h3.5502c1.2579,0,2.1919-0.3606,2.7938-1.0858,0.60592-0.7238,0.90821-1.6998,0.90821-2.9279zm4.1805,0.092c0,1.1116-0.16266,2.1459-0.48257,3.1083-0.3199,0.9638-0.7957,1.8015-1.4233,2.5159-0.62897,0.7157-1.4247,1.2782-2.3871,1.6836-0.96108,0.4066-2.0835,0.6099-3.3658,0.6099h-3.7738v9.8806h-4.2198v-25.752h7.7699c1.2091,0,2.2963,0.1626,3.256,0.4825,0.96378,0.3199,1.788,0.8079,2.4793,1.46,0.69268,0.656,1.2227,1.4815,1.5928,2.4779,0.37006,1.0004,0.55441,2.1783,0.55441,3.5338"/>
  <path d="m-124.22,1124.1,0,21.828-4.2198,0,0-25.752,14.172,0,0,3.9242-9.9524,0"/>
  <path d="m-110.38,1145.9,4.2541,0,0-25.752-4.2541,0,0,25.752z"/>
  <path d="m-96.85,1127.9c0,1.2349,0.36193,2.0916,1.0899,2.5729,0.72792,0.4812,1.6334,0.7211,2.7206,0.7211h3.2912v-7.1396h-3.4038c-1.2579,0-2.1878,0.3457-2.7938,1.0356-0.60457,0.69-0.90414,1.628-0.90414,2.81zm11.358-7.7319,0,25.752-4.2564,0,0-10.916-2.2936,0c-0.83772,0-1.6158,0.2779-2.3302,0.8323-0.71572,0.5558-1.2701,1.5982-1.666,3.1272l-1.5521,6.9567h-4.4041l1.7405-7.6968c0.24536-0.9855,0.57746-1.8489,0.99768-2.5891,0.42022-0.7401,1.06-1.2823,1.9235-1.628-1.3813-0.4703-2.3559-1.2769-2.9212-2.4223-0.56796-1.1482-0.85263-2.4007-0.85263-3.7562,0-1.1861,0.17893-2.2515,0.53679-3.2018,0.35787-0.9475,0.86348-1.7581,1.5155-2.4223,0.65608-0.6656,1.4382-1.1712,2.3505-1.5182,0.91363-0.343,1.9235-0.5178,3.0337-0.5178h8.178"/>
  <path d="m-151.28,878.78c-24.576,0-47.672,9.5782-65.047,26.943-17.379,17.382-26.953,40.479-26.953,65.059,0,24.575,9.5742,47.678,26.953,65.054,17.375,17.379,40.471,26.943,65.047,26.943s47.676-9.5633,65.054-26.943c17.377-17.375,26.944-40.479,26.944-65.054,0-24.58-9.5674-47.677-26.944-65.059-17.378-17.364-40.478-26.943-65.054-26.943zm0,192c-26.708,0-51.821-10.4-70.701-29.288-18.898-18.893-29.301-43.998-29.301-70.71,0-26.719,10.404-51.822,29.301-70.703,18.88-18.892,43.993-29.301,70.701-29.301,26.715,0,51.826,10.409,70.71,29.301,18.888,18.881,29.288,43.984,29.288,70.703,0,26.712-10.4,51.817-29.288,70.71-18.884,18.888-43.995,29.288-70.71,29.288"/>
  <path d="m-161.24,979.15,7.3931,7.3917,63.455-63.461-7.3931-7.3918-63.455,63.461zm7.3931,17.047c-1.0234,0-2.0482-0.38769-2.8263-1.1685l-13.051-13.051c-1.5616-1.5629-1.5616-4.0883,0-5.6512l69.117-69.117c1.5575-1.5656,4.0937-1.5656,5.6553,0l13.052,13.051c1.5521,1.5629,1.5521,4.0883,0,5.6594l-69.123,69.109c-0.78214,0.78078-1.8056,1.1685-2.8249,1.1685"/>
  <path d="m-207.31,1025.2c2.6108,0.9706,6.2124,1.9032,10.401,1.9032,8.5046,0,16.58-3.763,24.007-11.198,6.5716-6.5635,9.8127-13.164,9.6324-19.623-0.12471-4.8311-2.1729-8.7419-3.908-11.227l-40.132,40.144zm10.401,9.9063c-11.274,0-19.116-5.2378-19.444-5.4628-0.98954-0.6724-1.6199-1.7473-1.7297-2.928-0.12065-1.1902,0.30228-2.3708,1.1468-3.2058l47.169-47.169c1.4979-1.5046,3.9189-1.5778,5.5021-0.15453,0.34973,0.32533,8.6727,7.9218,8.9953,19.871,0.23722,8.7419-3.7887,17.329-11.973,25.507-8.9804,8.9926-18.961,13.542-29.666,13.542"/>
 </g>
</svg>
