<?xml version="1.0" encoding="UTF-8" standalone="no"?>
<!-- Created with Inkscape (http://www.inkscape.org/) -->

<svg
   xmlns:dc="http://purl.org/dc/elements/1.1/"
   xmlns:cc="http://creativecommons.org/ns#"
   xmlns:rdf="http://www.w3.org/1999/02/22-rdf-syntax-ns#"
   xmlns:svg="http://www.w3.org/2000/svg"
   xmlns="http://www.w3.org/2000/svg"
   xmlns:sodipodi="http://sodipodi.sourceforge.net/DTD/sodipodi-0.dtd"
   xmlns:inkscape="http://www.inkscape.org/namespaces/inkscape"
   width="200"
   height="267.82925"
   id="svg13318"
   version="1.1"
   inkscape:version="0.48.4 r9939"
   sodipodi:docname="therapy.svg">
  <defs
     id="defs13320" />
  <sodipodi:namedview
     id="base"
     pagecolor="#ffffff"
     bordercolor="#666666"
     borderopacity="1.0"
     inkscape:pageopacity="0.0"
     inkscape:pageshadow="2"
     inkscape:zoom="0.35"
     inkscape:cx="557.71685"
     inkscape:cy="577.95672"
     inkscape:document-units="px"
     inkscape:current-layer="layer1"
     showgrid="false"
     inkscape:window-width="1855"
     inkscape:window-height="1056"
     inkscape:window-x="65"
     inkscape:window-y="24"
     inkscape:window-maximized="1"
     fit-margin-top="0"
     fit-margin-left="0"
     fit-margin-right="0"
     fit-margin-bottom="0" />
  <metadata
     id="metadata13323">
    <rdf:RDF>
      <cc:Work
         rdf:about="">
        <dc:format>image/svg+xml</dc:format>
        <dc:type
           rdf:resource="http://purl.org/dc/dcmitype/StillImage" />
        <dc:title></dc:title>
      </cc:Work>
    </rdf:RDF>
  </metadata>
  <g
     inkscape:label="Layer 1"
     inkscape:groupmode="layer"
     id="layer1"
     transform="translate(182.71685,-842.48964)">
    <path
       inkscape:connector-curvature="0"
       d="m -82.720916,850.50352 c -50.733344,0 -92.002384,41.26227 -92.002384,92.00374 0,50.71166 41.26904,91.98884 92.002384,91.98884 50.727918,0 91.9969633,-41.27718 91.9969633,-91.98884 0,-50.74147 -41.2690453,-92.00374 -91.9969633,-92.00374 z m 0,191.99968 c -55.137454,0 -99.995934,-44.86255 -99.995934,-99.99594 0,-55.14829 44.85848,-100.01762 99.995934,-100.01762 55.144229,0 100.004066,44.86933 100.004066,100.01762 0,55.13339 -44.859837,99.99594 -100.004066,99.99594"
       style="fill:#38a6e3;fill-opacity:1;fill-rule:nonzero;stroke:none"
       id="path12702" />
    <path
       inkscape:connector-curvature="0"
       d="m -117.34381,969.12034 23.527899,0 0,-11.6738 c 0,-2.10785 1.630699,-3.84835 3.723635,-3.98797 5.294691,-0.3687 9.441251,-4.81212 9.441251,-10.09597 l 0,-51.85978 c 0,-5.57935 -4.545086,-10.13528 -10.147482,-10.13528 l -29.569483,0 c -5.58884,0 -10.13257,4.55593 -10.13257,10.13528 l 0,51.85978 c 0,5.28385 4.1452,9.72727 9.43312,10.09597 2.10106,0.13962 3.72363,1.88012 3.72363,3.98797 l 0,11.6738 z m 27.530772,8.00711 -31.526862,0 c -2.21087,0 -4.00423,-1.80557 -4.00423,-4.00423 l 0,-12.3448 c -7.61536,-2.17969 -13.16489,-9.22301 -13.16489,-17.41582 l 0,-51.85978 c 0,-9.99295 8.13181,-18.13425 18.14103,-18.13425 l 29.569483,0 c 10.005152,0 18.146452,8.1413 18.146452,18.13425 l 0,51.85978 c 0,8.19281 -5.548177,15.23613 -13.163531,17.41582 l 0,12.3448 c 0,2.19866 -1.786586,4.00423 -3.997452,4.00423"
       style="fill:#38a6e3;fill-opacity:1;fill-rule:nonzero;stroke:none"
       id="path12704" />
    <path
       inkscape:connector-curvature="0"
       d="m -76.65493,937.36304 -57.84308,0 c -2.21765,0 -4.01101,-1.79472 -4.01101,-3.9961 0,-2.2068 1.79336,-4.01101 4.01101,-4.01101 l 57.84308,0 c 2.209512,0 4.002875,1.80421 4.002875,4.01101 0,2.20138 -1.793363,3.9961 -4.002875,3.9961"
       style="fill:#38a6e3;fill-opacity:1;fill-rule:nonzero;stroke:none"
       id="path12706" />
    <path
       inkscape:connector-curvature="0"
       d="m -106.11733,924.25779 -16.2094,0 c -2.21764,0 -4.00423,-1.79065 -4.00423,-3.9988 0,-2.20545 1.78659,-4.00423 4.00423,-4.00423 l 16.2094,0 c 2.21765,0 4.00288,1.79878 4.00288,4.00423 0,2.20815 -1.78523,3.9988 -4.00288,3.9988"
       style="fill:#38a6e3;fill-opacity:1;fill-rule:nonzero;stroke:none"
       id="path12708" />
    <path
       inkscape:connector-curvature="0"
       d="m -106.11733,912.37117 -16.2094,0 c -2.21764,0 -4.00423,-1.78794 -4.00423,-3.9961 0,-2.21357 1.78659,-4.00287 4.00423,-4.00287 l 16.2094,0 c 2.21765,0 4.00288,1.7893 4.00288,4.00287 0,2.20816 -1.78523,3.9961 -4.00288,3.9961"
       style="fill:#38a6e3;fill-opacity:1;fill-rule:nonzero;stroke:none"
       id="path12710" />
    <path
       inkscape:connector-curvature="0"
       d="m -106.11733,900.48048 -16.2094,0 c -2.21764,0 -4.00423,-1.78252 -4.00423,-3.9961 0,-2.20815 1.78659,-3.99609 4.00423,-3.99609 l 16.2094,0 c 2.21765,0 4.00288,1.78794 4.00288,3.99609 0,2.21358 -1.78523,3.9961 -4.00288,3.9961"
       style="fill:#38a6e3;fill-opacity:1;fill-rule:nonzero;stroke:none"
       id="path12712" />
    <path
       inkscape:connector-curvature="0"
       d="m -84.630854,1019.0973 c -12.661987,0 -25.482566,-8.3135 -25.482566,-24.20295 l 0,-21.77113 c 0,-2.20816 1.79607,-4.00288 3.99609,-4.00288 2.21765,0 4.00288,1.79472 4.00288,4.00288 l 0,21.77113 c 0,11.13565 9.065768,16.19995 17.483596,16.19995 8.554734,0 17.197581,-5.006 17.197581,-16.19995 l 0,-28.42813 c 0,-8.62523 3.750745,-13.93618 6.917259,-16.86412 3.983896,-3.69924 9.472428,-5.81386 15.066692,-5.81386 5.58884,0 10.768313,2.03058 14.608523,5.72168 2.991649,2.8805 6.564822,8.16435 6.564822,16.9563 l 0,13.22182 c 0,2.21357 -1.785231,3.99609 -3.996097,3.99609 -2.217643,0 -4.011006,-1.78252 -4.011006,-3.99609 l 0,-13.22182 c 0,-4.7335 -1.417884,-8.60896 -4.114028,-11.19802 -2.327441,-2.2434 -5.538686,-3.48099 -9.052214,-3.48099 -6.736974,0 -13.983626,4.5993 -13.983626,14.67901 l 0,28.42813 c 0,15.88945 -12.668762,24.20295 -25.197906,24.20295"
       style="fill:#38a6e3;fill-opacity:1;fill-rule:nonzero;stroke:none"
       id="path12714" />
    <path
       inkscape:connector-curvature="0"
       d="m -137.50728,1088.419 0,21.8999 -4.21841,0 0,-21.8999 -5.66068,0 0,-3.8497 15.57637,0 0,3.8497 -5.69728,0"
       style="fill:#38a6e3;fill-opacity:1;fill-rule:nonzero;stroke:none"
       id="path12716" />
    <path
       inkscape:connector-curvature="0"
       d="m -128.07688,1110.3189 0,-25.7496 14.31709,0 0,3.9215 -10.10004,0 0,6.8821 8.69435,0 0,3.8483 -8.69435,0 0,7.1016 10.10004,0 0,3.9961 -14.31709,0"
       style="fill:#38a6e3;fill-opacity:1;fill-rule:nonzero;stroke:none"
       id="path12718" />
    <path
       inkscape:connector-curvature="0"
       d="m -98.253911,1092.4327 c 0,-1.2782 -0.309058,-2.2542 -0.924469,-2.9293 -0.616765,-0.675 -1.55343,-1.0126 -2.81136,-1.0126 l -3.51489,0 0,7.9556 3.55013,0 c 1.25928,0 2.190532,-0.3633 2.795097,-1.0857 0.60321,-0.7252 0.905492,-1.7012 0.905492,-2.928 z m 4.181804,0.092 c 0,1.1102 -0.161307,2.1458 -0.481211,3.1082 -0.32126,0.9597 -0.795695,1.8002 -1.42466,2.5159 -0.628966,0.7143 -1.42466,1.2755 -2.385729,1.6822 -0.962424,0.408 -2.084803,0.61 -3.367133,0.61 l -3.77379,0 0,9.8777 -4.2184,0 0,-25.7496 7.76853,0 c 1.20913,0 2.294907,0.16 3.255977,0.4812 0.962426,0.3226 1.789298,0.8079 2.479261,1.4626 0.691318,0.6534 1.221331,1.4802 1.591389,2.4779 0.37006,0.9977 0.555766,2.1784 0.555766,3.5339"
       style="fill:#38a6e3;fill-opacity:1;fill-rule:nonzero;stroke:none"
       id="path12720" />
    <path
       inkscape:connector-curvature="0"
       d="m -85.407572,1095.8175 -1.332484,5.1794 5.254026,0 -1.294529,-5.1442 c -0.05016,-0.2196 -0.13013,-0.5896 -0.241284,-1.1074 -0.111153,-0.5206 -0.234507,-1.0601 -0.370059,-1.628 -0.135552,-0.568 -0.264329,-1.1048 -0.387681,-1.6104 -0.124709,-0.5056 -0.197908,-0.8703 -0.222307,-1.0898 l -0.185708,0 -1.219974,5.4004 z m 4.88261,8.9532 -7.139565,0 c -0.05015,0.2223 -0.147752,0.5924 -0.295505,1.1102 -0.149108,0.5178 -0.303637,1.0722 -0.46359,1.666 -0.159953,0.5896 -0.307705,1.1454 -0.443257,1.6618 -0.135554,0.5206 -0.241285,0.8879 -0.314484,1.1102 l -4.402753,0 7.436426,-25.7496 4.069294,0 7.473025,25.7496 -4.475954,0 -1.443637,-5.5482"
       style="fill:#38a6e3;fill-opacity:1;fill-rule:nonzero;stroke:none"
       id="path12722" />
    <path
       inkscape:connector-curvature="0"
       d="m -59.628145,1110.3189 0,-21.8647 -6.993168,0 0,21.8647 -4.218401,0 0,-25.7496 15.429973,0 0,25.7496 -4.218404,0"
       style="fill:#38a6e3;fill-opacity:1;fill-rule:nonzero;stroke:none"
       id="path12724" />
    <path
       inkscape:connector-curvature="0"
       d="m -50.178759,1110.3189 4.254025,0 0,-25.7497 -4.254025,0 0,25.7497 z"
       style="fill:#38a6e3;fill-opacity:1;fill-rule:nonzero;stroke:none"
       id="path12726" />
    <path
       inkscape:connector-curvature="0"
       d="m -36.651948,1092.3026 c 0,1.2322 0.363282,2.0902 1.089846,2.5701 0.727918,0.4825 1.63341,0.7225 2.717833,0.7225 l 3.293932,0 0,-7.141 -3.402375,0 c -1.259285,0 -2.189176,0.3471 -2.793742,1.037 -0.605922,0.69 -0.905494,1.628 -0.905494,2.8114 z m 11.357969,-7.7333 0,25.7496 -4.256358,0 0,-10.912 -2.292197,0 c -0.839072,0 -1.61579,0.2779 -2.331508,0.8323 -0.715719,0.5544 -1.270129,1.5955 -1.664587,3.1258 l -1.553436,6.9539 -4.40411,0 1.737788,-7.694 c 0.248061,-0.9854 0.580164,-1.8503 1.000378,-2.5904 0.420214,-0.7401 1.060024,-1.2837 1.923494,-1.628 -1.381282,-0.4676 -2.355907,-1.2755 -2.923872,-2.4237 -0.567968,-1.1454 -0.849917,-2.3979 -0.849917,-3.7561 0,-1.182 0.180285,-2.2475 0.538145,-3.1977 0.356504,-0.9502 0.862116,-1.7581 1.515479,-2.4237 0.65472,-0.6669 1.438216,-1.1725 2.350486,-1.5182 0.91227,-0.3443 1.922139,-0.5178 3.033671,-0.5178 l 8.176544,0"
       style="fill:#38a6e3;fill-opacity:1;fill-rule:nonzero;stroke:none"
       id="path12728" />
  </g>
</svg>
