<?xml version="1.0" encoding="UTF-8" standalone="no"?>
<!-- Created with Inkscape (http://www.inkscape.org/) -->

<svg
   xmlns:dc="http://purl.org/dc/elements/1.1/"
   xmlns:cc="http://creativecommons.org/ns#"
   xmlns:rdf="http://www.w3.org/1999/02/22-rdf-syntax-ns#"
   xmlns:svg="http://www.w3.org/2000/svg"
   xmlns="http://www.w3.org/2000/svg"
   version="1.1"
   width="20.731001"
   height="20.730974"
   id="svg3122"
   xml:space="preserve"><metadata
     id="metadata3128"><rdf:RDF><cc:Work
         rdf:about=""><dc:format>image/svg+xml</dc:format><dc:type
           rdf:resource="http://purl.org/dc/dcmitype/StillImage" /><dc:title></dc:title></cc:Work></rdf:RDF></metadata><defs
     id="defs3126" /><g
     transform="matrix(1.25,0,0,-1.25,8.9289306e-5,20.730974)"
     id="g3130"><g
       transform="scale(0.1,0.1)"
       id="g3132"><path
         d="m 82.9246,28.743147 -0.08805,0 c -14.470452,0.02165 -28.06782,5.679356 -38.284313,15.930222 -10.216639,10.249696 -15.83032,23.864178 -15.807502,38.3358 0.04856,29.825251 24.35228,54.090641 54.176944,54.090641 14.561285,-0.0224 28.157481,-5.67891 38.375141,-15.92861 10.21723,-10.24853 15.83032,-23.863592 15.80692,-38.335799 -0.048,-29.825835 -24.35213,-54.092254 -54.179136,-54.092254 m 0.08337,106.906553 c -29.11277,0 -52.766174,-23.61582 -52.813565,-52.643456 -0.02179,-14.083569 5.441083,-27.333547 15.383905,-37.309573 9.945309,-9.976025 23.177004,-15.481759 37.261158,-15.503407 l 0.08513,-0.725644 0,0.725644 c 29.028808,0 52.682648,23.616251 52.729018,52.645062 0.0228,14.084739 -5.44006,27.334714 -15.38288,37.309574 -9.94516,9.97427 -23.17744,15.47942 -37.262764,15.5018"
         id="path3134"
         style="fill:#38a6e3;fill-opacity:1;fill-rule:nonzero;stroke:none" /><path
         d="M 82.92972,0 82.79091,0 C 37.068495,0.07142067 -0.07260197,37.328441 -6.0983197e-4,83.052611 0.0742391,128.70643 37.272395,165.84779 82.921675,165.84779 128.77837,165.77173 165.92031,128.51218 165.84718,82.78918 165.77551,37.139315 128.57958,0 82.92972,0 m 0.122866,164.39826 C 38.070588,164.39826 1.5226564,127.90531 1.4489453,83.049686 1.4152346,61.288133 9.8577273,40.814923 25.221828,25.403519 40.58584,9.9903308 61.031552,1.4832615 82.793689,1.4495552 l 0.136031,-0.72392048 0,0.72392048 c 44.85211,0 81.39772,36.4902928 81.46793,81.3424038 0.0702,44.923051 -36.42099,81.531701 -81.345064,81.606301"
         id="path3136"
         style="fill:#38a6e3;fill-opacity:1;fill-rule:nonzero;stroke:none" /><path
         d="m 82.929135,27.031939 -0.09493,0 c -14.927983,0.02165 -28.955092,5.857512 -39.494987,16.432366 -10.540041,10.573244 -16.330854,24.61732 -16.306281,39.545449 0.04695,30.772636 25.12078,55.806976 55.893856,55.806976 l 0.0863,0 C 113.82976,138.76582 138.86351,113.65148 138.81787,82.834377 138.76873,52.063933 113.69665,27.031939 82.929135,27.031939 m -0.0023,111.422481 c -30.573125,0 -55.48474,-24.87315 -55.531546,-55.444666 C 27.370674,68.177578 33.124335,54.22492 43.596361,43.719253 54.067656,33.214609 68.002761,27.416482 82.834206,27.393517 l 0.09493,0 c 30.567424,0 55.477284,24.870952 55.526424,55.44086 0.0452,30.618323 -24.82634,55.569283 -55.442465,55.620043 l -0.0863,0"
         id="path3138"
         style="fill:#38a6e3;fill-opacity:1;fill-rule:nonzero;stroke:none" /><path
         d="m 82.927965,2.6694202 -0.130765,0 C 38.545965,2.7397028 2.6019652,38.799182 2.6728036,83.050271 2.7065187,104.46443 11.071882,124.58967 26.227431,139.71833 41.381108,154.84685 61.516582,163.1769 82.925624,163.1769 l 0.122867,0 C 127.30192,163.10231 163.2465,127.04436 163.17776,82.797809 163.14412,61.383501 154.77749,41.257681 139.62294,26.127993 124.47029,11.001068 104.33423,2.6694202 82.927965,2.6694202 m -0.0023,160.1461998 c -21.312505,0 -41.356559,-8.29495 -56.442806,-23.35326 C 11.395855,124.40171 3.0693404,104.36731 3.0350549,83.050271 2.9647723,38.999133 38.7465,3.1025099 82.7972,3.032242 l 0.130765,0 c 21.310745,0 41.354365,8.293369 56.439005,23.352893 15.08581,15.060649 23.4144,35.095489 23.44804,56.412674 0.0687,44.046461 -35.71421,79.943211 -79.766519,80.017811 l -0.122867,0"
         id="path3140"
         style="fill:#38a6e3;fill-opacity:1;fill-rule:nonzero;stroke:none" /><path
         d="m 29.251555,109.80854 -12.281527,6.98657 3.635677,6.3873 1.05987,-0.60336 -2.983169,-5.23938 4.497352,-2.55972 2.561912,4.49896 1.022717,-0.58288 -2.559718,-4.50057 5.696031,-3.24075 -0.649145,-1.14617"
         id="path3142"
         style="fill:#38a6e3;fill-opacity:1;fill-rule:nonzero;stroke:none" /><path
         d="m 33.133404,116.63684 -8.451604,12.04779 0.800534,0.99654 13.603073,-5.61544 -0.85085,-1.0587 -3.241335,1.37128 -3.071076,-3.83446 2.052893,-2.86191 -0.841635,-1.0451 m -6.542054,11.37817 -0.05266,-0.0639 c 0.06743,-0.0902 0.198342,-0.26402 0.390247,-0.52277 0.192052,-0.25597 0.401218,-0.53491 0.625157,-0.83885 0.228473,-0.30103 0.441002,-0.58684 0.631299,-0.85422 0.193661,-0.26957 0.318868,-0.441 0.375474,-0.52218 0.101072,-0.13369 0.274841,-0.37591 0.523353,-0.72842 0.243978,-0.35208 0.509603,-0.72521 0.791903,-1.11999 0.28742,-0.39083 0.550705,-0.7628 0.797023,-1.11589 0.246319,-0.3531 0.413651,-0.60278 0.507995,-0.74437 l 2.701307,3.37269 -4.180093,1.76211 -3.111008,1.37581"
         id="path3144"
         style="fill:#38a6e3;fill-opacity:1;fill-rule:nonzero;stroke:none" /><path
         d="m 40.561852,125.64559 -9.038437,10.85715 1.015257,0.84325 c 0.136616,-0.0788 0.338175,-0.18913 0.609067,-0.32224 0.271915,-0.13544 0.575424,-0.29137 0.91594,-0.46396 0.33993,-0.17874 0.69244,-0.35368 1.059869,-0.53359 0.369039,-0.17772 0.723304,-0.35368 1.06104,-0.52804 0.33876,-0.17713 0.644464,-0.33422 0.915794,-0.46616 0.270306,-0.1372 0.479472,-0.24003 0.626912,-0.31433 l 3.77946,-1.97567 0.03028,0.0274 -1.247241,4.1384 -1.622715,5.54391 0.985126,0.81648 9.037852,-10.85525 -0.983956,-0.81765 -6.985982,8.3928 -0.03379,-0.0566 1.235246,-3.98819 1.291415,-4.49881 -0.718915,-0.59825 c -0.167333,0.0914 -0.444514,0.23418 -0.839295,0.43472 -0.395952,0.19951 -0.814722,0.40794 -1.262161,0.62793 -0.445683,0.21882 -0.867232,0.42682 -1.262745,0.62574 -0.392442,0.19878 -0.678691,0.34052 -0.852459,0.42448 l -3.632167,1.91686 -0.05017,-0.0663 6.951171,-8.34527 -0.984395,-0.81881"
         id="path3146"
         style="fill:#38a6e3;fill-opacity:1;fill-rule:nonzero;stroke:none" /><path
         d="m 51.391946,133.90748 -7.307629,12.09123 1.130664,0.68045 7.30719,-12.08889 -1.130225,-0.68279"
         id="path3148"
         style="fill:#38a6e3;fill-opacity:1;fill-rule:nonzero;stroke:none" /><path
         d="m 55.259607,136.19528 -5.857074,12.86076 1.162697,0.52949 5.336647,-11.71268 5.375407,2.4506 0.521013,-1.14558 -6.53869,-2.98259"
         id="path3150"
         style="fill:#38a6e3;fill-opacity:1;fill-rule:nonzero;stroke:none" /><path
         d="m 65.341385,140.24286 -1.658697,5.64615 -5.715338,6.91299 1.306626,0.38177 c 0.450803,-0.57484 0.903946,-1.13359 1.362209,-1.6821 0.456507,-0.54998 0.907895,-1.10434 1.354164,-1.66309 0.307897,-0.37591 0.620475,-0.76792 0.932907,-1.17601 0.311408,-0.40955 0.622816,-0.80156 0.933054,-1.17601 l 0.417746,3.50755 0.410725,3.78253 1.285564,0.37738 -1.060894,-8.90212 1.659136,-5.64966 -1.227202,-0.35938"
         id="path3152"
         style="fill:#38a6e3;fill-opacity:1;fill-rule:nonzero;stroke:none" /><path
         d="m 79.802622,142.78253 c -0.730178,2.3409 -1.455236,4.66893 -2.170056,6.98145 -0.718183,2.31399 -1.433588,4.63967 -2.152357,6.98584 l 1.338221,0.0497 c 0.157093,-0.50756 0.319306,-1.06338 0.495269,-1.66162 0.173183,-0.60556 0.359969,-1.24476 0.5646,-1.92052 0.203315,-0.67431 0.41014,-1.3764 0.623255,-2.10628 0.211506,-0.73135 0.426815,-1.46563 0.647389,-2.19844 l 1.174691,-3.95381 0.04227,-0.002 c 0.122867,0.6291 0.245148,1.24856 0.361725,1.85426 0.117162,0.60556 0.229643,1.2272 0.339346,1.8547 l 1.857038,8.38125 1.33983,0.0556 -3.204182,-14.27006 -1.257041,-0.0497"
         id="path3154"
         style="fill:#38a6e3;fill-opacity:1;fill-rule:nonzero;stroke:none" /><path
         d="m 94.474633,141.8878 -7.270623,0.90556 1.748946,14.02228 7.272378,-0.90833 -0.153729,-1.20673 -6.002173,0.74744 -0.634225,-5.09457 5.156003,-0.64505 -0.146855,-1.16723 -5.156003,0.64066 -0.659822,-5.29423 6.001003,-0.74963 -0.1549,-1.25017"
         id="path3156"
         style="fill:#38a6e3;fill-opacity:1;fill-rule:nonzero;stroke:none" /><path
         d="m 100.69914,140.18054 -1.224427,0.36802 3.701357,12.40995 -3.227151,0.96099 0.335981,1.12774 7.64493,-2.27888 -0.33598,-1.12774 -3.19117,0.94929 -3.70354,-12.40937"
         id="path3158"
         style="fill:#38a6e3;fill-opacity:1;fill-rule:nonzero;stroke:none" /><path
         d="m 115.84316,133.63673 c -0.76675,0 -1.51696,0.21707 -2.25109,0.65193 -0.53652,0.31536 -0.97021,0.68849 -1.29595,1.11589 -0.3313,0.43135 -0.55187,0.88786 -0.67138,1.37698 -0.11423,0.48503 -0.12389,0.99127 -0.0291,1.52501 0.0965,0.53023 0.30175,1.05987 0.61316,1.58439 l 3.1151,5.27712 c 0.30278,0.51252 0.65865,0.93817 1.06777,1.28146 0.40692,0.33789 0.85773,0.57777 1.34334,0.71526 0.30336,0.0863 0.61814,0.13018 0.94329,0.13018 0.19147,0 0.38689,-0.0146 0.58567,-0.0453 0.53359,-0.0761 1.07362,-0.2823 1.62271,-0.60117 0.80156,-0.47421 1.38781,-1.0919 1.75012,-1.84841 0.36099,-0.75709 0.4233,-1.56669 0.17991,-2.42881 l -1.32272,0.23769 c 0.19542,0.59298 0.18679,1.14778 -0.0252,1.66601 -0.21428,0.52116 -0.6193,0.95544 -1.20891,1.30502 -0.37723,0.22175 -0.74964,0.35368 -1.12277,0.40005 -0.12053,0.0159 -0.23944,0.024 -0.35543,0.024 -0.24398,0 -0.47757,-0.035 -0.70107,-0.10181 -0.34169,-0.10048 -0.64564,-0.27133 -0.92326,-0.50726 -0.28464,-0.23257 -0.52174,-0.52233 -0.72228,-0.8589 l -3.14874,-5.33021 c -0.20171,-0.34051 -0.33145,-0.69185 -0.3983,-1.06162 -0.0674,-0.36626 -0.0663,-0.72096 0.005,-1.06163 0.0749,-0.34563 0.21662,-0.66494 0.43603,-0.96494 0.21253,-0.3 0.50843,-0.55992 0.8804,-0.78166 0.48693,-0.28684 0.9743,-0.43252 1.4605,-0.43252 0.0834,0 0.16674,0.004 0.25026,0.0126 0.56738,0.0554 1.07874,0.33028 1.53861,0.81355 l 0.83886,-1.01467 c -0.64563,-0.67138 -1.39249,-1.02901 -2.23588,-1.07187 -0.0726,-0.004 -0.14568,-0.006 -0.21823,-0.006"
         id="path3160"
         style="fill:#38a6e3;fill-opacity:1;fill-rule:nonzero;stroke:none" /><path
         d="m 125.49417,125.37704 -1.029,0.88683 1.47688,3.19614 -3.73265,3.19335 -2.92949,-1.95694 -1.01979,0.87367 12.31853,8.05229 0.9743,-0.83257 -6.05878,-13.41277 m 4.29433,12.41185 c -0.092,-0.0623 -0.2703,-0.1881 -0.533,-0.37094 -0.26226,-0.1862 -0.55422,-0.38396 -0.86168,-0.59985 -0.30848,-0.21663 -0.6016,-0.41775 -0.87469,-0.60278 -0.27382,-0.18284 -0.45139,-0.30117 -0.53198,-0.35602 -0.1394,-0.0995 -0.38747,-0.26402 -0.74788,-0.49878 -0.36172,-0.23198 -0.74115,-0.4862 -1.14163,-0.75767 -0.40341,-0.27075 -0.78284,-0.5216 -1.14559,-0.75695 -0.36231,-0.23257 -0.61535,-0.39376 -0.76045,-0.48401 l 3.28419,-2.8094 1.89521,4.11954 1.47806,3.06303 -0.0606,0.0538"
         id="path3162"
         style="fill:#38a6e3;fill-opacity:1;fill-rule:nonzero;stroke:none" /><path
         d="m 132.19391,117.34874 -0.91419,1.11647 3.26372,6.08219 -1.80497,2.18088 -4.92227,-4.01832 -0.81311,0.99068 10.94506,8.93444 2.69809,-3.3013 c 0.76104,-0.93481 1.08839,-1.86319 0.97986,-2.78995 -0.11087,-0.92676 -0.63305,-1.77586 -1.57649,-2.5467 -0.7233,-0.58961 -1.47513,-0.91989 -2.25285,-1.00034 -0.0977,-0.009 -0.19541,-0.0138 -0.29371,-0.0138 -0.67708,0 -1.34889,0.22277 -2.01808,0.67079 l -3.29106,-6.30509 m 5.65259,13.55173 -4.22866,-3.45562 1.72554,-2.11345 c 0.55071,-0.67489 1.15919,-1.03544 1.82091,-1.08971 0.056,-0.005 0.11249,-0.007 0.16851,-0.007 0.61418,0 1.24387,0.26343 1.88951,0.78971 0.68454,0.5605 1.05533,1.15421 1.11077,1.7861 0.0509,0.63364 -0.1982,1.28892 -0.76046,1.9758 l -1.72612,2.11404"
         id="path3164"
         style="fill:#38a6e3;fill-opacity:1;fill-rule:nonzero;stroke:none" /><path
         d="m 137.13577,108.83892 -3.60759,6.3753 12.29747,6.95688 3.60569,-6.37414 -1.05899,-0.60277 -2.97644,5.26629 -4.47439,-2.52725 2.5603,-4.52339 -1.02666,-0.57996 -2.55796,4.52456 -4.6464,-2.63227 2.98141,-5.26336 -1.09644,-0.61989"
         id="path3166"
         style="fill:#38a6e3;fill-opacity:1;fill-rule:nonzero;stroke:none" /><path
         d="m 12.506582,68.091425 c -0.709057,0.0531 -1.285564,0.315942 -1.724957,0.787808 -0.437654,0.472597 -0.711909,1.058261 -0.8296123,1.763865 -0.074276,0.470257 -0.068001,0.903946 0.023418,1.306626 0.091989,0.400048 0.2496963,0.757677 0.4793833,1.061625 0.22568,0.306874 0.519375,0.562846 0.8799,0.763966 0.357673,0.203461 0.767915,0.342856 1.225578,0.421111 l 4.617732,0.751386 c 0.222914,0.0354 0.439978,0.0531 0.650899,0.0531 0.21253,0 0.41994,-0.01828 0.620476,-0.05602 0.398731,-0.07138 0.7587,-0.217649 1.075813,-0.433689 0.319453,-0.21999 0.585663,-0.504484 0.799948,-0.855824 0.214285,-0.354265 0.36114,-0.7685 0.437639,-1.246802 0.115407,-0.701655 0.04008,-1.344364 -0.225109,-1.931197 -0.266211,-0.579374 -0.711894,-1.008968 -1.337489,-1.288928 l -0.502875,0.888441 c 0.439979,0.178742 0.760456,0.452997 0.960991,0.833591 0.201121,0.377083 0.255972,0.826131 0.173183,1.346119 -0.05368,0.325157 -0.158263,0.609067 -0.311408,0.851289 -0.155338,0.242369 -0.345635,0.437785 -0.567964,0.58347 -0.221014,0.145099 -0.471281,0.243977 -0.746122,0.291369 -0.14115,0.02633 -0.284055,0.03891 -0.42974,0.03891 -0.13881,0 -0.28113,-0.01156 -0.426815,-0.0332 L 12.687137,73.2274 c -0.295391,-0.05309 -0.567935,-0.144514 -0.817632,-0.285079 -0.248542,-0.13998 -0.455937,-0.314333 -0.61992,-0.525108 -0.164553,-0.210336 -0.282257,-0.451973 -0.35311,-0.723449 -0.07028,-0.273671 -0.08057,-0.571329 -0.02686,-0.899266 0.08171,-0.499949 0.278834,-0.902776 0.591368,-1.207894 0.310823,-0.303363 0.71934,-0.470842 1.228431,-0.505069 l -0.182837,-0.990099"
         id="path3168"
         style="fill:#38a6e3;fill-opacity:1;fill-rule:nonzero;stroke:none" /><path
         d="m 11.524981,63.814063 -0.252549,0.972547 10.435415,2.713447 0.252022,-0.974302 -10.434888,-2.711692"
         id="path3170"
         style="fill:#38a6e3;fill-opacity:1;fill-rule:nonzero;stroke:none" /><path
         d="m 15.343949,52.717027 -0.350169,0.9136 7.784175,2.979658 -0.02969,0.03715 -3.185898,0.09142 -3.568685,0.173768 -0.254948,0.670793 c 0.106923,0.09259 0.279521,0.259921 0.521743,0.497609 0.242223,0.234909 0.497024,0.485615 0.765575,0.756506 0.266357,0.264017 0.521744,0.520574 0.765137,0.754751 0.238273,0.233739 0.41014,0.407361 0.514722,0.513699 l 2.278003,2.148847 -0.03481,0.05427 -7.741406,-2.964739 -0.349673,0.913015 10.070838,3.854936 0.36231,-0.942708 c -0.09434,-0.07591 -0.222915,-0.198195 -0.386883,-0.36114 -0.163968,-0.163383 -0.351925,-0.34505 -0.561529,-0.54617 -0.211511,-0.199369 -0.424626,-0.414239 -0.6452,-0.634228 C 21.078156,61.402955 20.865626,61.194374 20.654267,60.99106 20.443492,60.789354 20.25539,60.608711 20.091421,60.444158 19.926283,60.283115 19.801808,60.157323 19.712144,60.07 l -2.359767,-2.243776 0.01316,-0.03028 3.297356,-0.118332 4.402276,-0.193076 0.349146,-0.90965 -10.07037,-3.857861"
         id="path3172"
         style="fill:#38a6e3;fill-opacity:1;fill-rule:nonzero;stroke:none" /><path
         d="m 19.782939,44.38829 -2.709498,4.894327 9.42415,5.229138 2.715203,-4.890963 -0.813698,-0.450218 -2.240265,4.038358 -3.425927,-1.902529 1.925493,-3.469369 -0.787369,-0.435444 -1.925493,3.466589 -3.561372,-1.97698 2.240996,-4.036748 -0.84222,-0.466161"
         id="path3174"
         style="fill:#38a6e3;fill-opacity:1;fill-rule:nonzero;stroke:none" /><path
         d="m 25.436551,36.37491 -0.577618,0.784443 7.162091,5.297739 -0.02808,0.03715 -9.889726,-1.608527 -0.568989,0.76967 8.668668,6.414215 0.579374,-0.785029 -7.150097,-5.28633 0.02457,-0.06173 9.889288,1.611306 0.561675,-0.761626 -8.671155,-6.411289 m 8.87447,8.613816 c -0.0531,0 -0.106777,0.0023 -0.161043,0.0069 -0.233739,0.02062 -0.470842,0.09493 -0.715405,0.224524 -0.242222,0.127986 -0.466307,0.335981 -0.675326,0.615941 -0.215456,0.28976 -0.349146,0.57484 -0.405752,0.846755 -0.05427,0.273085 -0.05588,0.530812 -0.0057,0.765721 0.04915,0.233593 0.136616,0.450803 0.266357,0.640954 0.128425,0.192052 0.267381,0.349145 0.419355,0.475961 l 0.497609,-0.672986 c -0.197171,-0.185763 -0.320476,-0.430326 -0.369038,-0.737053 -0.05032,-0.306874 0.02165,-0.592538 0.219404,-0.85714 0.210775,-0.282154 0.466162,-0.446707 0.774205,-0.485615 0.07416,-0.01141 0.145685,-0.01711 0.214724,-0.01711 0.219405,0 0.414236,0.05661 0.588589,0.165723 l 0.481081,-0.647974 c -0.180497,-0.102828 -0.382203,-0.189127 -0.602777,-0.251438 -0.173769,-0.04798 -0.347391,-0.07314 -0.526278,-0.07314"
         id="path3176"
         style="fill:#38a6e3;fill-opacity:1;fill-rule:nonzero;stroke:none" /><path
         d="m 32.187332,29.113355 -0.713649,0.731348 3.602474,3.52071 -2.88824,2.955669 -3.603644,-3.514419 -0.682201,0.697706 7.713966,7.533469 0.682787,-0.702825 -3.468199,-3.38541 2.887655,-2.958449 3.470538,3.385849 0.714235,-0.730178 -7.715722,-7.53347"
         id="path3178"
         style="fill:#38a6e3;fill-opacity:1;fill-rule:nonzero;stroke:none" /><path
         d="m 40.208611,22.528444 -0.77128,0.601607 5.469167,7.03352 -0.03949,0.02852 -9.088169,-4.221195 -0.756506,0.592977 6.619284,8.50821 0.772011,-0.596487 -5.461122,-7.018016 0.03935,-0.05368 9.088754,4.217831 0.746268,-0.580544 -6.618261,-8.512745"
         id="path3180"
         style="fill:#38a6e3;fill-opacity:1;fill-rule:nonzero;stroke:none" /><path
         d="m 49.09683,17.126708 -0.845585,0.485615 4.430945,7.731226 -0.04227,0.02282 -8.408308,-5.447373 -0.834175,0.476547 5.362828,9.354965 0.84734,-0.486347 -4.423485,-7.716745 0.04739,-0.04008 8.408308,5.447958 0.819841,-0.473621 -5.362828,-9.354965 m 3.93041,11.306786 c -0.05193,0 -0.105606,0.0016 -0.160019,0.0057 -0.274694,0.02223 -0.562114,0.119356 -0.868402,0.294148 -0.314334,0.178888 -0.550267,0.383957 -0.711309,0.614332 -0.160019,0.228473 -0.267381,0.459872 -0.313164,0.695366 -0.05149,0.234763 -0.05485,0.47011 -0.01258,0.696974 0.03832,0.224524 0.105753,0.426815 0.193076,0.602777 l 0.725058,-0.418184 C 51.77371,30.6761 51.75762,30.404038 51.836606,30.104186 c 0.07884,-0.305119 0.260506,-0.532568 0.548949,-0.698877 0.204632,-0.117747 0.406922,-0.175962 0.607458,-0.175962 0.09888,0 0.196586,0.01433 0.294733,0.04227 0.299999,0.08337 0.523938,0.237688 0.677082,0.460603 l 0.697121,-0.402827 C 54.542008,29.16133 54.392813,29.003651 54.213487,28.857966 54.031088,28.711697 53.834063,28.600239 53.609539,28.52652 53.432992,28.46538 53.2386,28.43349 53.02724,28.43349"
         id="path3182"
         style="fill:#38a6e3;fill-opacity:1;fill-rule:nonzero;stroke:none" /><path
         d="m 62.582156,11.799847 -0.92618,0.305674 3.111155,9.381191 -3.354547,1.114282 -1.523252,-4.598424 c -0.288005,-0.861089 -0.568403,-1.566109 -0.846754,-2.111694 -0.27879,-0.547487 -0.570744,-0.975911 -0.879373,-1.295905 -0.304534,-0.317683 -0.634079,-0.535376 -0.991854,-0.651368 -0.350755,-0.116547 -0.746707,-0.185689 -1.177617,-0.204543 -0.01872,0.135987 -0.03876,0.273685 -0.05939,0.412524 -0.02004,0.134846 -0.03306,0.274826 -0.03876,0.418243 0.315357,0.07205 0.607897,0.153671 0.874692,0.250209 0.265187,0.09493 0.517063,0.264602 0.755922,0.506239 0.237688,0.242808 0.470256,0.582299 0.69478,1.021108 0.226864,0.437054 0.463382,1.025058 0.711894,1.772349 l 1.866108,5.630795 5.176042,-1.719253 -3.392869,-10.231427"
         id="path3184"
         style="fill:#38a6e3;fill-opacity:1;fill-rule:nonzero;stroke:none" /><path
         d="m 67.106859,10.724531 -0.9822,0.222257 2.366642,10.518861 0.982201,-0.22116 -2.366643,-10.519958"
         id="path3186"
         style="fill:#38a6e3;fill-opacity:1;fill-rule:nonzero;stroke:none" /><path
         d="M 76.942905,9.1841366 75.912143,9.3161157 75.496738,12.75917 c -0.04564,0.370238 -0.123306,0.677068 -0.225109,0.918749 -0.103413,0.241126 -0.231399,0.435386 -0.386737,0.578804 -0.151974,0.146269 -0.321208,0.250252 -0.505654,0.317668 -0.184592,0.06749 -0.377668,0.110784 -0.58347,0.138868 l -1.552359,0.196001 -0.649583,-5.0377733 -0.99712,0.1274155 1.372448,10.6799628 0.999899,-0.127986 -0.609652,-4.748058 1.429639,-0.185616 c 0.09771,-0.01038 0.19878,-0.01784 0.301608,-0.01784 0.08001,0 0.161189,0.0047 0.243392,0.01316 0.189127,0.01667 0.374304,0.06919 0.559921,0.159434 0.182251,0.09083 0.362309,0.238858 0.540027,0.431934 0.176547,0.196001 0.331301,0.455922 0.464991,0.784005 l 1.295364,3.017834 0.939343,-0.120526 -1.230127,-2.998527 c -0.211506,-0.502728 -0.456654,-0.915355 -0.737638,-1.240366 -0.280545,-0.320038 -0.608628,-0.516039 -0.98103,-0.583469 0.445098,-0.193076 0.753581,-0.488453 0.931298,-0.886116 0.177718,-0.398249 0.301608,-0.870758 0.365089,-1.420424 l 0.461627,-3.5721674"
         id="path3188"
         style="fill:#38a6e3;fill-opacity:1;fill-rule:nonzero;stroke:none" /><path
         d="m 79.708278,8.9807195 2.987118,10.8279875 0.977666,0.01316 3.298965,-10.7354425 -1.036906,-0.014861 -0.765136,2.5728675 -3.749914,-0.05257 -0.6901,-2.5962856 -1.021693,-0.014861 m 3.45796,9.3790406 c -0.02062,-0.0863 -0.05661,-0.243977 -0.117747,-0.482836 -0.05997,-0.236518 -0.123305,-0.49717 -0.188542,-0.7783 -0.06743,-0.282154 -0.135445,-0.541051 -0.19761,-0.785029 -0.06348,-0.242808 -0.105753,-0.401071 -0.127986,-0.474206 -0.02691,-0.124037 -0.08513,-0.34505 -0.174353,-0.662163 -0.08688,-0.317697 -0.178742,-0.651397 -0.2725,-1.010781 -0.09317,-0.358829 -0.182252,-0.696507 -0.270307,-1.012464 -0.08908,-0.314245 -0.152559,-0.536517 -0.190735,-0.659354 l 3.297355,0.0497 -0.991415,3.315683 -0.704434,2.498577 -0.06173,0.0012"
         id="path3190"
         style="fill:#38a6e3;fill-opacity:1;fill-rule:nonzero;stroke:none" /><path
         d="m 90.120919,9.3275394 -1.426129,10.6891626 3.008766,0.402242 c 0.222915,0.02969 0.436029,0.04447 0.638759,0.04447 0.692587,0 1.270205,-0.173622 1.731832,-0.518233 0.595317,-0.446123 0.962747,-1.196339 1.106237,-2.25109 0.0531,-0.410871 0.05427,-0.813112 -0.0051,-1.205115 -0.05719,-0.393611 -0.184593,-0.747291 -0.388639,-1.066159 -0.202291,-0.320477 -0.482836,-0.592392 -0.83476,-0.816418 -0.3588,-0.226835 -0.807847,-0.373105 -1.34846,-0.44624 L 90.528279,13.884188 91.122427,9.4623853 90.120919,9.3275394 m 2.116813,10.1965266 c -0.13881,0 -0.285079,-0.01024 -0.438809,-0.03072 l -1.981368,-0.264602 0.586688,-4.408712 1.998043,0.264602 c 0.388638,0.05602 0.706921,0.156508 0.957042,0.310238 0.252022,0.153729 0.444074,0.339345 0.574839,0.558749 0.131935,0.225109 0.21487,0.475377 0.252023,0.754752 0.03423,0.280545 0.03203,0.570305 -0.0063,0.867378 -0.09317,0.687321 -0.333641,1.20102 -0.722864,1.544461 -0.305558,0.269136 -0.713065,0.40385 -1.219304,0.40385"
         id="path3192"
         style="fill:#38a6e3;fill-opacity:1;fill-rule:nonzero;stroke:none" /><path
         d="m 103.53881,9.551522 -0.9645,2.812838 0.54281,0.282241 c 0.16002,0.230843 0.27323,0.485674 0.34168,0.770783 0.0652,0.283967 0.0772,0.634781 0.0372,1.042741 -0.0445,0.411398 -0.13589,0.909592 -0.28274,1.487796 -0.14466,0.57601 -0.33891,1.275325 -0.58742,2.097506 l -1.36952,4.428605 5.30739,1.819301 3.21223,-9.381293 0.68673,0.237103 0.99083,-2.888781 -0.89253,-0.305674 -0.71014,2.065487 -6.12621,-2.097491 0.70897,-2.0671991 -0.89474,-0.3039629 m 2.36211,13.563609 -3.48824,-1.195315 1.1861,-3.892088 c 0.17714,-0.580544 0.32853,-1.120425 0.45432,-1.6135 0.12389,-0.491465 0.2194,-0.940513 0.29137,-1.351384 0.0714,-0.41526 0.10165,-0.786697 0.0977,-1.122093 -0.006,-0.3331 -0.0503,-0.6405 -0.12682,-0.917037 l 4.51198,1.548966 -2.92642,8.542451"
         id="path3194"
         style="fill:#38a6e3;fill-opacity:1;fill-rule:nonzero;stroke:none" /><path
         d="m 113.86969,15.442852 -0.33876,0.241637 -0.32794,0.264602 c 0.16968,0.276596 0.31419,0.542807 0.42901,0.801704 0.11263,0.258751 0.1685,0.560505 0.15827,0.898095 -0.008,0.337737 -0.0891,0.739978 -0.24618,1.20848 -0.15607,0.465137 -0.41379,1.04495 -0.77947,1.73973 l -2.74826,5.259416 4.83158,2.528417 4.99716,-9.555647 -0.86797,-0.453582 -4.57838,8.760671 -3.12871,-1.639682 2.24261,-4.286431 c 0.4176,-0.808578 0.73193,-1.500433 0.92617,-2.078052 0.19937,-0.581129 0.30732,-1.091317 0.3199,-1.534661 0.0167,-0.439978 -0.0582,-0.828032 -0.21531,-1.165622 -0.16748,-0.336566 -0.39083,-0.663918 -0.67372,-0.989075"
         id="path3196"
         style="fill:#38a6e3;fill-opacity:1;fill-rule:nonzero;stroke:none" /><path
         d="m 122.70876,20.54576 -1.26567,3.152841 c -0.17596,0.442758 -0.28098,0.848949 -0.32282,1.217548 -0.0342,0.366259 0.0549,0.725058 0.26914,1.081517 -0.26797,-0.08908 -0.52218,-0.135884 -0.76163,-0.135884 -0.0336,0 -0.0668,10e-4 -0.0993,0.0028 -0.26753,0.0086 -0.51663,0.07197 -0.74452,0.180058 -0.22861,0.109117 -0.44348,0.260506 -0.64402,0.445537 -0.20171,0.185763 -0.38279,0.393173 -0.54281,0.619452 -0.53183,0.748461 -0.75592,1.496338 -0.67079,2.240265 0.0869,0.742757 0.5194,1.388976 1.29931,1.947872 l 2.53295,1.793997 6.23753,-8.797824 -0.79586,-0.565624 -2.84889,4.018318 -1.44266,-1.021547 c -0.15431,-0.106923 -0.2959,-0.234909 -0.42798,-0.388492 -0.13428,-0.149195 -0.23477,-0.327498 -0.29708,-0.532568 -0.0645,-0.204484 -0.088,-0.437638 -0.072,-0.707359 0.0199,-0.264017 0.0948,-0.5725 0.22628,-0.91989 l 1.22208,-3.029975 -0.85129,-0.601021 m -1.22384,11.247254 -1.59814,-1.132419 c -0.56738,-0.399316 -0.88785,-0.862698 -0.96391,-1.380346 -0.0755,-0.521744 0.0806,-1.057091 0.46572,-1.601652 0.39419,-0.554216 0.83417,-0.841051 1.32096,-0.856994 0.0268,-0.0012 0.0537,-0.0018 0.08,-0.0018 0.46557,0 0.94841,0.176547 1.44383,0.530227 l 1.59755,1.133005 -2.34602,3.309934"
         id="path3198"
         style="fill:#38a6e3;fill-opacity:1;fill-rule:nonzero;stroke:none" /><path
         d="m 135.32963,30.832608 -7.05692,6.922063 -1.80043,-1.835245 -0.63993,0.626765 4.26361,4.348742 0.6411,-0.630276 -1.78098,-1.815206 7.05868,-6.919722 -0.68513,-0.697121"
         id="path3200"
         style="fill:#38a6e3;fill-opacity:1;fill-rule:nonzero;stroke:none" /><path
         d="m 139.80344,35.671499 -8.55341,6.565604 1.88439,2.451624 c 0.59707,0.776546 1.23422,1.194292 1.91862,1.255286 0.0725,0.0063 0.14524,0.0098 0.21721,0.0098 0.60848,0 1.20789,-0.229204 1.80029,-0.685127 0.39492,-0.301607 0.69083,-0.654702 0.90511,-1.059869 0.20624,-0.404436 0.23769,-0.90614 0.0936,-1.501458 l 0.0361,-0.0275 c 0.23243,0.182837 0.47874,0.303948 0.741,0.365674 0.1726,0.03949 0.34564,0.0588 0.51648,0.0588 0.0897,0 0.17948,-0.0051 0.26738,-0.01594 0.26226,-0.03423 0.52175,-0.109117 0.77362,-0.232569 0.25203,-0.119941 0.49425,-0.269721 0.72345,-0.445098 0.80273,-0.618721 1.25017,-1.290098 1.33632,-2.016327 0.0863,-0.725058 -0.12857,-1.426128 -0.64958,-2.108915 L 139.8034,35.6715 m -0.73998,6.491299 c -0.0177,0 -0.0354,0 -0.0531,-5.85e-4 -0.49249,-0.01594 -0.94958,-0.290784 -1.36616,-0.830812 l -1.33807,-1.745435 3.32983,-2.559133 1.32271,1.722617 c 0.22804,0.293125 0.36977,0.577034 0.43194,0.845 0.0652,0.271476 0.068,0.526278 0.01,0.772011 -0.0641,0.239882 -0.17479,0.470257 -0.3452,0.681616 -0.17128,0.2137 -0.37138,0.414236 -0.60906,0.595317 -0.45022,0.344612 -0.91126,0.519404 -1.38269,0.519404 m -3.78809,2.779707 c -0.0566,0 -0.11263,-0.0029 -0.1685,-0.0086 -0.47597,-0.05368 -0.92004,-0.34739 -1.33471,-0.889026 l -1.21536,-1.578688 3.03685,-2.335779 1.25061,1.631344 c 0.40516,0.526132 0.56635,1.023303 0.48005,1.484344 -0.0835,0.464553 -0.36114,0.873669 -0.82744,1.233053 -0.40108,0.310238 -0.80844,0.463382 -1.2215,0.463382"
         id="path3202"
         style="fill:#38a6e3;fill-opacity:1;fill-rule:nonzero;stroke:none" /><path
         d="m 145.05773,42.751825 -7.7517,8.133468 0.49249,0.84222 10.90294,-2.688874 -0.51926,-0.898827 -2.60565,0.670208 -1.88103,-3.244114 1.87357,-1.929003 -0.51136,-0.885078 m -6.23415,7.844878 -0.032,-0.05251 c 0.0617,-0.05895 0.17831,-0.177132 0.35485,-0.350316 0.17143,-0.172013 0.36275,-0.360554 0.56797,-0.563284 0.2039,-0.20112 0.39478,-0.393758 0.57016,-0.57206 0.17888,-0.179327 0.29254,-0.296489 0.34285,-0.348999 0.0926,-0.09259 0.25188,-0.254363 0.47874,-0.49249 0.22336,-0.240029 0.4669,-0.489126 0.72623,-0.754313 0.26051,-0.264455 0.50273,-0.513113 0.72506,-0.752995 0.22628,-0.236518 0.38337,-0.405167 0.47143,-0.505069 l 1.65518,2.855621 -3.35732,0.852459 -2.50311,0.683957"
         id="path3204"
         style="fill:#38a6e3;fill-opacity:1;fill-rule:nonzero;stroke:none" /><path
         d="m 150.04714,51.878317 -9.94093,4.170878 1.17528,2.799161 c 0.37942,0.91477 0.91653,1.515353 1.60268,1.805552 0.28405,0.119356 0.59195,0.178888 0.92515,0.178888 0.47362,0 0.99815,-0.120672 1.57518,-0.361725 0.38279,-0.162798 0.72798,-0.363919 1.03954,-0.610822 0.30716,-0.250267 0.54851,-0.543391 0.72403,-0.875862 0.1726,-0.338322 0.26621,-0.71482 0.27938,-1.134175 0.0161,-0.421695 -0.0834,-0.880543 -0.294,-1.38722 l -0.8118,-1.930759 4.11456,-1.724958 -0.38907,-0.928958 m -6.16995,7.918013 c -0.20785,0 -0.40502,-0.03028 -0.59239,-0.09083 -0.49542,-0.162944 -0.88171,-0.57835 -1.16167,-1.246802 l -0.77187,-1.841534 4.10008,-1.720862 0.77874,1.859233 c 0.153,0.364504 0.22321,0.6901 0.22175,0.982639 -0.007,0.29605 -0.0702,0.554801 -0.19483,0.78225 -0.12462,0.220574 -0.30176,0.42111 -0.52336,0.593708 -0.22686,0.174792 -0.47318,0.315357 -0.75255,0.434713 -0.39595,0.165724 -0.76382,0.247489 -1.1039,0.247489"
         id="path3206"
         style="fill:#38a6e3;fill-opacity:1;fill-rule:nonzero;stroke:none" /><path
         d="m 153.44937,60.575654 -10.41659,2.792725 0.25363,0.944024 8.5891,-2.305501 0.0322,0.05822 -7.41616,6.737032 0.2434,0.9136 10.4141,-2.792872 -0.24866,-0.943878 -8.60797,2.306672 -0.0117,-0.04578 7.41733,-6.736447 -0.24865,-0.927788"
         id="path3208"
         style="fill:#38a6e3;fill-opacity:1;fill-rule:nonzero;stroke:none" /><path
         d="m 155.8672,70.695609 -10.70152,1.329591 0.11833,0.967866 4.81578,-0.597073 0.50902,4.104764 -4.81636,0.595317 0.13091,1.013063 10.70006,-1.323886 -0.1258,-1.014233 -4.99803,0.617696 -0.50755,-4.103008 4.99803,-0.620476 -0.12287,-0.969621"
         id="path3210"
         style="fill:#38a6e3;fill-opacity:1;fill-rule:nonzero;stroke:none" /><path
         d="m 148.98376,94.245015 c -10e-4,0 -0.003,0 -0.004,0 -1.06777,0.0018 -1.93369,0.871328 -1.93222,1.937487 0.003,1.063965 0.86445,1.927833 1.92783,1.927833 0.003,0 0.006,0 0.007,0 0.001,0 0.003,0 0.003,0 1.06484,0 1.93368,-0.866208 1.92929,-1.934123 -0.001,-1.066159 -0.86737,-1.931197 -1.93075,-1.931197"
         id="path3212"
         style="fill:#38a6e3;fill-opacity:1;fill-rule:nonzero;stroke:none" /><path
         d="m 17.041554,94.456959 c -0.0023,0 -0.0035,0 -0.0051,0 -1.0685,5.85e-4 -1.933538,0.866794 -1.930759,1.936464 0.0035,1.063818 0.866793,1.928857 1.934708,1.928857 0.0012,0 0.0023,0 0.0034,0 1.067914,-0.0012 1.932953,-0.870743 1.930759,-1.934562 -0.0029,-1.067329 -0.867964,-1.930759 -1.932953,-1.930759"
         id="path3214"
         style="fill:#38a6e3;fill-opacity:1;fill-rule:nonzero;stroke:none" /><path
         d="m 68.238109,42.294733 c -0.291369,0.457092 -0.898096,0.594293 -1.356944,0.302924 -0.458262,-0.28976 -0.594732,-0.898241 -0.305703,-1.357674 0.02808,-0.04344 1.602091,-2.617348 2.947186,-7.751119 0.720378,-0.194831 1.448947,-0.371378 2.182489,-0.535932 -1.450556,6.079404 -3.338457,9.140095 -3.467028,9.341801"
         id="path3216"
         style="fill:#38a6e3;fill-opacity:1;fill-rule:nonzero;stroke:none" /><path
         d="m 39.923532,96.084794 0,6.459416 8.369985,0 0.235348,0.0468 c -0.41131,-1.2645 -2.237486,-5.378331 -8.605333,-6.506216 z m 43.352993,29.776246 c 0.875862,2.09517 2.349968,3.15679 4.382384,3.15679 2.03344,0 2.986532,-0.58449 3.307009,-0.83885 3.17054,-12.52887 2.433487,-27.42263 2.117545,-31.823295 -8.803675,9.389195 -12.462024,23.149945 -9.806938,29.505355 z m 20.231425,0.47421 2.77971,0 c -0.45709,-1.23934 -1.61584,-2.74197 -2.77971,-3.99784 l 0,3.99784 z m -63.584418,-21.82226 0,6.22173 c -0.691856,-1.06733 -1.356358,-2.15587 -1.968935,-3.27688 l 0,-25.340038 c 0,-0.543391 0.440564,-0.984979 0.983955,-0.984979 0.544562,0 0.98498,0.441588 0.98498,0.984979 l 0,11.978749 c 4.520608,0.713649 7.172915,2.74197 8.688268,4.646254 l 0,-16.625003 c 0,-0.543391 0.440417,-0.984979 0.984979,-0.984979 0.543392,0 0.98498,0.441588 0.98498,0.984979 l 0,38.286658 c 0,1.95694 1.591852,3.54879 3.548793,3.54879 1.957526,0 3.550548,-1.59185 3.550548,-3.54879 l 0,-38.763789 c 0,-15.869667 -7.25585,-25.691963 -13.979717,-25.691963 -2.143142,0 -4.108128,0.937588 -5.831915,2.597455 0.717159,-1.322716 1.496484,-2.607109 2.32437,-3.856252 1.11472,-0.457531 2.286047,-0.710724 3.507545,-0.710724 6.550245,0 11.437113,6.348979 13.979717,14.512724 l 0,-30.128174 c 0.647243,-0.367283 1.304432,-0.720963 1.969374,-1.060454 l 0,73.210857 c 0,0.91872 0.665088,1.42613 1.324471,1.5215 0.761626,0.11365 1.728907,-0.30453 2.171811,-1.80146 0.925594,-3.11963 4.899447,-15.068691 5.067949,-15.575515 0.133691,-0.402241 0.510189,-0.674742 0.934224,-0.674742 l 23.828196,0.0057 0.05149,-0.0097 0.05251,0.0097 0.577033,0 0.301755,-0.0097 0.05485,0.01082 3.816759,5.85e-4 c 0.423889,0 0.800387,0.271915 0.934077,0.674157 0.168649,0.507994 4.137381,12.455295 5.062971,15.575525 0.44569,1.49926 1.41472,1.91569 2.17854,1.80204 0.65822,-0.096 1.32155,-0.60278 1.32155,-1.52047 l 0,-72.636468 c 0.66684,0.362164 1.32213,0.738662 1.9701,1.128324 l 0,31.331534 16.61184,0 0,-15.253287 c 0.69142,1.066159 1.35534,2.152942 1.96835,3.271758 l 0,12.640766 c 1.27533,-0.335397 2.59921,-0.542222 3.96245,-0.609652 -0.009,-0.21253 -0.0319,-0.420964 -0.0319,-0.635249 0,-0.590198 0.0468,-1.168987 0.1217,-1.739877 0.85406,2.813496 1.46723,5.730843 1.82837,8.72703 -0.1846,-0.308483 -0.36568,-0.619306 -0.5257,-0.942708 l -0.08,-0.166308 c -0.49307,-1.031786 -0.86854,-2.129978 -1.09014,-3.284777 -9.26706,0.395952 -16.68907,8.035759 -16.68907,17.398038 0,8.068377 5.5091,14.869326 12.96139,16.851426 -0.31127,0.5959 -0.63642,1.18434 -0.97065,1.76723 -8.05565,-2.36211 -13.95909,-9.808107 -13.95909,-18.618656 0,-7.664235 4.47614,-14.284104 10.9417,-17.435775 l -15.04925,0 0,47.487441 c 2.31516,0.57353 4.40462,1.44954 6.28901,2.56879 -0.55758,0.4628 -1.12905,0.90907 -1.70609,1.34787 -2.54948,-1.39759 -5.47648,-2.3232 -8.83497,-2.62831 1.52895,1.65358 3.40983,4.11617 3.41393,6.22099 -0.59312,0.3411 -1.19312,0.67255 -1.80102,0.99141 l -3.15167,0 0,1.51931 c -0.649,0.28449 -1.30663,0.55421 -1.96996,0.81238 l 0,-10.64389 0.0297,-0.14291 0.0399,-0.20054 0.10692,-0.18576 0.0679,-0.11935 0.024,-0.0177 0.25831,-0.19088 0.0668,-0.0445 c 0.11995,-0.0527 0.25261,-0.0829 0.39142,-0.0829 l 10e-4,0 c 1.6941,0 3.28873,0.14349 4.80452,0.39537 l 0,-5.73991 c -0.32106,0.15548 -0.66509,0.27484 -1.03808,0.32911 -1.61701,0.23651 -3.59457,-0.65763 -4.34991,-3.18941 -0.7919,-2.67045 -3.948691,-12.212924 -4.820019,-14.841096 l -2.086536,-0.0012 c 0.377084,4.755526 1.448362,23.562576 -3.59165,37.461546 -0.743927,0.12521 -1.492973,0.23023 -2.247139,0.32224 0.394196,-1.0078 0.765575,-2.03739 1.091317,-3.10531 -0.693757,0.20054 -1.543291,0.34856 -2.627733,0.34856 -2.82081,0 -5.022313,-1.55133 -6.199345,-4.36819 -2.791702,-6.68262 0.362749,-20.39993 9.175053,-30.511406 -11.111955,1.080932 -16.741141,7.814456 -16.741141,20.065706 l 0,17.15699 c -1.601505,-0.2845 -3.175659,-0.6433 -4.721729,-1.07304 0.733104,-0.38966 1.624471,-0.70282 2.75177,-0.81647 l 0,-15.26748 c 0,-10.2611 3.824073,-17.085463 11.146183,-20.216071 l -13.211217,-0.0034 c -0.871767,2.629927 -4.032068,12.172411 -4.823386,14.840071 -0.749047,2.52769 -2.710522,3.42418 -4.342452,3.19102 -0.374158,-0.0543 -0.719793,-0.17362 -1.042171,-0.33028 l 0,6.74962 c 0,2.7408 -0.464406,5.24683 -1.191805,7.52366 -0.599998,-0.32676 -1.191804,-0.66845 -1.777468,-1.01803 0.188542,-0.62282 0.362749,-1.25646 0.500973,-1.91409 -0.645634,0.43077 -1.386635,0.72784 -2.183658,0.85524 -2.238657,-1.4586 -4.361321,-3.08014 -6.33874,-4.86229 -0.02062,-0.19308 -0.04798,-0.38571 -0.04798,-0.58449 l 0,-10.45024 c -1.261576,0.89415 -3.17566,2.76143 -4.533334,6.33187 -0.484445,-0.56343 -0.956896,-1.13827 -1.417499,-1.72379 0.491905,-1.10741 1.030177,-2.07132 1.587318,-2.87683 -0.870743,0.40678 -1.866108,0.74963 -2.987703,1.01131 -0.41248,-0.57718 -0.814283,-1.16109 -1.20336,-1.75421 6.254781,-1.16387 8.063112,-5.2211 8.471643,-6.47638 l -0.235348,0.0468 -8.369985,0"
         id="path3218"
         style="fill:#38a6e3;fill-opacity:1;fill-rule:nonzero;stroke:none" /><path
         d="m 134.07376,80.287092 c 0.0348,0.684541 0.048,1.374788 0.0554,2.066058 -2.28093,0.870304 -3.91271,3.064348 -3.91271,5.645714 0,2.18205 1.16898,4.08297 2.9036,5.150299 -0.34681,1.711793 -0.78094,3.391114 -1.29347,5.035477 l 0,-3.505351 c -2.15586,-1.442072 -3.57848,-3.897353 -3.57848,-6.680425 0,-3.660689 2.46771,-6.75122 5.82562,-7.711772"
         id="path3220"
         style="fill:#38a6e3;fill-opacity:1;fill-rule:nonzero;stroke:none" /><path
         d="m 52.762785,74.134115 c 0,0.751387 -0.611992,1.363817 -1.363964,1.363817 -0.750217,0 -1.361478,-0.61243 -1.361478,-1.363817 0,-0.751387 0.611261,-1.362648 1.361478,-1.362648 0.751972,0 1.363964,0.611261 1.363964,1.362648"
         id="path3222"
         style="fill:#38a6e3;fill-opacity:1;fill-rule:nonzero;stroke:none" /><path
         d="m 46.583918,65.953256 c -0.143929,0.383958 -0.511944,0.639929 -0.922084,0.639929 l -3.923097,0 c -0.41014,0 -0.778739,-0.255971 -0.922083,-0.639929 -0.144076,-0.385567 -0.0332,-0.819256 0.276449,-1.088392 l 1.553091,-1.347875 -1.55192,-1.346119 c -0.410726,-0.356605 -0.455923,-0.978251 -0.09946,-1.388391 0.194831,-0.225109 0.468648,-0.33993 0.745098,-0.33993 0.228619,0 0.457677,0.07884 0.644025,0.240467 l 1.31745,1.142804 1.314817,-1.142219 c 0.186787,-0.162213 0.415845,-0.241052 0.644464,-0.241052 0.276011,0 0.550266,0.114821 0.744512,0.33876 0.357045,0.410286 0.312432,1.032956 -0.09771,1.388391 l -1.55075,1.347289 1.55075,1.347875 c 0.310238,0.269721 0.420525,0.70341 0.27645,1.088392"
         id="path3224"
         style="fill:#38a6e3;fill-opacity:1;fill-rule:nonzero;stroke:none" /><path
         d="m 125.15878,100.69346 c 0,-0.74905 0.61023,-1.359287 1.36148,-1.359287 0.74904,0 1.35869,0.610237 1.35869,1.359287 0,0.74963 -0.60965,1.35986 -1.35869,1.35986 -0.75125,0 -1.36148,-0.61023 -1.36148,-1.35986"
         id="path3226"
         style="fill:#38a6e3;fill-opacity:1;fill-rule:nonzero;stroke:none" /><path
         d="m 72.559351,80.536335 c -0.747876,0 -1.356358,-0.609066 -1.356358,-1.358698 0,-0.750217 0.608482,-1.361624 1.356358,-1.361624 0.751387,0 1.362209,0.611407 1.362209,1.361624 0,0.749632 -0.610822,1.358698 -1.362209,1.358698"
         id="path3228"
         style="fill:#38a6e3;fill-opacity:1;fill-rule:nonzero;stroke:none" /><path
         d="m 101.45959,42.597657 c -0.46045,0.290784 -1.06616,0.154168 -1.35636,-0.303509 -0.123448,-0.194246 -1.871223,-3.040214 -3.294573,-8.665889 0.754313,0.211506 1.500434,0.439394 2.240412,0.684542 1.287321,4.578385 2.691071,6.88725 2.717981,6.927767 0.28903,0.459433 0.15197,1.067914 -0.30746,1.357089"
         id="path3230"
         style="fill:#38a6e3;fill-opacity:1;fill-rule:nonzero;stroke:none" /><path
         d="m 38.458642,74.134115 c 0,0.751387 -0.612578,1.363817 -1.366159,1.363817 -0.748022,0 -1.357089,-0.61243 -1.357089,-1.363817 0,-0.751387 0.609067,-1.362648 1.357089,-1.362648 0.753581,0 1.366159,0.611261 1.366159,1.362648"
         id="path3232"
         style="fill:#38a6e3;fill-opacity:1;fill-rule:nonzero;stroke:none" /><path
         d="m 83.178232,60.834405 0.313748,0.22116 0.314187,-0.22116 c 0.237688,-0.14627 0.510774,-0.27879 0.809017,-0.395367 -0.362748,-0.07196 -0.737052,-0.119356 -1.123204,-0.119356 -0.385713,0 -0.759432,0.04856 -1.12218,0.120526 0.297073,0.115407 0.570744,0.247927 0.808432,0.394197 z m -7.390564,1.705065 c -0.483421,0.241637 -1.076544,0.04739 -1.322131,-0.438809 -0.243393,-0.485762 -0.04812,-1.07713 0.438809,-1.321107 1.252945,-0.63013 2.73451,-0.904385 4.144695,-0.90497 1.176885,-0.959968 2.761278,-1.524422 4.442939,-1.524422 1.681516,0 3.256108,0.565039 4.432554,1.523837 1.412965,0 2.89804,0.274255 4.153911,0.905555 0.485615,0.243977 0.681031,0.835345 0.437053,1.321546 -0.245148,0.485176 -0.835345,0.681762 -1.321546,0.43837 -1.818716,-0.914185 -4.522363,-0.84734 -5.973065,-0.212676 2.393994,1.281029 4.043477,4.984136 4.043477,7.552923 0,1.898726 -0.967866,2.861472 -2.875076,2.861472 -0.395951,0 -0.8371,-0.03554 -1.312477,-0.07314 -0.987319,-0.08059 -2.183659,-0.08059 -3.172734,0 -0.475961,0.03759 -0.916525,0.07314 -1.313062,0.07314 -1.908818,0 -2.876684,-0.962746 -2.876684,-2.861472 0,-2.568787 1.650652,-6.271894 4.047426,-7.552923 -1.451141,-0.634664 -4.154349,-0.701509 -5.974089,0.212676"
         id="path3234"
         style="fill:#38a6e3;fill-opacity:1;fill-rule:nonzero;stroke:none" /><path
         d="m 95.778627,79.177637 c 0,0.749632 -0.610237,1.358698 -1.361039,1.358698 -0.748461,0 -1.357528,-0.609066 -1.357528,-1.358698 0,-0.750217 0.609067,-1.361624 1.357528,-1.361624 0.750802,0 1.361039,0.611407 1.361039,1.361624"
         id="path3236"
         style="fill:#38a6e3;fill-opacity:1;fill-rule:nonzero;stroke:none" /></g></g></svg>